<svg width="240" height="29" viewBox="0 0 240 29" fill="none" xmlns="http://www.w3.org/2000/svg">
<path d="M6.784 0.431998L7.176 0.795999C5.832 2.7 4.87067 4.73467 4.292 6.9C3.71333 9.06533 3.424 11.52 3.424 14.264C3.424 17.008 3.71333 19.4627 4.292 21.628C4.87067 23.7747 5.832 25.8093 7.176 27.732L6.784 28.096C4.67467 26.4347 3.02267 24.4653 1.828 22.188C0.652 19.9107 0.0640001 17.2693 0.0640001 14.264C0.0640001 11.2587 0.652 8.61733 1.828 6.34C3.02267 4.06267 4.67467 2.09333 6.784 0.431998ZM16.712 3.204C17.4213 3.204 18 3.26933 18.448 3.4C18.896 3.512 19.288 3.66133 19.624 3.848C19.8853 3.99733 20.128 4.184 20.352 4.408C20.576 4.632 20.7533 4.87467 20.884 5.136C21.0146 5.39733 21.08 5.68667 21.08 6.004C21.08 6.54533 20.884 6.97467 20.492 7.292C20.1 7.60933 19.6426 7.768 19.12 7.768C18.6346 7.768 18.2053 7.628 17.832 7.348C17.4773 7.068 17.3 6.66667 17.3 6.144C17.3 5.67733 17.4493 5.276 17.748 4.94C18.0653 4.58533 18.476 4.36133 18.98 4.268C18.8493 4.1 18.6066 3.96 18.252 3.848C17.916 3.71733 17.5146 3.652 17.048 3.652C16.0773 3.652 15.2653 3.95067 14.612 4.548C13.9586 5.14533 13.632 6.032 13.632 7.208C13.632 7.656 13.7066 8.14133 13.856 8.664C14.024 9.168 14.3506 9.672 14.836 10.176C15.1533 10.1013 15.452 10.0547 15.732 10.036C16.0306 9.99867 16.2733 9.98 16.46 9.98C16.796 9.98 17.0573 10.0453 17.244 10.176C17.4306 10.288 17.524 10.456 17.524 10.68C17.524 10.8667 17.4493 11.0067 17.3 11.1C17.1506 11.1933 16.964 11.24 16.74 11.24C16.404 11.24 16.0586 11.156 15.704 10.988C15.3493 10.82 15.0693 10.68 14.864 10.568C13.912 10.96 13.1373 11.5107 12.54 12.22C11.9613 12.9293 11.672 13.8907 11.672 15.104C11.672 16.3547 11.9986 17.4 12.652 18.24C13.324 19.08 14.2573 19.7147 15.452 20.144C16.6466 20.5547 18.028 20.76 19.596 20.76C20.548 20.76 21.472 20.6573 22.368 20.452C23.2826 20.228 24.104 19.9013 24.832 19.472C25.56 19.0427 26.1386 18.5293 26.568 17.932C26.9973 17.316 27.212 16.6067 27.212 15.804C27.212 15.4867 27.156 15.0853 27.044 14.6C26.932 14.1147 26.6893 13.6293 26.316 13.144C25.9426 12.6587 25.364 12.2667 24.58 11.968L24.804 11.716C25.924 12.052 26.7546 12.668 27.296 13.564C27.856 14.4413 28.136 15.4493 28.136 16.588C28.136 17.82 27.7533 18.9587 26.988 20.004C26.2226 21.0307 25.14 21.852 23.74 22.468C22.3586 23.084 20.7253 23.392 18.84 23.392C17.4026 23.392 16.0773 23.2333 14.864 22.916C13.6693 22.5987 12.624 22.1413 11.728 21.544C10.8506 20.928 10.1693 20.1907 9.68397 19.332C9.19864 18.4733 8.95597 17.5027 8.95597 16.42C8.95597 15.3933 9.1613 14.516 9.57197 13.788C9.98264 13.06 10.496 12.4627 11.112 11.996C11.728 11.5107 12.344 11.1373 12.96 10.876C13.576 10.6147 14.08 10.4373 14.472 10.344C13.8746 10.1013 13.3426 9.812 12.876 9.476C12.4093 9.12133 12.0453 8.72 11.784 8.272C11.5413 7.80533 11.42 7.31067 11.42 6.788C11.42 6.228 11.5506 5.73333 11.812 5.304C12.092 4.856 12.4746 4.47333 12.96 4.156C13.4453 3.83867 14.0053 3.60533 14.64 3.456C15.2746 3.288 15.9653 3.204 16.712 3.204ZM27.436 2.784C28.6866 2.784 29.7226 3.12933 30.544 3.82C31.3653 4.492 31.776 5.444 31.776 6.676C31.776 7.53467 31.58 8.26267 31.188 8.86C30.796 9.45733 30.2453 9.96133 29.536 10.372C28.8453 10.764 28.0333 11.0813 27.1 11.324C26.764 11.4547 26.3533 11.5947 25.868 11.744C25.3826 11.8933 24.86 12.052 24.3 12.22C23.7586 12.3693 23.236 12.5187 22.732 12.668C22.2466 12.8173 21.836 12.9573 21.5 13.088C20.324 13.3867 19.3906 13.732 18.7 14.124C18.0093 14.4973 17.664 15.02 17.664 15.692C17.664 16.1587 17.8133 16.5693 18.112 16.924C18.4106 17.26 18.784 17.512 19.232 17.68C19.68 17.848 20.1186 17.932 20.548 17.932C20.6786 17.932 20.8373 17.9227 21.024 17.904C21.2106 17.8667 21.3786 17.82 21.528 17.764C21.696 17.708 21.808 17.6333 21.864 17.54C21.4533 17.428 21.1173 17.232 20.856 16.952C20.5946 16.672 20.464 16.308 20.464 15.86C20.464 15.3187 20.66 14.8987 21.052 14.6C21.444 14.3013 21.92 14.152 22.48 14.152C23.0773 14.152 23.544 14.3107 23.88 14.628C24.2346 14.9453 24.412 15.3747 24.412 15.916C24.412 16.476 24.2346 16.9427 23.88 17.316C23.5253 17.6893 23.0586 17.9693 22.48 18.156C21.92 18.324 21.3133 18.408 20.66 18.408C19.988 18.408 19.3533 18.2867 18.756 18.044C18.1586 17.7827 17.6733 17.4 17.3 16.896C16.9266 16.392 16.74 15.7293 16.74 14.908C16.74 14.0493 16.9546 13.312 17.384 12.696C17.8133 12.08 18.4293 11.5667 19.232 11.156C20.0533 10.7267 21.0333 10.3813 22.172 10.12C22.62 9.98933 23.1333 9.84933 23.712 9.7C24.3093 9.55067 24.916 9.392 25.532 9.224C26.148 9.03733 26.7266 8.84133 27.268 8.636C28.4626 8.28133 29.3586 7.88933 29.956 7.46C30.5533 7.03067 30.852 6.508 30.852 5.892C30.852 5.36933 30.7026 4.912 30.404 4.52C30.1053 4.128 29.7133 3.82 29.228 3.596C28.7426 3.372 28.22 3.26 27.66 3.26C27.4733 3.26 27.3053 3.27867 27.156 3.316C27.0253 3.33467 26.932 3.372 26.876 3.428C27.2493 3.596 27.5293 3.82933 27.716 4.128C27.9213 4.42667 28.024 4.73467 28.024 5.052C28.024 5.556 27.828 5.95733 27.436 6.256C27.0626 6.55467 26.596 6.704 26.036 6.704C25.4946 6.704 25.028 6.55467 24.636 6.256C24.2626 5.95733 24.076 5.53733 24.076 4.996C24.076 4.51067 24.2253 4.1 24.524 3.764C24.8226 3.428 25.224 3.18533 25.728 3.036C26.2506 2.868 26.82 2.784 27.436 2.784ZM46.8179 8.132C47.5085 8.132 48.1432 8.216 48.7219 8.384C49.3192 8.53333 49.8325 8.748 50.2619 9.028C50.7099 9.308 51.0645 9.66267 51.3259 10.092C51.5872 10.5027 51.7179 10.96 51.7179 11.464C51.7179 12.08 51.5312 12.5747 51.1579 12.948C50.7845 13.3213 50.3179 13.508 49.7579 13.508C49.1792 13.508 48.7032 13.34 48.3299 13.004C47.9752 12.668 47.7979 12.22 47.7979 11.66C47.7979 11.1187 47.9565 10.6707 48.2739 10.316C48.5912 9.96133 48.9739 9.728 49.4219 9.616C49.2539 9.37333 48.9925 9.17733 48.6379 9.028C48.2832 8.86 47.8912 8.776 47.4619 8.776C46.9019 8.776 46.3979 8.92533 45.9499 9.224C45.5019 9.504 45.1099 9.93333 44.7739 10.512C44.4565 11.072 44.2045 11.772 44.0179 12.612C43.8499 13.4333 43.7659 14.3853 43.7659 15.468C43.7659 16.98 43.9432 18.1747 44.2979 19.052C44.6712 19.9293 45.1472 20.5547 45.7259 20.928C46.3045 21.2827 46.9205 21.46 47.5739 21.46C47.9659 21.46 48.3859 21.3853 48.8339 21.236C49.2819 21.0867 49.7205 20.8347 50.1499 20.48C50.5979 20.1253 50.9992 19.6213 51.3539 18.968L51.8859 19.164C51.6805 19.8173 51.3445 20.4707 50.8779 21.124C50.4299 21.7773 49.8419 22.3187 49.1139 22.748C48.3859 23.1773 47.4992 23.392 46.4539 23.392C45.2592 23.392 44.1765 23.1213 43.2059 22.58C42.2352 22.02 41.4605 21.18 40.8819 20.06C40.3219 18.94 40.0419 17.5493 40.0419 15.888C40.0419 14.2453 40.3312 12.8547 40.9099 11.716C41.4885 10.5587 42.2912 9.672 43.3179 9.056C44.3632 8.44 45.5299 8.132 46.8179 8.132ZM58.6945 1.076V10.988C59.1611 9.94267 59.8051 9.20533 60.6265 8.776C61.4665 8.34667 62.3718 8.132 63.3425 8.132C64.1078 8.132 64.7331 8.23467 65.2185 8.44C65.7038 8.64533 66.0958 8.90667 66.3945 9.224C66.7118 9.57867 66.9358 10.036 67.0665 10.596C67.2158 11.156 67.2905 11.912 67.2905 12.864V20.396C67.2905 21.18 67.4305 21.712 67.7105 21.992C68.0091 22.272 68.5038 22.412 69.1945 22.412V23C68.8585 22.9813 68.3451 22.9627 67.6545 22.944C66.9638 22.9067 66.2825 22.888 65.6105 22.888C64.9385 22.888 64.2758 22.9067 63.6225 22.944C62.9691 22.9627 62.4745 22.9813 62.1385 23V22.412C62.7358 22.412 63.1558 22.272 63.3985 21.992C63.6411 21.712 63.7625 21.18 63.7625 20.396V11.912C63.7625 11.408 63.7158 10.96 63.6225 10.568C63.5291 10.1573 63.3425 9.84 63.0625 9.616C62.8011 9.37333 62.3998 9.252 61.8585 9.252C61.2611 9.252 60.7198 9.42 60.2345 9.756C59.7678 10.0733 59.3945 10.5307 59.1145 11.128C58.8345 11.7067 58.6945 12.3693 58.6945 13.116V20.396C58.6945 21.18 58.8158 21.712 59.0585 21.992C59.3198 22.272 59.7398 22.412 60.3185 22.412V23C60.0011 22.9813 59.5251 22.9627 58.8905 22.944C58.2745 22.9067 57.6305 22.888 56.9585 22.888C56.2865 22.888 55.5865 22.9067 54.8585 22.944C54.1491 22.9627 53.6171 22.9813 53.2625 23V22.412C53.9531 22.412 54.4385 22.272 54.7185 21.992C55.0171 21.712 55.1665 21.18 55.1665 20.396V4.436C55.1665 3.596 55.0265 2.98 54.7465 2.588C54.4851 2.17733 53.9905 1.972 53.2625 1.972V1.384C53.8598 1.44 54.4385 1.468 54.9985 1.468C55.7078 1.468 56.3705 1.44 56.9865 1.384C57.6025 1.30933 58.1718 1.20667 58.6945 1.076ZM77.3582 8.132C79.0009 8.132 80.2889 8.62667 81.2222 9.616C82.1556 10.6053 82.6222 12.1827 82.6222 14.348H73.1862L73.1582 13.816H79.3742C79.4116 12.9013 79.3556 12.0613 79.2062 11.296C79.0569 10.512 78.8142 9.88667 78.4782 9.42C78.1609 8.95333 77.7409 8.72 77.2182 8.72C76.5089 8.72 75.8929 9.14 75.3702 9.98C74.8476 10.8013 74.5209 12.1547 74.3902 14.04L74.5022 14.208C74.4649 14.4507 74.4369 14.712 74.4182 14.992C74.4182 15.272 74.4182 15.552 74.4182 15.832C74.4182 17.12 74.6049 18.184 74.9782 19.024C75.3516 19.864 75.8369 20.48 76.4342 20.872C77.0316 21.264 77.6476 21.46 78.2822 21.46C78.7116 21.46 79.1502 21.3947 79.5982 21.264C80.0462 21.1333 80.4849 20.8907 80.9142 20.536C81.3436 20.1813 81.7356 19.6773 82.0902 19.024L82.6222 19.248C82.4169 19.9013 82.0716 20.5547 81.5862 21.208C81.1196 21.8427 80.5129 22.3653 79.7662 22.776C79.0196 23.1867 78.1422 23.392 77.1342 23.392C75.8649 23.392 74.7449 23.112 73.7742 22.552C72.8036 21.992 72.0476 21.1613 71.5062 20.06C70.9649 18.94 70.6942 17.5773 70.6942 15.972C70.6942 14.2733 70.9742 12.8453 71.5342 11.688C72.1129 10.5307 72.9062 9.65333 73.9142 9.056C74.9222 8.44 76.0702 8.132 77.3582 8.132ZM91.6069 8.132C92.2976 8.132 92.9323 8.216 93.5109 8.384C94.1083 8.53333 94.6216 8.748 95.0509 9.028C95.4989 9.308 95.8536 9.66267 96.1149 10.092C96.3763 10.5027 96.5069 10.96 96.5069 11.464C96.5069 12.08 96.3203 12.5747 95.9469 12.948C95.5736 13.3213 95.1069 13.508 94.5469 13.508C93.9683 13.508 93.4923 13.34 93.1189 13.004C92.7643 12.668 92.5869 12.22 92.5869 11.66C92.5869 11.1187 92.7456 10.6707 93.0629 10.316C93.3803 9.96133 93.7629 9.728 94.2109 9.616C94.0429 9.37333 93.7816 9.17733 93.4269 9.028C93.0723 8.86 92.6803 8.776 92.2509 8.776C91.6909 8.776 91.1869 8.92533 90.7389 9.224C90.2909 9.504 89.8989 9.93333 89.5629 10.512C89.2456 11.072 88.9936 11.772 88.8069 12.612C88.6389 13.4333 88.5549 14.3853 88.5549 15.468C88.5549 16.98 88.7323 18.1747 89.0869 19.052C89.4603 19.9293 89.9363 20.5547 90.5149 20.928C91.0936 21.2827 91.7096 21.46 92.3629 21.46C92.7549 21.46 93.1749 21.3853 93.6229 21.236C94.0709 21.0867 94.5096 20.8347 94.9389 20.48C95.3869 20.1253 95.7883 19.6213 96.1429 18.968L96.6749 19.164C96.4696 19.8173 96.1336 20.4707 95.6669 21.124C95.2189 21.7773 94.6309 22.3187 93.9029 22.748C93.1749 23.1773 92.2883 23.392 91.2429 23.392C90.0483 23.392 88.9656 23.1213 87.9949 22.58C87.0243 22.02 86.2496 21.18 85.6709 20.06C85.1109 18.94 84.8309 17.5493 84.8309 15.888C84.8309 14.2453 85.1203 12.8547 85.6989 11.716C86.2776 10.5587 87.0803 9.672 88.1069 9.056C89.1523 8.44 90.3189 8.132 91.6069 8.132ZM103.484 1.076V20.396C103.484 21.18 103.614 21.712 103.876 21.992C104.137 22.272 104.585 22.412 105.22 22.412V23C104.902 22.9813 104.417 22.9627 103.764 22.944C103.11 22.9067 102.448 22.888 101.776 22.888C101.085 22.888 100.376 22.9067 99.6475 22.944C98.9382 22.9627 98.4062 22.9813 98.0515 23V22.412C98.7422 22.412 99.2275 22.272 99.5075 21.992C99.8062 21.712 99.9555 21.18 99.9555 20.396V4.436C99.9555 3.596 99.8155 2.98 99.5355 2.588C99.2742 2.17733 98.7795 1.972 98.0515 1.972V1.384C98.6489 1.44 99.2275 1.468 99.7875 1.468C100.497 1.468 101.16 1.44 101.776 1.384C102.392 1.30933 102.961 1.20667 103.484 1.076ZM112.556 8.524V9.084C111.996 9.196 111.454 9.41067 110.932 9.728C110.409 10.0267 109.896 10.4467 109.392 10.988L106.62 13.872L106.928 13.256L111.856 20.956C112.117 21.3293 112.36 21.6467 112.584 21.908C112.826 22.1507 113.125 22.3187 113.48 22.412V23C113.237 22.9813 112.854 22.9627 112.332 22.944C111.809 22.9067 111.286 22.888 110.764 22.888C110.129 22.888 109.476 22.9067 108.804 22.944C108.15 22.9627 107.656 22.9813 107.32 23V22.412C107.693 22.412 107.945 22.328 108.076 22.16C108.225 21.9733 108.206 21.74 108.02 21.46L105.108 16.56C104.846 16.1493 104.594 15.888 104.352 15.776C104.109 15.6453 103.782 15.58 103.372 15.58V15.02C103.838 14.9827 104.221 14.8987 104.52 14.768C104.837 14.6373 105.136 14.432 105.416 14.152L107.516 12.052C108.132 11.436 108.44 10.9133 108.44 10.484C108.458 10.0547 108.262 9.728 107.852 9.504C107.46 9.26133 106.946 9.12133 106.312 9.084V8.524C106.816 8.54267 107.376 8.57067 107.992 8.608C108.608 8.62667 109.13 8.636 109.56 8.636C109.896 8.636 110.25 8.636 110.624 8.636C111.016 8.61733 111.38 8.59867 111.716 8.58C112.07 8.56133 112.35 8.54267 112.556 8.524ZM125.797 3.932V8.552H129.381V9.112H125.797V20.256C125.797 20.928 125.919 21.404 126.161 21.684C126.404 21.964 126.749 22.104 127.197 22.104C127.627 22.104 128.019 21.9453 128.373 21.628C128.728 21.292 129.045 20.7413 129.325 19.976L129.829 20.2C129.549 21.1147 129.111 21.88 128.513 22.496C127.935 23.0933 127.113 23.392 126.049 23.392C125.415 23.392 124.873 23.308 124.425 23.14C123.996 22.9907 123.623 22.7667 123.305 22.468C122.895 22.0387 122.615 21.5253 122.465 20.928C122.335 20.3307 122.269 19.5373 122.269 18.548V9.112H119.805V8.552H122.269V4.66C122.941 4.64133 123.567 4.576 124.145 4.464C124.724 4.352 125.275 4.17467 125.797 3.932ZM135.585 1.076V10.988C136.052 9.94267 136.696 9.20533 137.517 8.776C138.357 8.34667 139.262 8.132 140.233 8.132C140.998 8.132 141.624 8.23467 142.109 8.44C142.594 8.64533 142.986 8.90667 143.285 9.224C143.602 9.57867 143.826 10.036 143.957 10.596C144.106 11.156 144.181 11.912 144.181 12.864V20.396C144.181 21.18 144.321 21.712 144.601 21.992C144.9 22.272 145.394 22.412 146.085 22.412V23C145.749 22.9813 145.236 22.9627 144.545 22.944C143.854 22.9067 143.173 22.888 142.501 22.888C141.829 22.888 141.166 22.9067 140.513 22.944C139.86 22.9627 139.365 22.9813 139.029 23V22.412C139.626 22.412 140.046 22.272 140.289 21.992C140.532 21.712 140.653 21.18 140.653 20.396V11.912C140.653 11.408 140.606 10.96 140.513 10.568C140.42 10.1573 140.233 9.84 139.953 9.616C139.692 9.37333 139.29 9.252 138.749 9.252C138.152 9.252 137.61 9.42 137.125 9.756C136.658 10.0733 136.285 10.5307 136.005 11.128C135.725 11.7067 135.585 12.3693 135.585 13.116V20.396C135.585 21.18 135.706 21.712 135.949 21.992C136.21 22.272 136.63 22.412 137.209 22.412V23C136.892 22.9813 136.416 22.9627 135.781 22.944C135.165 22.9067 134.521 22.888 133.849 22.888C133.177 22.888 132.477 22.9067 131.749 22.944C131.04 22.9627 130.508 22.9813 130.153 23V22.412C130.844 22.412 131.329 22.272 131.609 21.992C131.908 21.712 132.057 21.18 132.057 20.396V4.436C132.057 3.596 131.917 2.98 131.637 2.588C131.376 2.17733 130.881 1.972 130.153 1.972V1.384C130.75 1.44 131.329 1.468 131.889 1.468C132.598 1.468 133.261 1.44 133.877 1.384C134.493 1.30933 135.062 1.20667 135.585 1.076ZM154.249 8.132C155.892 8.132 157.18 8.62667 158.113 9.616C159.046 10.6053 159.513 12.1827 159.513 14.348H150.077L150.049 13.816H156.265C156.302 12.9013 156.246 12.0613 156.097 11.296C155.948 10.512 155.705 9.88667 155.369 9.42C155.052 8.95333 154.632 8.72 154.109 8.72C153.4 8.72 152.784 9.14 152.261 9.98C151.738 10.8013 151.412 12.1547 151.281 14.04L151.393 14.208C151.356 14.4507 151.328 14.712 151.309 14.992C151.309 15.272 151.309 15.552 151.309 15.832C151.309 17.12 151.496 18.184 151.869 19.024C152.242 19.864 152.728 20.48 153.325 20.872C153.922 21.264 154.538 21.46 155.173 21.46C155.602 21.46 156.041 21.3947 156.489 21.264C156.937 21.1333 157.376 20.8907 157.805 20.536C158.234 20.1813 158.626 19.6773 158.981 19.024L159.513 19.248C159.308 19.9013 158.962 20.5547 158.477 21.208C158.01 21.8427 157.404 22.3653 156.657 22.776C155.91 23.1867 155.033 23.392 154.025 23.392C152.756 23.392 151.636 23.112 150.665 22.552C149.694 21.992 148.938 21.1613 148.397 20.06C147.856 18.94 147.585 17.5773 147.585 15.972C147.585 14.2733 147.865 12.8453 148.425 11.688C149.004 10.5307 149.797 9.65333 150.805 9.056C151.813 8.44 152.961 8.132 154.249 8.132ZM180.508 8.524V9.112C180.153 9.18667 179.817 9.38267 179.5 9.7C179.201 10.0173 178.912 10.5773 178.632 11.38L174.348 23.084C174.124 23.0653 173.9 23.056 173.676 23.056C173.452 23.056 173.218 23.0653 172.976 23.084L167.936 10.68C167.656 9.97067 167.366 9.532 167.068 9.364C166.769 9.196 166.517 9.112 166.312 9.112V8.524C166.834 8.56133 167.376 8.59867 167.936 8.636C168.496 8.65467 169.112 8.664 169.784 8.664C170.362 8.664 170.969 8.65467 171.604 8.636C172.257 8.59867 172.864 8.56133 173.424 8.524V9.112C173.013 9.112 172.64 9.14 172.304 9.196C171.986 9.252 171.772 9.40133 171.66 9.644C171.548 9.868 171.594 10.2693 171.8 10.848L175.16 19.556L174.908 19.864L177.456 12.948C177.773 12.0707 177.904 11.3613 177.848 10.82C177.792 10.2787 177.586 9.868 177.232 9.588C176.896 9.308 176.41 9.14933 175.776 9.112V8.524C176.093 8.54267 176.392 8.56133 176.672 8.58C176.97 8.59867 177.26 8.61733 177.54 8.636C177.838 8.636 178.118 8.636 178.38 8.636C178.772 8.636 179.154 8.62667 179.528 8.608C179.92 8.58933 180.246 8.56133 180.508 8.524ZM184.735 1.384C185.407 1.384 185.958 1.57067 186.387 1.944C186.816 2.31733 187.031 2.812 187.031 3.428C187.031 4.044 186.816 4.53867 186.387 4.912C185.958 5.28533 185.407 5.472 184.735 5.472C184.063 5.472 183.512 5.28533 183.083 4.912C182.654 4.53867 182.439 4.044 182.439 3.428C182.439 2.812 182.654 2.31733 183.083 1.944C183.512 1.57067 184.063 1.384 184.735 1.384ZM186.695 8.216V20.396C186.695 21.18 186.835 21.712 187.115 21.992C187.414 22.272 187.908 22.412 188.599 22.412V23C188.263 22.9813 187.75 22.9627 187.059 22.944C186.368 22.9067 185.668 22.888 184.959 22.888C184.268 22.888 183.568 22.9067 182.859 22.944C182.15 22.9627 181.618 22.9813 181.263 23V22.412C181.954 22.412 182.439 22.272 182.719 21.992C183.018 21.712 183.167 21.18 183.167 20.396V11.604C183.167 10.7453 183.027 10.12 182.747 9.728C182.486 9.31733 181.991 9.112 181.263 9.112V8.524C181.86 8.58 182.439 8.608 182.999 8.608C183.69 8.608 184.343 8.58 184.959 8.524C185.594 8.44933 186.172 8.34667 186.695 8.216ZM199.06 8.132C200.516 8.132 201.73 8.748 202.7 9.98C203.69 11.1933 204.184 13.0413 204.184 15.524C204.184 17.372 203.895 18.884 203.316 20.06C202.738 21.2173 201.963 22.0667 200.992 22.608C200.022 23.1307 198.967 23.392 197.828 23.392C197.026 23.392 196.251 23.224 195.504 22.888C194.776 22.5333 194.188 21.9827 193.74 21.236H194.216C194.59 21.7587 195.038 22.1507 195.56 22.412C196.102 22.6547 196.643 22.776 197.184 22.776C198.286 22.776 199.107 22.2067 199.648 21.068C200.19 19.9107 200.46 18.1467 200.46 15.776C200.46 14.208 200.348 12.948 200.124 11.996C199.919 11.0253 199.611 10.3253 199.2 9.896C198.79 9.448 198.276 9.224 197.66 9.224C196.932 9.224 196.26 9.532 195.644 10.148C195.047 10.764 194.702 11.6413 194.608 12.78L194.412 11.996C194.711 10.764 195.271 9.812 196.092 9.14C196.932 8.468 197.922 8.132 199.06 8.132ZM194.72 1.076V22.16C194.328 22.1787 193.927 22.2533 193.516 22.384C193.106 22.496 192.723 22.6453 192.368 22.832C192.014 23 191.706 23.2053 191.444 23.448L190.996 23.224C191.09 22.9627 191.146 22.7013 191.164 22.44C191.183 22.1787 191.192 21.908 191.192 21.628V4.436C191.192 3.596 191.052 2.98 190.772 2.588C190.511 2.17733 190.016 1.972 189.288 1.972V1.384C189.886 1.44 190.464 1.468 191.024 1.468C191.734 1.468 192.396 1.44 193.012 1.384C193.628 1.30933 194.198 1.20667 194.72 1.076ZM213.12 8.132C214.763 8.132 216.051 8.62667 216.984 9.616C217.917 10.6053 218.384 12.1827 218.384 14.348H208.948L208.92 13.816H215.136C215.173 12.9013 215.117 12.0613 214.968 11.296C214.819 10.512 214.576 9.88667 214.24 9.42C213.923 8.95333 213.503 8.72 212.98 8.72C212.271 8.72 211.655 9.14 211.132 9.98C210.609 10.8013 210.283 12.1547 210.152 14.04L210.264 14.208C210.227 14.4507 210.199 14.712 210.18 14.992C210.18 15.272 210.18 15.552 210.18 15.832C210.18 17.12 210.367 18.184 210.74 19.024C211.113 19.864 211.599 20.48 212.196 20.872C212.793 21.264 213.409 21.46 214.044 21.46C214.473 21.46 214.912 21.3947 215.36 21.264C215.808 21.1333 216.247 20.8907 216.676 20.536C217.105 20.1813 217.497 19.6773 217.852 19.024L218.384 19.248C218.179 19.9013 217.833 20.5547 217.348 21.208C216.881 21.8427 216.275 22.3653 215.528 22.776C214.781 23.1867 213.904 23.392 212.896 23.392C211.627 23.392 210.507 23.112 209.536 22.552C208.565 21.992 207.809 21.1613 207.268 20.06C206.727 18.94 206.456 17.5773 206.456 15.972C206.456 14.2733 206.736 12.8453 207.296 11.688C207.875 10.5307 208.668 9.65333 209.676 9.056C210.684 8.44 211.832 8.132 213.12 8.132ZM225.549 8.132C226.333 8.132 227.005 8.244 227.565 8.468C228.125 8.692 228.535 8.888 228.797 9.056C229.431 9.52267 229.814 9.224 229.945 8.16H230.561C230.523 8.70133 230.495 9.34533 230.477 10.092C230.458 10.82 230.449 11.8 230.449 13.032H229.833C229.739 12.3413 229.562 11.6693 229.301 11.016C229.039 10.3627 228.657 9.82133 228.153 9.392C227.649 8.944 226.986 8.72 226.165 8.72C225.586 8.72 225.101 8.888 224.709 9.224C224.335 9.56 224.149 10.036 224.149 10.652C224.149 11.212 224.317 11.7067 224.653 12.136C224.989 12.5467 225.418 12.9387 225.941 13.312C226.482 13.6667 227.042 14.0587 227.621 14.488C228.293 14.936 228.89 15.3933 229.413 15.86C229.935 16.308 230.355 16.812 230.673 17.372C230.99 17.9133 231.149 18.5573 231.149 19.304C231.149 20.1627 230.906 20.9 230.421 21.516C229.954 22.1133 229.329 22.58 228.545 22.916C227.779 23.2333 226.93 23.392 225.997 23.392C225.493 23.392 225.035 23.3453 224.625 23.252C224.214 23.1587 223.85 23.0373 223.533 22.888C223.29 22.7573 223.066 22.636 222.861 22.524C222.674 22.412 222.478 22.3187 222.273 22.244C222.086 22.1507 221.918 22.188 221.769 22.356C221.638 22.524 221.535 22.804 221.461 23.196H220.845C220.882 22.5987 220.91 21.8707 220.929 21.012C220.947 20.1533 220.957 19.0147 220.957 17.596H221.573C221.703 18.6227 221.899 19.528 222.161 20.312C222.441 21.0773 222.842 21.684 223.365 22.132C223.887 22.5613 224.559 22.776 225.381 22.776C225.735 22.776 226.071 22.7013 226.389 22.552C226.725 22.4027 226.995 22.1693 227.201 21.852C227.425 21.5347 227.537 21.1053 227.537 20.564C227.537 19.7427 227.257 19.0613 226.697 18.52C226.137 17.9787 225.437 17.4 224.597 16.784C223.962 16.3173 223.365 15.86 222.805 15.412C222.263 14.964 221.815 14.46 221.461 13.9C221.125 13.34 220.957 12.6773 220.957 11.912C220.957 11.072 221.171 10.3813 221.601 9.84C222.03 9.28 222.59 8.86 223.281 8.58C223.99 8.28133 224.746 8.132 225.549 8.132ZM232.482 0.431998C234.591 2.09333 236.234 4.06267 237.41 6.34C238.605 8.61733 239.202 11.2587 239.202 14.264C239.202 17.2693 238.605 19.9107 237.41 22.188C236.234 24.4653 234.591 26.4347 232.482 28.096L232.09 27.732C233.434 25.8093 234.395 23.7747 234.974 21.628C235.553 19.4627 235.842 17.008 235.842 14.264C235.842 11.52 235.553 9.06533 234.974 6.9C234.395 4.73467 233.434 2.7 232.09 0.795999L232.482 0.431998Z" fill="#FFF0E2"/>
</svg>
