<svg width="241" height="70" viewBox="0 0 241 70" fill="none" xmlns="http://www.w3.org/2000/svg">
<rect x="1.38747" y="0.703871" width="238.592" height="68.5923" rx="13.3736" fill="black" stroke="white" stroke-width="1.40774"/>
<g clip-path="url(#clip0_329_6076)">
<path d="M48.0238 40.9327C52.546 38.4201 55.9741 36.5055 56.2696 36.3566C57.2149 35.848 58.1911 34.5017 56.2696 33.4559C55.6493 33.127 52.3091 31.2721 48.0238 28.8799L42.083 34.951L48.0238 40.9326V40.9327Z" fill="#FFD900"/>
<path d="M42.083 34.9502L23.167 54.2417C23.611 54.3012 24.1123 54.182 24.7032 53.8533C25.944 53.166 39.0972 45.8975 48.0237 40.9333L42.083 34.9502Z" fill="#F43249"/>
<path d="M42.0831 34.9491L48.0238 28.9079C48.0238 28.9079 26.0338 16.7641 24.7033 16.0473C24.2021 15.7468 23.6404 15.6576 23.1377 15.7468L42.0831 34.9491Z" fill="#00EE76"/>
<path d="M42.0838 34.9493L23.1384 15.7471C22.3695 15.927 21.7197 16.6144 21.7197 18.0202V51.9677C21.7197 53.2544 22.2225 54.1812 23.1678 54.2705L42.0838 34.9493Z" fill="#00D3FF"/>
</g>
<path d="M87.471 21.1769H88.9812V24.6023C88.5392 24.9543 88.0235 25.2244 87.4342 25.4127C86.8449 25.6009 86.2392 25.695 85.6171 25.695C84.7413 25.695 83.9514 25.5068 83.2475 25.1303C82.5436 24.7456 81.9911 24.2176 81.5901 23.5465C81.189 22.8753 80.9885 22.1182 80.9885 21.2751C80.9885 20.4321 81.189 19.6749 81.5901 19.0038C81.9911 18.3326 82.5436 17.8087 83.2475 17.4322C83.9596 17.0475 84.7577 16.8552 85.6417 16.8552C86.3619 16.8552 87.0167 16.9739 87.6061 17.2112C88.1954 17.4486 88.6906 17.7965 89.0917 18.2548L88.0849 19.237C87.4301 18.5822 86.6402 18.2548 85.7153 18.2548C85.1096 18.2548 84.5694 18.3817 84.0947 18.6354C83.6281 18.8892 83.2598 19.2452 82.9897 19.7036C82.7278 20.1619 82.5968 20.6858 82.5968 21.2751C82.5968 21.8481 82.7278 22.3637 82.9897 22.8221C83.2598 23.2805 83.6281 23.6406 84.0947 23.9025C84.5694 24.1644 85.1055 24.2954 85.703 24.2954C86.3742 24.2954 86.9635 24.1481 87.471 23.8534V21.1769ZM97.532 24.234V25.5723H91.0863V16.978H97.3601V18.3162H92.6824V20.5507H96.8322V21.8644H92.6824V24.234H97.532ZM101.055 18.3285H98.2063V16.978H105.499V18.3285H102.651V25.5723H101.055V18.3285ZM110.09 16.978H111.686V25.5723H110.09V16.978ZM115.754 18.3285H112.906V16.978H120.199V18.3285H117.35V25.5723H115.754V18.3285ZM128.804 25.695C127.929 25.695 127.139 25.5068 126.435 25.1303C125.731 24.7456 125.178 24.2176 124.777 23.5465C124.376 22.8671 124.176 22.11 124.176 21.2751C124.176 20.4402 124.376 19.6872 124.777 19.016C125.178 18.3367 125.731 17.8087 126.435 17.4322C127.139 17.0475 127.929 16.8552 128.804 16.8552C129.68 16.8552 130.47 17.0475 131.174 17.4322C131.878 17.8087 132.43 18.3326 132.831 19.0038C133.233 19.6749 133.433 20.4321 133.433 21.2751C133.433 22.1182 133.233 22.8753 132.831 23.5465C132.43 24.2176 131.878 24.7456 131.174 25.1303C130.47 25.5068 129.68 25.695 128.804 25.695ZM128.804 24.2954C129.377 24.2954 129.893 24.1685 130.351 23.9148C130.81 23.6529 131.17 23.2927 131.432 22.8344C131.694 22.3678 131.825 21.8481 131.825 21.2751C131.825 20.7022 131.694 20.1865 131.432 19.7281C131.17 19.2616 130.81 18.9015 130.351 18.6477C129.893 18.3858 129.377 18.2548 128.804 18.2548C128.231 18.2548 127.716 18.3858 127.257 18.6477C126.799 18.9015 126.439 19.2616 126.177 19.7281C125.915 20.1865 125.784 20.7022 125.784 21.2751C125.784 21.8481 125.915 22.3678 126.177 22.8344C126.439 23.2927 126.799 23.6529 127.257 23.9148C127.716 24.1685 128.231 24.2954 128.804 24.2954ZM142.762 16.978V25.5723H141.448L136.709 19.7527V25.5723H135.125V16.978H136.439L141.178 22.7975V16.978H142.762Z" fill="white"/>
<path d="M92.3943 43.6352H95.5742V49.7372C94.7578 50.3531 93.8124 50.8258 92.7381 51.1553C91.6638 51.4847 90.5824 51.6494 89.4937 51.6494C87.9324 51.6494 86.5287 51.32 85.2825 50.6611C84.0364 49.9879 83.0552 49.064 82.339 47.8894C81.6371 46.7005 81.2862 45.3613 81.2862 43.8716C81.2862 42.3819 81.6371 41.0498 82.339 39.8752C83.0552 38.6864 84.0435 37.7625 85.304 37.1036C86.5645 36.4304 87.9826 36.0937 89.5582 36.0937C90.876 36.0937 92.072 36.3158 93.1463 36.7598C94.2206 37.2038 95.123 37.8484 95.8535 38.6935L93.619 40.7562C92.5447 39.6246 91.2484 39.0588 89.7301 39.0588C88.7704 39.0588 87.9181 39.2593 87.1733 39.6604C86.4284 40.0614 85.8483 40.6272 85.4329 41.3578C85.0175 42.0883 84.8099 42.9262 84.8099 43.8716C84.8099 44.8026 85.0175 45.6334 85.4329 46.3639C85.8483 47.0945 86.4213 47.6674 87.1518 48.0828C87.8966 48.4839 88.7417 48.6844 89.6871 48.6844C90.6898 48.6844 91.5922 48.4695 92.3943 48.0398V43.6352ZM104.071 51.5635C102.854 51.5635 101.758 51.3128 100.784 50.8115C99.8245 50.2958 99.0725 49.5868 98.5282 48.6844C97.9839 47.782 97.7117 46.7578 97.7117 45.6119C97.7117 44.466 97.9839 43.4419 98.5282 42.5395C99.0725 41.6371 99.8245 40.9352 100.784 40.4339C101.758 39.9182 102.854 39.6604 104.071 39.6604C105.289 39.6604 106.378 39.9182 107.337 40.4339C108.297 40.9352 109.049 41.6371 109.593 42.5395C110.138 43.4419 110.41 44.466 110.41 45.6119C110.41 46.7578 110.138 47.782 109.593 48.6844C109.049 49.5868 108.297 50.2958 107.337 50.8115C106.378 51.3128 105.289 51.5635 104.071 51.5635ZM104.071 48.8133C104.931 48.8133 105.633 48.5268 106.177 47.9539C106.736 47.3666 107.015 46.586 107.015 45.6119C107.015 44.6379 106.736 43.8644 106.177 43.2915C105.633 42.7042 104.931 42.4106 104.071 42.4106C103.212 42.4106 102.503 42.7042 101.944 43.2915C101.386 43.8644 101.106 44.6379 101.106 45.6119C101.106 46.586 101.386 47.3666 101.944 47.9539C102.503 48.5268 103.212 48.8133 104.071 48.8133ZM118.151 51.5635C116.933 51.5635 115.837 51.3128 114.863 50.8115C113.904 50.2958 113.152 49.5868 112.607 48.6844C112.063 47.782 111.791 46.7578 111.791 45.6119C111.791 44.466 112.063 43.4419 112.607 42.5395C113.152 41.6371 113.904 40.9352 114.863 40.4339C115.837 39.9182 116.933 39.6604 118.151 39.6604C119.368 39.6604 120.457 39.9182 121.416 40.4339C122.376 40.9352 123.128 41.6371 123.672 42.5395C124.217 43.4419 124.489 44.466 124.489 45.6119C124.489 46.7578 124.217 47.782 123.672 48.6844C123.128 49.5868 122.376 50.2958 121.416 50.8115C120.457 51.3128 119.368 51.5635 118.151 51.5635ZM118.151 48.8133C119.01 48.8133 119.712 48.5268 120.256 47.9539C120.815 47.3666 121.094 46.586 121.094 45.6119C121.094 44.6379 120.815 43.8644 120.256 43.2915C119.712 42.7042 119.01 42.4106 118.151 42.4106C117.291 42.4106 116.582 42.7042 116.023 43.2915C115.465 43.8644 115.185 44.6379 115.185 45.6119C115.185 46.586 115.465 47.3666 116.023 47.9539C116.582 48.5268 117.291 48.8133 118.151 48.8133ZM138.654 39.8323V49.4579C138.654 51.5778 138.102 53.1534 136.999 54.1847C135.896 55.2161 134.285 55.7317 132.165 55.7317C131.048 55.7317 129.988 55.5956 128.985 55.3235C127.983 55.0513 127.152 54.6574 126.493 54.1418L127.825 51.7354C128.312 52.1364 128.928 52.4516 129.673 52.6807C130.418 52.9243 131.162 53.046 131.907 53.046C133.068 53.046 133.92 52.781 134.464 52.251C135.023 51.7354 135.302 50.9476 135.302 49.8876V49.3934C134.428 50.3531 133.211 50.833 131.649 50.833C130.589 50.833 129.615 50.6038 128.727 50.1454C127.854 49.6727 127.159 49.0138 126.643 48.1687C126.128 47.3236 125.87 46.3496 125.87 45.2467C125.87 44.1437 126.128 43.1697 126.643 42.3246C127.159 41.4795 127.854 40.8278 128.727 40.3694C129.615 39.8967 130.589 39.6604 131.649 39.6604C133.325 39.6604 134.6 40.2118 135.474 41.3148V39.8323H138.654ZM132.316 48.0828C133.204 48.0828 133.927 47.825 134.486 47.3093C135.059 46.7793 135.345 46.0918 135.345 45.2467C135.345 44.4016 135.059 43.7212 134.486 43.2055C133.927 42.6755 133.204 42.4106 132.316 42.4106C131.427 42.4106 130.697 42.6755 130.124 43.2055C129.551 43.7212 129.265 44.4016 129.265 45.2467C129.265 46.0918 129.551 46.7793 130.124 47.3093C130.697 47.825 131.427 48.0828 132.316 48.0828ZM141.773 35.4492H145.125V51.3916H141.773V35.4492ZM159.559 45.6549C159.559 45.6979 159.537 45.9987 159.494 46.5573H150.75C150.907 47.2735 151.28 47.8393 151.867 48.2547C152.454 48.6701 153.185 48.8778 154.059 48.8778C154.66 48.8778 155.19 48.7918 155.649 48.6199C156.121 48.4337 156.558 48.1473 156.959 47.7605L158.742 49.6942C157.654 50.9404 156.064 51.5635 153.973 51.5635C152.669 51.5635 151.516 51.3128 150.513 50.8115C149.511 50.2958 148.737 49.5868 148.193 48.6844C147.649 47.782 147.377 46.7578 147.377 45.6119C147.377 44.4804 147.642 43.4634 148.171 42.561C148.716 41.6442 149.453 40.9352 150.385 40.4339C151.33 39.9182 152.383 39.6604 153.543 39.6604C154.675 39.6604 155.699 39.9039 156.615 40.3909C157.532 40.8779 158.248 41.5798 158.764 42.4965C159.294 43.3989 159.559 44.4517 159.559 45.6549ZM153.564 42.1957C152.805 42.1957 152.168 42.4106 151.652 42.8403C151.137 43.27 150.821 43.8573 150.707 44.6021H156.401C156.286 43.8716 155.971 43.2915 155.455 42.8618C154.94 42.4177 154.309 42.1957 153.564 42.1957ZM174.622 36.3516C175.954 36.3516 177.107 36.5736 178.081 37.0176C179.069 37.4617 179.829 38.0919 180.358 38.9084C180.888 39.7248 181.153 40.6917 181.153 41.809C181.153 42.9119 180.888 43.8787 180.358 44.7095C179.829 45.526 179.069 46.1562 178.081 46.6003C177.107 47.03 175.954 47.2449 174.622 47.2449H171.592V51.3916H168.112V36.3516H174.622ZM174.428 44.4087C175.474 44.4087 176.269 44.1867 176.813 43.7427C177.358 43.2843 177.63 42.6397 177.63 41.809C177.63 40.9638 177.358 40.3193 176.813 39.8752C176.269 39.4169 175.474 39.1877 174.428 39.1877H171.592V44.4087H174.428ZM183.612 35.4492H186.964V51.3916H183.612V35.4492ZM194.737 39.6604C196.527 39.6604 197.902 40.0901 198.862 40.9495C199.822 41.7946 200.302 43.0766 200.302 44.7955V51.3916H197.165V49.9521C196.534 51.0263 195.36 51.5635 193.641 51.5635C192.753 51.5635 191.979 51.4131 191.321 51.1123C190.676 50.8115 190.182 50.3961 189.838 49.8661C189.494 49.3361 189.322 48.7345 189.322 48.0613C189.322 46.987 189.723 46.1419 190.526 45.526C191.342 44.9101 192.595 44.6021 194.286 44.6021H196.95C196.95 43.8716 196.728 43.313 196.284 42.9262C195.84 42.5251 195.174 42.3246 194.286 42.3246C193.67 42.3246 193.061 42.4249 192.459 42.6254C191.872 42.8116 191.371 43.0695 190.955 43.3989L189.752 41.057C190.382 40.6129 191.134 40.2691 192.008 40.0256C192.896 39.7821 193.806 39.6604 194.737 39.6604ZM194.479 49.3075C195.052 49.3075 195.56 49.1786 196.004 48.9207C196.449 48.6486 196.764 48.2547 196.95 47.739V46.5573H194.651C193.276 46.5573 192.588 47.0085 192.588 47.9109C192.588 48.3406 192.753 48.6844 193.082 48.9422C193.426 49.1857 193.892 49.3075 194.479 49.3075ZM214.599 39.8323L209.378 52.1006C208.848 53.4327 208.189 54.371 207.401 54.9153C206.628 55.4596 205.689 55.7317 204.586 55.7317C203.985 55.7317 203.39 55.6386 202.803 55.4524C202.216 55.2662 201.736 55.0084 201.364 54.6789L202.588 52.294C202.846 52.5232 203.14 52.7022 203.469 52.8311C203.813 52.9601 204.149 53.0245 204.479 53.0245C204.937 53.0245 205.31 52.9099 205.596 52.6807C205.883 52.4659 206.141 52.1006 206.37 51.585L206.413 51.4775L201.406 39.8323H204.866L208.11 47.6746L211.376 39.8323H214.599Z" fill="white"/>
<defs>
<clipPath id="clip0_329_6076">
<rect width="35.6651" height="38.6272" fill="white" transform="translate(21.7197 15.7139)"/>
</clipPath>
</defs>
</svg>
