<svg width="243" height="70" viewBox="0 0 243 70" fill="none" xmlns="http://www.w3.org/2000/svg">
<rect x="0.703871" y="0.703871" width="241.449" height="68.5923" rx="13.3736" fill="black" stroke="white" stroke-width="1.40774"/>
<path d="M81.868 16.978H85.6249C86.5416 16.978 87.356 17.158 88.0681 17.5182C88.7802 17.8701 89.3327 18.3735 89.7256 19.0283C90.1185 19.6749 90.3149 20.4239 90.3149 21.2751C90.3149 22.1264 90.1185 22.8794 89.7256 23.5342C89.3327 24.1808 88.7802 24.6842 88.0681 25.0443C87.356 25.3963 86.5416 25.5723 85.6249 25.5723H81.868V16.978ZM85.5512 24.2217C86.1815 24.2217 86.734 24.103 87.2087 23.8657C87.6916 23.6201 88.0599 23.2764 88.3137 22.8344C88.5756 22.3842 88.7066 21.8644 88.7066 21.2751C88.7066 20.6858 88.5756 20.1701 88.3137 19.7281C88.0599 19.278 87.6916 18.9342 87.2087 18.6968C86.734 18.4513 86.1815 18.3285 85.5512 18.3285H83.464V24.2217H85.5512ZM94.8106 25.6582C94.1476 25.6582 93.5501 25.515 93.0181 25.2285C92.4861 24.942 92.0686 24.545 91.7658 24.0376C91.4711 23.5219 91.3238 22.9408 91.3238 22.2942C91.3238 21.6475 91.4711 21.0705 91.7658 20.563C92.0686 20.0555 92.4861 19.6586 93.0181 19.3721C93.5501 19.0856 94.1476 18.9424 94.8106 18.9424C95.4818 18.9424 96.0834 19.0856 96.6154 19.3721C97.1475 19.6586 97.5608 20.0555 97.8555 20.563C98.1583 21.0705 98.3097 21.6475 98.3097 22.2942C98.3097 22.9408 98.1583 23.5219 97.8555 24.0376C97.5608 24.545 97.1475 24.942 96.6154 25.2285C96.0834 25.515 95.4818 25.6582 94.8106 25.6582ZM94.8106 24.3445C95.3754 24.3445 95.8419 24.1563 96.2103 23.7797C96.5786 23.4032 96.7628 22.908 96.7628 22.2942C96.7628 21.6803 96.5786 21.1851 96.2103 20.8086C95.8419 20.4321 95.3754 20.2438 94.8106 20.2438C94.2459 20.2438 93.7793 20.4321 93.411 20.8086C93.0508 21.1851 92.8708 21.6803 92.8708 22.2942C92.8708 22.908 93.0508 23.4032 93.411 23.7797C93.7793 24.1563 94.2459 24.3445 94.8106 24.3445ZM109.825 19.016L107.406 25.5723H105.933L104.238 21.0541L102.52 25.5723H101.046L98.6398 19.016H100.089L101.82 23.8534L103.624 19.016H104.914L106.682 23.878L108.462 19.016H109.825ZM114.6 18.9424C115.427 18.9424 116.09 19.1838 116.589 19.6668C117.088 20.1497 117.338 20.8659 117.338 21.8153V25.5723H115.803V22.0118C115.803 21.4388 115.668 21.0091 115.398 20.7226C115.128 20.428 114.743 20.2806 114.244 20.2806C113.679 20.2806 113.233 20.4525 112.906 20.7963C112.578 21.1319 112.415 21.6189 112.415 22.2573V25.5723H110.88V19.016H112.341V19.8632C112.595 19.5603 112.914 19.3312 113.299 19.1756C113.683 19.0201 114.117 18.9424 114.6 18.9424ZM119.285 16.4623H120.819V25.5723H119.285V16.4623ZM125.78 25.6582C125.117 25.6582 124.52 25.515 123.988 25.2285C123.456 24.942 123.038 24.545 122.735 24.0376C122.441 23.5219 122.294 22.9408 122.294 22.2942C122.294 21.6475 122.441 21.0705 122.735 20.563C123.038 20.0555 123.456 19.6586 123.988 19.3721C124.52 19.0856 125.117 18.9424 125.78 18.9424C126.452 18.9424 127.053 19.0856 127.585 19.3721C128.117 19.6586 128.531 20.0555 128.825 20.563C129.128 21.0705 129.279 21.6475 129.279 22.2942C129.279 22.9408 129.128 23.5219 128.825 24.0376C128.531 24.545 128.117 24.942 127.585 25.2285C127.053 25.515 126.452 25.6582 125.78 25.6582ZM125.78 24.3445C126.345 24.3445 126.812 24.1563 127.18 23.7797C127.548 23.4032 127.732 22.908 127.732 22.2942C127.732 21.6803 127.548 21.1851 127.18 20.8086C126.812 20.4321 126.345 20.2438 125.78 20.2438C125.216 20.2438 124.749 20.4321 124.381 20.8086C124.021 21.1851 123.84 21.6803 123.84 22.2942C123.84 22.908 124.021 23.4032 124.381 23.7797C124.749 24.1563 125.216 24.3445 125.78 24.3445ZM133.168 18.9424C134.134 18.9424 134.87 19.1756 135.378 19.6422C135.893 20.1006 136.151 20.7963 136.151 21.7294V25.5723H134.702V24.7742C134.514 25.0607 134.244 25.2817 133.892 25.4372C133.548 25.5845 133.131 25.6582 132.64 25.6582C132.149 25.6582 131.719 25.5764 131.351 25.4127C130.982 25.2408 130.696 25.0075 130.491 24.7128C130.295 24.41 130.197 24.0703 130.197 23.6938C130.197 23.1045 130.413 22.6338 130.847 22.2819C131.289 21.9217 131.981 21.7417 132.922 21.7417H134.616V21.6434C134.616 21.1851 134.477 20.8331 134.199 20.5876C133.929 20.342 133.524 20.2192 132.984 20.2192C132.615 20.2192 132.251 20.2765 131.891 20.3911C131.539 20.5057 131.24 20.6653 130.995 20.87L130.393 19.7527C130.737 19.4908 131.15 19.2902 131.633 19.1511C132.116 19.0119 132.627 18.9424 133.168 18.9424ZM132.959 24.5409C133.344 24.5409 133.683 24.455 133.978 24.2831C134.281 24.103 134.494 23.8493 134.616 23.5219V22.7607H133.033C132.149 22.7607 131.707 23.0513 131.707 23.6324C131.707 23.9107 131.817 24.1317 132.038 24.2954C132.259 24.4591 132.566 24.5409 132.959 24.5409ZM144.602 16.4623V25.5723H143.129V24.7251C142.875 25.0361 142.56 25.2694 142.183 25.4249C141.815 25.5805 141.406 25.6582 140.955 25.6582C140.325 25.6582 139.756 25.5191 139.249 25.2408C138.75 24.9625 138.357 24.5696 138.07 24.0621C137.784 23.5465 137.64 22.9571 137.64 22.2942C137.64 21.6312 137.784 21.0459 138.07 20.5385C138.357 20.031 138.75 19.6381 139.249 19.3598C139.756 19.0815 140.325 18.9424 140.955 18.9424C141.389 18.9424 141.786 19.016 142.146 19.1634C142.506 19.3107 142.813 19.5317 143.067 19.8264V16.4623H144.602ZM141.14 24.3445C141.508 24.3445 141.839 24.2627 142.134 24.099C142.429 23.9271 142.662 23.6856 142.834 23.3746C143.006 23.0635 143.092 22.7034 143.092 22.2942C143.092 21.8849 143.006 21.5248 142.834 21.2137C142.662 20.9027 142.429 20.6653 142.134 20.5016C141.839 20.3297 141.508 20.2438 141.14 20.2438C140.771 20.2438 140.44 20.3297 140.145 20.5016C139.85 20.6653 139.617 20.9027 139.445 21.2137C139.273 21.5248 139.187 21.8849 139.187 22.2942C139.187 22.7034 139.273 23.0635 139.445 23.3746C139.617 23.6856 139.85 23.9271 140.145 24.099C140.44 24.2627 140.771 24.3445 141.14 24.3445ZM152.949 25.6582C152.286 25.6582 151.689 25.515 151.157 25.2285C150.625 24.942 150.207 24.545 149.904 24.0376C149.61 23.5219 149.462 22.9408 149.462 22.2942C149.462 21.6475 149.61 21.0705 149.904 20.563C150.207 20.0555 150.625 19.6586 151.157 19.3721C151.689 19.0856 152.286 18.9424 152.949 18.9424C153.62 18.9424 154.222 19.0856 154.754 19.3721C155.286 19.6586 155.699 20.0555 155.994 20.563C156.297 21.0705 156.448 21.6475 156.448 22.2942C156.448 22.9408 156.297 23.5219 155.994 24.0376C155.699 24.545 155.286 24.942 154.754 25.2285C154.222 25.515 153.62 25.6582 152.949 25.6582ZM152.949 24.3445C153.514 24.3445 153.981 24.1563 154.349 23.7797C154.717 23.4032 154.901 22.908 154.901 22.2942C154.901 21.6803 154.717 21.1851 154.349 20.8086C153.981 20.4321 153.514 20.2438 152.949 20.2438C152.384 20.2438 151.918 20.4321 151.55 20.8086C151.189 21.1851 151.009 21.6803 151.009 22.2942C151.009 22.908 151.189 23.4032 151.55 23.7797C151.918 24.1563 152.384 24.3445 152.949 24.3445ZM161.636 18.9424C162.463 18.9424 163.126 19.1838 163.625 19.6668C164.124 20.1497 164.374 20.8659 164.374 21.8153V25.5723H162.839V22.0118C162.839 21.4388 162.704 21.0091 162.434 20.7226C162.164 20.428 161.779 20.2806 161.28 20.2806C160.715 20.2806 160.269 20.4525 159.942 20.7963C159.614 21.1319 159.451 21.6189 159.451 22.2573V25.5723H157.916V19.016H159.377V19.8632C159.631 19.5603 159.95 19.3312 160.335 19.1756C160.719 19.0201 161.153 18.9424 161.636 18.9424ZM173.655 25.2162C173.475 25.3635 173.254 25.474 172.992 25.5477C172.738 25.6214 172.468 25.6582 172.182 25.6582C171.461 25.6582 170.905 25.47 170.512 25.0934C170.119 24.7169 169.923 24.1685 169.923 23.4482V20.2929H168.842V19.0652H169.923V17.5673H171.457V19.0652H173.213V20.2929H171.457V23.4114C171.457 23.7306 171.535 23.9762 171.691 24.1481C171.846 24.3118 172.071 24.3936 172.366 24.3936C172.71 24.3936 172.996 24.3036 173.225 24.1235L173.655 25.2162ZM178.638 18.9424C179.464 18.9424 180.127 19.1838 180.627 19.6668C181.126 20.1497 181.375 20.8659 181.375 21.8153V25.5723H179.841V22.0118C179.841 21.4388 179.706 21.0091 179.436 20.7226C179.166 20.428 178.781 20.2806 178.282 20.2806C177.717 20.2806 177.271 20.4525 176.943 20.7963C176.616 21.1319 176.452 21.6189 176.452 22.2573V25.5723H174.917V16.4623H176.452V19.7773C176.706 19.5071 177.017 19.3025 177.385 19.1634C177.762 19.016 178.179 18.9424 178.638 18.9424ZM189.546 22.331C189.546 22.4374 189.537 22.5888 189.521 22.7853H184.377C184.467 23.2682 184.7 23.6529 185.077 23.9393C185.461 24.2176 185.936 24.3568 186.501 24.3568C187.221 24.3568 187.814 24.1194 188.281 23.6447L189.104 24.5901C188.809 24.942 188.437 25.208 187.986 25.3881C187.536 25.5682 187.029 25.6582 186.464 25.6582C185.744 25.6582 185.109 25.515 184.561 25.2285C184.013 24.942 183.587 24.545 183.284 24.0376C182.989 23.5219 182.842 22.9408 182.842 22.2942C182.842 21.6557 182.985 21.0828 183.272 20.5753C183.566 20.0596 183.972 19.6586 184.487 19.3721C185.003 19.0856 185.584 18.9424 186.231 18.9424C186.869 18.9424 187.438 19.0856 187.937 19.3721C188.445 19.6504 188.838 20.0474 189.116 20.563C189.402 21.0705 189.546 21.6598 189.546 22.331ZM186.231 20.1701C185.74 20.1701 185.322 20.3175 184.978 20.6121C184.643 20.8986 184.438 21.2833 184.365 21.7662H188.085C188.019 21.2915 187.819 20.9068 187.483 20.6121C187.147 20.3175 186.73 20.1701 186.231 20.1701Z" fill="white"/>
<path d="M92.4021 48.1687H85.4192L84.0871 51.3916H80.5205L87.2241 36.3516H90.6618L97.3868 51.3916H93.7342L92.4021 48.1687ZM91.3063 45.526L88.9214 39.7678L86.5365 45.526H91.3063ZM105.543 39.6604C106.618 39.6604 107.592 39.911 108.465 40.4124C109.353 40.8994 110.048 41.5941 110.55 42.4965C111.051 43.3846 111.302 44.4231 111.302 45.6119C111.302 46.8008 111.051 47.8465 110.55 48.7489C110.048 49.6369 109.353 50.3316 108.465 50.833C107.592 51.32 106.618 51.5635 105.543 51.5635C104.068 51.5635 102.908 51.098 102.063 50.1669V55.5598H98.7109V39.8323H101.912V41.1644C102.743 40.1617 103.953 39.6604 105.543 39.6604ZM104.963 48.8133C105.823 48.8133 106.525 48.5268 107.069 47.9539C107.627 47.3666 107.907 46.586 107.907 45.6119C107.907 44.6379 107.627 43.8644 107.069 43.2915C106.525 42.7042 105.823 42.4106 104.963 42.4106C104.104 42.4106 103.395 42.7042 102.836 43.2915C102.292 43.8644 102.02 44.6379 102.02 45.6119C102.02 46.586 102.292 47.3666 102.836 47.9539C103.395 48.5268 104.104 48.8133 104.963 48.8133ZM120.378 39.6604C121.452 39.6604 122.426 39.911 123.3 40.4124C124.188 40.8994 124.883 41.5941 125.384 42.4965C125.885 43.3846 126.136 44.4231 126.136 45.6119C126.136 46.8008 125.885 47.8465 125.384 48.7489C124.883 49.6369 124.188 50.3316 123.3 50.833C122.426 51.32 121.452 51.5635 120.378 51.5635C118.902 51.5635 117.742 51.098 116.897 50.1669V55.5598H113.545V39.8323H116.747V41.1644C117.577 40.1617 118.788 39.6604 120.378 39.6604ZM119.798 48.8133C120.657 48.8133 121.359 48.5268 121.903 47.9539C122.462 47.3666 122.741 46.586 122.741 45.6119C122.741 44.6379 122.462 43.8644 121.903 43.2915C121.359 42.7042 120.657 42.4106 119.798 42.4106C118.938 42.4106 118.229 42.7042 117.671 43.2915C117.126 43.8644 116.854 44.6379 116.854 45.6119C116.854 46.586 117.126 47.3666 117.671 47.9539C118.229 48.5268 118.938 48.8133 119.798 48.8133ZM139.643 51.6494C138.454 51.6494 137.301 51.4919 136.183 51.1767C135.08 50.8473 134.192 50.4247 133.519 49.9091L134.701 47.2878C135.345 47.7605 136.112 48.1401 137 48.4266C137.888 48.713 138.776 48.8563 139.664 48.8563C140.652 48.8563 141.383 48.713 141.856 48.4266C142.328 48.1258 142.565 47.7319 142.565 47.2449C142.565 46.8868 142.421 46.5931 142.135 46.3639C141.863 46.1204 141.505 45.9271 141.061 45.7838C140.631 45.6406 140.044 45.483 139.299 45.3111C138.153 45.039 137.215 44.7668 136.484 44.4947C135.754 44.2225 135.123 43.7856 134.593 43.184C134.078 42.5824 133.82 41.7803 133.82 40.7776C133.82 39.9039 134.056 39.1161 134.529 38.4142C135.002 37.698 135.711 37.1322 136.656 36.7168C137.616 36.3014 138.783 36.0937 140.158 36.0937C141.118 36.0937 142.056 36.2083 142.973 36.4375C143.89 36.6667 144.692 36.9961 145.379 37.4259L144.305 40.0686C142.916 39.2808 141.526 38.8869 140.137 38.8869C139.163 38.8869 138.439 39.0445 137.967 39.3596C137.508 39.6747 137.279 40.0901 137.279 40.6058C137.279 41.1214 137.544 41.5082 138.074 41.766C138.618 42.0095 139.442 42.253 140.545 42.4965C141.691 42.7687 142.629 43.0408 143.36 43.313C144.09 43.5851 144.713 44.0148 145.229 44.6021C145.759 45.1894 146.024 45.9844 146.024 46.987C146.024 47.8465 145.78 48.6343 145.293 49.3505C144.821 50.0523 144.104 50.611 143.145 51.0263C142.185 51.4417 141.018 51.6494 139.643 51.6494ZM155.621 50.833C155.292 51.0765 154.884 51.2627 154.397 51.3916C153.924 51.5062 153.423 51.5635 152.893 51.5635C151.518 51.5635 150.451 51.2126 149.691 50.5107C148.947 49.8088 148.574 48.7775 148.574 47.4167V42.6684H146.791V40.0901H148.574V37.2755H151.926V40.0901H154.805V42.6684H151.926V47.3738C151.926 47.8608 152.048 48.2404 152.291 48.5125C152.549 48.7703 152.907 48.8993 153.365 48.8993C153.895 48.8993 154.347 48.756 154.719 48.4695L155.621 50.833ZM162.647 51.5635C161.429 51.5635 160.333 51.3128 159.359 50.8115C158.4 50.2958 157.648 49.5868 157.103 48.6844C156.559 47.782 156.287 46.7578 156.287 45.6119C156.287 44.466 156.559 43.4419 157.103 42.5395C157.648 41.6371 158.4 40.9352 159.359 40.4339C160.333 39.9182 161.429 39.6604 162.647 39.6604C163.864 39.6604 164.953 39.9182 165.912 40.4339C166.872 40.9352 167.624 41.6371 168.168 42.5395C168.713 43.4419 168.985 44.466 168.985 45.6119C168.985 46.7578 168.713 47.782 168.168 48.6844C167.624 49.5868 166.872 50.2958 165.912 50.8115C164.953 51.3128 163.864 51.5635 162.647 51.5635ZM162.647 48.8133C163.506 48.8133 164.208 48.5268 164.752 47.9539C165.311 47.3666 165.59 46.586 165.59 45.6119C165.59 44.6379 165.311 43.8644 164.752 43.2915C164.208 42.7042 163.506 42.4106 162.647 42.4106C161.787 42.4106 161.078 42.7042 160.52 43.2915C159.961 43.8644 159.682 44.6379 159.682 45.6119C159.682 46.586 159.961 47.3666 160.52 47.9539C161.078 48.5268 161.787 48.8133 162.647 48.8133ZM174.427 41.3578C174.828 40.7991 175.365 40.3766 176.038 40.0901C176.726 39.8036 177.513 39.6604 178.402 39.6604V42.7543C178.029 42.7257 177.778 42.7114 177.65 42.7114C176.69 42.7114 175.938 42.9835 175.394 43.5278C174.849 44.0578 174.577 44.8599 174.577 45.9342V51.3916H171.225V39.8323H174.427V41.3578ZM191.613 45.6549C191.613 45.6979 191.591 45.9987 191.548 46.5573H182.803C182.961 47.2735 183.333 47.8393 183.921 48.2547C184.508 48.6701 185.238 48.8778 186.112 48.8778C186.714 48.8778 187.244 48.7918 187.702 48.6199C188.175 48.4337 188.612 48.1473 189.013 47.7605L190.796 49.6942C189.708 50.9404 188.118 51.5635 186.026 51.5635C184.723 51.5635 183.57 51.3128 182.567 50.8115C181.564 50.2958 180.791 49.5868 180.247 48.6844C179.702 47.782 179.43 46.7578 179.43 45.6119C179.43 44.4804 179.695 43.4634 180.225 42.561C180.769 41.6442 181.507 40.9352 182.438 40.4339C183.384 39.9182 184.436 39.6604 185.597 39.6604C186.728 39.6604 187.752 39.9039 188.669 40.3909C189.586 40.8779 190.302 41.5798 190.818 42.4965C191.348 43.3989 191.613 44.4517 191.613 45.6549ZM185.618 42.1957C184.859 42.1957 184.221 42.4106 183.706 42.8403C183.19 43.27 182.875 43.8573 182.76 44.6021H188.454C188.34 43.8716 188.024 43.2915 187.509 42.8618C186.993 42.4177 186.363 42.1957 185.618 42.1957Z" fill="white"/>
<g clip-path="url(#clip0_329_6085)">
<rect width="40.7143" height="40.7143" transform="translate(18.5723 13.5723)" fill="black"/>
<path d="M47.0267 13.5917C46.9402 13.495 43.823 13.6298 41.1104 16.574C38.3978 19.5156 38.8151 22.8898 38.8762 22.9763C38.9373 23.0628 42.7441 23.1977 45.1742 19.7751C47.6043 16.3526 47.1132 13.6909 47.0267 13.5917ZM55.4596 43.448C55.3375 43.2037 49.5433 40.3079 50.0828 34.7402C50.6223 29.17 54.3451 27.6432 54.4036 27.4778C54.4621 27.3124 52.8845 25.4675 51.2126 24.5336C49.9851 23.8752 48.6266 23.498 47.2354 23.4293C46.9605 23.4216 46.0063 23.1875 44.0444 23.7244C42.7517 24.0781 39.8381 25.2232 39.0365 25.269C38.2324 25.3148 35.8404 23.9407 33.2678 23.5768C31.6214 23.2588 29.8758 23.9102 28.6264 24.4115C27.3795 24.9102 25.0079 26.3301 23.3488 30.1039C21.6897 33.875 22.5574 39.8498 23.1783 41.7074C23.7992 43.5625 24.7687 46.6033 26.4176 48.8222C27.8833 51.3262 29.8275 53.0642 30.6392 53.6545C31.4509 54.2449 33.7411 54.6367 35.329 53.825C36.6064 53.0413 38.9118 52.5909 39.8228 52.6239C40.7312 52.657 42.5227 53.0158 44.3574 53.9955C45.8104 54.4968 47.1845 54.2881 48.5611 53.7283C49.9378 53.1659 51.9302 51.0335 54.256 46.7102C55.139 44.6999 55.5411 43.6134 55.4596 43.448Z" fill="white"/>
<path d="M47.0267 13.5917C46.9402 13.495 43.823 13.6298 41.1104 16.574C38.3978 19.5156 38.8151 22.8898 38.8762 22.9763C38.9373 23.0628 42.7441 23.1977 45.1742 19.7751C47.6043 16.3526 47.1132 13.6909 47.0267 13.5917ZM55.4596 43.448C55.3375 43.2037 49.5433 40.3079 50.0828 34.7402C50.6223 29.17 54.3451 27.6432 54.4036 27.4778C54.4621 27.3124 52.8845 25.4675 51.2126 24.5336C49.9851 23.8752 48.6266 23.498 47.2354 23.4293C46.9605 23.4216 46.0063 23.1875 44.0444 23.7244C42.7517 24.0781 39.8381 25.2232 39.0365 25.269C38.2324 25.3148 35.8404 23.9407 33.2678 23.5768C31.6214 23.2588 29.8758 23.9102 28.6264 24.4115C27.3795 24.9102 25.0079 26.3301 23.3488 30.1039C21.6897 33.875 22.5574 39.8498 23.1783 41.7074C23.7992 43.5625 24.7687 46.6033 26.4176 48.8222C27.8833 51.3262 29.8275 53.0642 30.6392 53.6545C31.4509 54.2449 33.7411 54.6367 35.329 53.825C36.6064 53.0413 38.9118 52.5909 39.8228 52.6239C40.7312 52.657 42.5227 53.0158 44.3574 53.9955C45.8104 54.4968 47.1845 54.2881 48.5611 53.7283C49.9378 53.1659 51.9302 51.0335 54.256 46.7102C55.139 44.6999 55.5411 43.6134 55.4596 43.448Z" fill="white"/>
</g>
<defs>
<clipPath id="clip0_329_6085">
<rect width="40.7143" height="40.7143" fill="white" transform="translate(18.5723 13.5723)"/>
</clipPath>
</defs>
</svg>
