<svg width="520" height="591" viewBox="0 0 520 591" fill="none" xmlns="http://www.w3.org/2000/svg">
<path d="M519.918 1.18945V17.7334C501.183 18.285 486.855 21.0422 476.938 26.0055C467.57 30.9687 461.233 38.965 457.926 49.9943C454.621 61.0237 452.968 76.7404 452.968 97.1448V590.983C449.662 590.983 446.355 590.983 443.05 590.983C440.293 590.983 437.263 590.983 433.957 590.983L86.8079 54.1303V490.893C86.8079 510.746 88.4609 526.462 91.7672 538.043C95.6244 549.072 102.788 557.068 113.258 562.031C124.279 566.444 140.533 569.201 162.024 570.304V586.848C152.105 585.745 139.155 585.194 123.176 585.194C107.196 584.642 92.0427 584.366 77.7159 584.366C63.9402 584.366 49.8888 584.642 35.562 585.194C21.7863 585.194 10.2146 585.745 0.847168 586.848V570.304C19.5822 569.201 33.6334 566.444 43.0009 562.031C52.9195 557.068 59.5319 549.072 62.8381 538.043C66.1442 526.462 67.7973 510.746 67.7973 490.893V88.8727C67.7973 68.4685 66.1442 53.5789 62.8381 44.2039C59.5319 34.2776 52.9195 27.6599 43.0009 24.3511C33.6334 20.4908 19.5822 18.285 0.847168 17.7334V1.18945C10.2146 1.74087 21.7863 2.29242 35.562 2.84384C49.8888 3.39526 63.9402 3.6711 77.7159 3.6711C89.8385 3.6711 101.41 3.39526 112.431 2.84384C123.452 2.29242 133.37 1.74087 142.187 1.18945L433.957 451.186V97.1448C433.957 76.7404 432.029 61.0237 428.172 49.9943C424.865 38.965 417.702 30.9687 406.681 26.0055C396.211 21.0422 380.232 18.285 358.742 17.7334V1.18945C368.661 1.74087 381.609 2.29242 397.59 2.84384C414.12 3.39526 429.274 3.6711 443.05 3.6711C457.376 3.6711 471.427 3.39526 485.203 2.84384C499.529 2.29242 511.102 1.74087 519.918 1.18945Z" fill="#FFF0E2"/>
<path d="M439.794 325.17L439.707 314.877H429.422H330.532C263.699 314.877 209.521 369.098 209.521 435.984V459.513C209.521 526.398 263.699 580.619 330.532 580.619H431.489H441.95L441.862 570.152L439.794 325.17Z" stroke="#FFF0E2" stroke-width="18"/>
<path d="M277.92 305.644H68.6686V326.586H277.92V305.644Z" fill="#FFF0E2"/>
</svg>
