<svg width="14" height="14" viewBox="0 0 14 14" fill="none" xmlns="http://www.w3.org/2000/svg">
<path d="M10.6039 4.2066C11.0512 4.2066 11.4139 3.84395 11.4139 3.3966C11.4139 2.94925 11.0512 2.5866 10.6039 2.5866C10.1565 2.5866 9.79389 2.94925 9.79389 3.3966C9.79389 3.84395 10.1565 4.2066 10.6039 4.2066Z" fill="#333333"/>
<path d="M6.99962 3.53388C6.31408 3.53388 5.64394 3.73716 5.07394 4.11803C4.50394 4.49889 4.05968 5.04022 3.79733 5.67357C3.53499 6.30693 3.46635 7.00385 3.60009 7.67621C3.73383 8.34857 4.06395 8.96618 4.5487 9.45092C5.03344 9.93567 5.65105 10.2658 6.32341 10.3995C6.99577 10.5333 7.69269 10.4646 8.32605 10.2023C8.9594 9.93994 9.50073 9.49568 9.88159 8.92568C10.2625 8.35568 10.4657 7.68554 10.4657 7C10.4657 6.08073 10.1006 5.19911 9.45054 4.54908C8.80051 3.89906 7.91889 3.53388 6.99962 3.53388ZM6.99962 9.25C6.55461 9.25 6.11959 9.11804 5.74958 8.87081C5.37957 8.62358 5.09118 8.27217 4.92089 7.86104C4.75059 7.44991 4.70603 6.99751 4.79285 6.56105C4.87967 6.12459 5.09396 5.72368 5.40863 5.40901C5.72329 5.09434 6.12421 4.88005 6.56066 4.79324C6.99712 4.70642 7.44952 4.75098 7.86065 4.92127C8.27179 5.09157 8.62319 5.37996 8.87042 5.74997C9.11766 6.11998 9.24962 6.555 9.24962 7C9.24962 7.59674 9.01256 8.16904 8.59061 8.59099C8.16865 9.01295 7.59635 9.25 6.99962 9.25Z" fill="#333333"/>
<path d="M7 1.46613C8.80225 1.46613 9.016 1.47287 9.72756 1.5055C10.1555 1.51058 10.5795 1.58916 10.9808 1.73781C11.272 1.85014 11.5364 2.02218 11.7571 2.24287C11.9778 2.46356 12.1499 2.728 12.2622 3.01919C12.4108 3.42055 12.4894 3.84446 12.4945 4.27244C12.5271 4.984 12.5339 5.19775 12.5339 7.00056C12.5339 8.80337 12.5271 9.016 12.4945 9.72756C12.4894 10.1555 12.4108 10.5795 12.2622 10.9808C12.1499 11.272 11.9778 11.5364 11.7571 11.7571C11.5364 11.9778 11.272 12.1499 10.9808 12.2622C10.5795 12.4108 10.1555 12.4894 9.72756 12.4945C9.016 12.5271 8.80225 12.5339 7 12.5339C5.19775 12.5339 4.984 12.5271 4.27244 12.4945C3.84446 12.4894 3.42055 12.4108 3.01919 12.2622C2.728 12.1499 2.46356 11.9778 2.24287 11.7571C2.02218 11.5364 1.85014 11.272 1.73781 10.9808C1.58916 10.5795 1.51058 10.1555 1.5055 9.72756C1.47287 9.016 1.46613 8.80225 1.46613 7C1.46613 5.19775 1.47287 4.984 1.5055 4.27244C1.51058 3.84446 1.58916 3.42055 1.73781 3.01919C1.85014 2.728 2.02218 2.46356 2.24287 2.24287C2.46356 2.02218 2.728 1.85014 3.01919 1.73781C3.42055 1.58916 3.84446 1.51058 4.27244 1.5055C4.984 1.47287 5.19775 1.46613 7 1.46613ZM7 0.25C5.16681 0.25 4.93675 0.257875 4.21675 0.2905C3.65694 0.301804 3.10309 0.407933 2.57875 0.604375C2.13028 0.777792 1.723 1.043 1.383 1.383C1.043 1.723 0.777792 2.13028 0.604375 2.57875C0.40787 3.10327 0.301741 3.65731 0.2905 4.21731C0.257875 4.93731 0.25 5.16625 0.25 7C0.25 8.83375 0.257875 9.06325 0.2905 9.78325C0.301804 10.3431 0.407933 10.8969 0.604375 11.4213C0.777792 11.8697 1.043 12.277 1.383 12.617C1.723 12.957 2.13028 13.2222 2.57875 13.3956C3.10327 13.5921 3.65731 13.6983 4.21731 13.7095C4.93731 13.7421 5.16681 13.75 7 13.75C8.83319 13.75 9.06325 13.7421 9.78325 13.7095C10.3433 13.6983 10.8973 13.5921 11.4218 13.3956C11.8703 13.2222 12.2776 12.957 12.6176 12.617C12.9576 12.277 13.2228 11.8697 13.3962 11.4213C13.5925 10.8967 13.6984 10.3427 13.7095 9.78269C13.7421 9.06269 13.75 8.83375 13.75 7C13.75 5.16625 13.7421 4.93675 13.7095 4.21675C13.6982 3.65694 13.5921 3.10309 13.3956 2.57875C13.2222 2.13028 12.957 1.723 12.617 1.383C12.277 1.043 11.8697 0.777792 11.4213 0.604375C10.8967 0.408062 10.3427 0.302123 9.78269 0.291062C9.06269 0.257312 8.83375 0.25 7 0.25Z" fill="#333333"/>
</svg>
