<svg width="26" height="29" viewBox="0 0 26 29" fill="none" xmlns="http://www.w3.org/2000/svg">
<path d="M23.6949 2.08659V2.79124C22.8963 2.81473 22.2856 2.93217 21.8628 3.14357C21.4635 3.35496 21.1934 3.69554 21.0525 4.16531C20.9115 4.63508 20.8411 5.3045 20.8411 6.17357V27.2074C20.7001 27.2074 20.5592 27.2074 20.4183 27.2074C20.3008 27.2074 20.1716 27.2074 20.0307 27.2074L5.23303 4.34147V22.9443C5.23303 23.7899 5.3035 24.4593 5.44443 24.9525C5.60885 25.4223 5.91419 25.7629 6.36047 25.9743C6.83024 26.1622 7.52315 26.2796 8.4392 26.3266V27.0312C8.0164 26.9843 7.46443 26.9608 6.78326 26.9608C6.1021 26.9373 5.45617 26.9256 4.84547 26.9256C4.25826 26.9256 3.65931 26.9373 3.04861 26.9608C2.4614 26.9608 1.96815 26.9843 1.56884 27.0312V26.3266C2.36745 26.2796 2.9664 26.1622 3.36571 25.9743C3.7885 25.7629 4.07036 25.4223 4.21129 24.9525C4.35222 24.4593 4.42268 23.7899 4.42268 22.9443V5.82124C4.42268 4.95217 4.35222 4.31798 4.21129 3.91868C4.07036 3.49589 3.7885 3.21403 3.36571 3.0731C2.9664 2.90868 2.36745 2.81473 1.56884 2.79124V2.08659C1.96815 2.11008 2.4614 2.13357 3.04861 2.15705C3.65931 2.18054 4.25826 2.19229 4.84547 2.19229C5.36222 2.19229 5.85547 2.18054 6.32524 2.15705C6.79501 2.13357 7.2178 2.11008 7.59361 2.08659L20.0307 21.2531V6.17357C20.0307 5.3045 19.9485 4.63508 19.7841 4.16531C19.6432 3.69554 19.3378 3.35496 18.868 3.14357C18.4218 2.93217 17.7406 2.81473 16.8245 2.79124V2.08659C17.2473 2.11008 17.7993 2.13357 18.4805 2.15705C19.1851 2.18054 19.8311 2.19229 20.4183 2.19229C21.029 2.19229 21.6279 2.18054 22.2151 2.15705C22.8258 2.13357 23.3191 2.11008 23.6949 2.08659Z" fill="white"/>
<path d="M10.8171 20.9811C10.8171 17.9695 13.2585 15.5281 16.2701 15.5281H20.3672V26.9057H16.2701C13.2585 26.9057 10.8171 24.4643 10.8171 21.4527V20.9811Z" stroke="white" stroke-width="0.884268"/>
<rect x="4.45996" y="15.1953" width="8.91964" height="0.891964" fill="white"/>
</svg>
