<svg width="1440" height="3124" viewBox="0 0 1440 3124" fill="none" xmlns="http://www.w3.org/2000/svg">
<g filter="url(#filter0_d_329_6617)">
<path d="M3 124.5C17.6667 127.5 57.5 120.8 99.5 70C152 6.50001 196.5 4.50001 205 70C213.5 135.5 80.5 385.5 205 347.5C329.5 309.5 507 101 570 124.5C633 148 657 223.5 739.5 164C822 104.5 1151.5 -30 1269.5 124.5C1387.5 279 1255.5 480.5 1140 531.5C1046.2 572.919 793 470 715 561C619.119 672.861 800 776.5 869.5 814.5C939 852.5 1086.5 1199 721.5 1156.5C356.5 1114 112.5 1010.5 78.5 1095C44.5 1179.5 216 1211 251.5 1255.5C287 1300 86.5 1369.5 112 1437C137.5 1504.5 226 1437 274.5 1456C323 1475 677.5 1403 620.5 1612C563.5 1821 1029.5 1631.5 1154 1646C1278.5 1660.5 1179.5 1736.5 1139.5 1766C1099.5 1795.5 947 1848 922 1884C897 1920 703 2029.5 606 1956C509 1882.5 342 1814.5 243.5 1884C172.944 1933.78 54.5 2080.5 211 2245C367.5 2409.5 620 2333.5 633 2392.5C643.4 2439.7 503.667 2492.5 432.5 2513C277.833 2542.33 20.1241 2636.19 168.5 2828.5C347.5 3060.5 632.935 2785.48 712 2718C770 2668.5 922 2473 1171 2542.5C1420 2612 1248.5 2961.5 1223.5 3012.5C1203.5 3053.3 1137.83 3088.83 1107.5 3101.5C1071.17 3046 1022.9 2928.2 1120.5 2901C1218.1 2873.8 1381.83 3023.33 1451.5 3101.5" stroke="white" stroke-width="3" shape-rendering="crispEdges"/>
</g>
<defs>
<filter id="filter0_d_329_6617" x="-17.3008" y="0.122101" width="1489.92" height="3123.24" filterUnits="userSpaceOnUse" color-interpolation-filters="sRGB">
<feFlood flood-opacity="0" result="BackgroundImageFix"/>
<feColorMatrix in="SourceAlpha" type="matrix" values="0 0 0 0 0 0 0 0 0 0 0 0 0 0 0 0 0 0 127 0" result="hardAlpha"/>
<feOffset/>
<feGaussianBlur stdDeviation="10"/>
<feComposite in2="hardAlpha" operator="out"/>
<feColorMatrix type="matrix" values="0 0 0 0 1 0 0 0 0 0 0 0 0 0 0.774775 0 0 0 1 0"/>
<feBlend mode="normal" in2="BackgroundImageFix" result="effect1_dropShadow_329_6617"/>
<feBlend mode="normal" in="SourceGraphic" in2="effect1_dropShadow_329_6617" result="shape"/>
</filter>
</defs>
</svg>
