<svg width="220" height="29" viewBox="0 0 220 29" fill="none" xmlns="http://www.w3.org/2000/svg">
<path d="M6.784 0.431998L7.176 0.795999C5.832 2.7 4.87067 4.73467 4.292 6.9C3.71333 9.06533 3.424 11.52 3.424 14.264C3.424 17.008 3.71333 19.4627 4.292 21.628C4.87067 23.7747 5.832 25.8093 7.176 27.732L6.784 28.096C4.67467 26.4347 3.02267 24.4653 1.828 22.188C0.652 19.9107 0.0640001 17.2693 0.0640001 14.264C0.0640001 11.2587 0.652 8.61733 1.828 6.34C3.02267 4.06267 4.67467 2.09333 6.784 0.431998ZM16.712 3.204C17.4213 3.204 18 3.26933 18.448 3.4C18.896 3.512 19.288 3.66133 19.624 3.848C19.8853 3.99733 20.128 4.184 20.352 4.408C20.576 4.632 20.7533 4.87467 20.884 5.136C21.0146 5.39733 21.08 5.68667 21.08 6.004C21.08 6.54533 20.884 6.97467 20.492 7.292C20.1 7.60933 19.6426 7.768 19.12 7.768C18.6346 7.768 18.2053 7.628 17.832 7.348C17.4773 7.068 17.3 6.66667 17.3 6.144C17.3 5.67733 17.4493 5.276 17.748 4.94C18.0653 4.58533 18.476 4.36133 18.98 4.268C18.8493 4.1 18.6066 3.96 18.252 3.848C17.916 3.71733 17.5146 3.652 17.048 3.652C16.0773 3.652 15.2653 3.95067 14.612 4.548C13.9586 5.14533 13.632 6.032 13.632 7.208C13.632 7.656 13.7066 8.14133 13.856 8.664C14.024 9.168 14.3506 9.672 14.836 10.176C15.1533 10.1013 15.452 10.0547 15.732 10.036C16.0306 9.99867 16.2733 9.98 16.46 9.98C16.796 9.98 17.0573 10.0453 17.244 10.176C17.4306 10.288 17.524 10.456 17.524 10.68C17.524 10.8667 17.4493 11.0067 17.3 11.1C17.1506 11.1933 16.964 11.24 16.74 11.24C16.404 11.24 16.0586 11.156 15.704 10.988C15.3493 10.82 15.0693 10.68 14.864 10.568C13.912 10.96 13.1373 11.5107 12.54 12.22C11.9613 12.9293 11.672 13.8907 11.672 15.104C11.672 16.3547 11.9986 17.4 12.652 18.24C13.324 19.08 14.2573 19.7147 15.452 20.144C16.6466 20.5547 18.028 20.76 19.596 20.76C20.548 20.76 21.472 20.6573 22.368 20.452C23.2826 20.228 24.104 19.9013 24.832 19.472C25.56 19.0427 26.1386 18.5293 26.568 17.932C26.9973 17.316 27.212 16.6067 27.212 15.804C27.212 15.4867 27.156 15.0853 27.044 14.6C26.932 14.1147 26.6893 13.6293 26.316 13.144C25.9426 12.6587 25.364 12.2667 24.58 11.968L24.804 11.716C25.924 12.052 26.7546 12.668 27.296 13.564C27.856 14.4413 28.136 15.4493 28.136 16.588C28.136 17.82 27.7533 18.9587 26.988 20.004C26.2226 21.0307 25.14 21.852 23.74 22.468C22.3586 23.084 20.7253 23.392 18.84 23.392C17.4026 23.392 16.0773 23.2333 14.864 22.916C13.6693 22.5987 12.624 22.1413 11.728 21.544C10.8506 20.928 10.1693 20.1907 9.68397 19.332C9.19864 18.4733 8.95597 17.5027 8.95597 16.42C8.95597 15.3933 9.1613 14.516 9.57197 13.788C9.98264 13.06 10.496 12.4627 11.112 11.996C11.728 11.5107 12.344 11.1373 12.96 10.876C13.576 10.6147 14.08 10.4373 14.472 10.344C13.8746 10.1013 13.3426 9.812 12.876 9.476C12.4093 9.12133 12.0453 8.72 11.784 8.272C11.5413 7.80533 11.42 7.31067 11.42 6.788C11.42 6.228 11.5506 5.73333 11.812 5.304C12.092 4.856 12.4746 4.47333 12.96 4.156C13.4453 3.83867 14.0053 3.60533 14.64 3.456C15.2746 3.288 15.9653 3.204 16.712 3.204ZM27.436 2.784C28.6866 2.784 29.7226 3.12933 30.544 3.82C31.3653 4.492 31.776 5.444 31.776 6.676C31.776 7.53467 31.58 8.26267 31.188 8.86C30.796 9.45733 30.2453 9.96133 29.536 10.372C28.8453 10.764 28.0333 11.0813 27.1 11.324C26.764 11.4547 26.3533 11.5947 25.868 11.744C25.3826 11.8933 24.86 12.052 24.3 12.22C23.7586 12.3693 23.236 12.5187 22.732 12.668C22.2466 12.8173 21.836 12.9573 21.5 13.088C20.324 13.3867 19.3906 13.732 18.7 14.124C18.0093 14.4973 17.664 15.02 17.664 15.692C17.664 16.1587 17.8133 16.5693 18.112 16.924C18.4106 17.26 18.784 17.512 19.232 17.68C19.68 17.848 20.1186 17.932 20.548 17.932C20.6786 17.932 20.8373 17.9227 21.024 17.904C21.2106 17.8667 21.3786 17.82 21.528 17.764C21.696 17.708 21.808 17.6333 21.864 17.54C21.4533 17.428 21.1173 17.232 20.856 16.952C20.5946 16.672 20.464 16.308 20.464 15.86C20.464 15.3187 20.66 14.8987 21.052 14.6C21.444 14.3013 21.92 14.152 22.48 14.152C23.0773 14.152 23.544 14.3107 23.88 14.628C24.2346 14.9453 24.412 15.3747 24.412 15.916C24.412 16.476 24.2346 16.9427 23.88 17.316C23.5253 17.6893 23.0586 17.9693 22.48 18.156C21.92 18.324 21.3133 18.408 20.66 18.408C19.988 18.408 19.3533 18.2867 18.756 18.044C18.1586 17.7827 17.6733 17.4 17.3 16.896C16.9266 16.392 16.74 15.7293 16.74 14.908C16.74 14.0493 16.9546 13.312 17.384 12.696C17.8133 12.08 18.4293 11.5667 19.232 11.156C20.0533 10.7267 21.0333 10.3813 22.172 10.12C22.62 9.98933 23.1333 9.84933 23.712 9.7C24.3093 9.55067 24.916 9.392 25.532 9.224C26.148 9.03733 26.7266 8.84133 27.268 8.636C28.4626 8.28133 29.3586 7.88933 29.956 7.46C30.5533 7.03067 30.852 6.508 30.852 5.892C30.852 5.36933 30.7026 4.912 30.404 4.52C30.1053 4.128 29.7133 3.82 29.228 3.596C28.7426 3.372 28.22 3.26 27.66 3.26C27.4733 3.26 27.3053 3.27867 27.156 3.316C27.0253 3.33467 26.932 3.372 26.876 3.428C27.2493 3.596 27.5293 3.82933 27.716 4.128C27.9213 4.42667 28.024 4.73467 28.024 5.052C28.024 5.556 27.828 5.95733 27.436 6.256C27.0626 6.55467 26.596 6.704 26.036 6.704C25.4946 6.704 25.028 6.55467 24.636 6.256C24.2626 5.95733 24.076 5.53733 24.076 4.996C24.076 4.51067 24.2253 4.1 24.524 3.764C24.8226 3.428 25.224 3.18533 25.728 3.036C26.2506 2.868 26.82 2.784 27.436 2.784ZM49.5059 8.132C50.2339 8.132 50.8405 8.23467 51.3259 8.44C51.8299 8.64533 52.2219 8.90667 52.5019 9.224C52.8379 9.57867 53.0712 10.0547 53.2019 10.652C53.3325 11.2307 53.3979 11.968 53.3979 12.864V20.396C53.3979 21.18 53.5285 21.712 53.7899 21.992C54.0699 22.272 54.5365 22.412 55.1899 22.412V23C54.8539 22.9813 54.3499 22.9627 53.6779 22.944C53.0059 22.9067 52.3525 22.888 51.7179 22.888C51.0459 22.888 50.3925 22.9067 49.7579 22.944C49.1419 22.9627 48.6752 22.9813 48.3579 23V22.412C48.8992 22.412 49.2819 22.272 49.5059 21.992C49.7485 21.712 49.8699 21.18 49.8699 20.396V11.912C49.8699 11.408 49.8325 10.96 49.7579 10.568C49.6832 10.1573 49.5245 9.84 49.2819 9.616C49.0392 9.37333 48.6659 9.252 48.1619 9.252C47.5832 9.252 47.0605 9.42 46.5939 9.756C46.1272 10.092 45.7539 10.5587 45.4739 11.156C45.2125 11.7347 45.0819 12.388 45.0819 13.116V20.396C45.0819 21.18 45.1939 21.712 45.4179 21.992C45.6419 22.272 46.0339 22.412 46.5939 22.412V23C46.2765 22.9813 45.8099 22.9627 45.1939 22.944C44.5965 22.9067 43.9805 22.888 43.3459 22.888C42.6552 22.888 41.9552 22.9067 41.2459 22.944C40.5365 22.9627 40.0045 22.9813 39.6499 23V22.412C40.3405 22.412 40.8259 22.272 41.1059 21.992C41.4045 21.712 41.5539 21.18 41.5539 20.396V11.576C41.5539 10.736 41.4139 10.12 41.1339 9.728C40.8725 9.31733 40.3779 9.112 39.6499 9.112V8.524C40.2472 8.58 40.8259 8.608 41.3859 8.608C42.0765 8.608 42.7299 8.58 43.3459 8.524C43.9805 8.44933 44.5592 8.34667 45.0819 8.216V11.016C45.5485 9.98933 46.1739 9.252 46.9579 8.804C47.7419 8.356 48.5912 8.132 49.5059 8.132ZM57.9339 8.132C58.6619 8.132 59.2685 8.23467 59.7539 8.44C60.2579 8.64533 60.6499 8.90667 60.9299 9.224C61.2659 9.57867 61.4992 10.0547 61.6299 10.652C61.7605 11.2307 61.8259 11.968 61.8259 12.864V20.396C61.8259 21.18 61.9659 21.712 62.2459 21.992C62.5445 22.272 63.0392 22.412 63.7299 22.412V23C63.3939 22.9813 62.8712 22.9627 62.1619 22.944C61.4712 22.9067 60.7992 22.888 60.1459 22.888C59.4739 22.888 58.8205 22.9067 58.1859 22.944C57.5699 22.9627 57.1032 22.9813 56.7859 23V22.412C57.3272 22.412 57.7099 22.272 57.9339 21.992C58.1765 21.712 58.2979 21.18 58.2979 20.396V11.912C58.2979 11.408 58.2512 10.96 58.1579 10.568C58.0832 10.1573 57.9152 9.84 57.6539 9.616C57.3925 9.37333 57.0005 9.252 56.4779 9.252C55.8992 9.252 55.3765 9.42933 54.9099 9.784C54.4432 10.1387 54.0699 10.6147 53.7899 11.212C53.5285 11.7907 53.3885 12.444 53.3699 13.172L53.2299 11.156C53.7339 9.99867 54.4059 9.20533 55.2459 8.776C56.0859 8.34667 56.9819 8.132 57.9339 8.132ZM68.7255 23.196C67.9228 23.196 67.2415 23.0467 66.6815 22.748C66.1215 22.4307 65.7015 22.0107 65.4215 21.488C65.1415 20.9467 65.0015 20.3493 65.0015 19.696C65.0015 18.8933 65.1881 18.24 65.5615 17.736C65.9348 17.2133 66.4108 16.8027 66.9895 16.504C67.5868 16.1867 68.2121 15.9253 68.8655 15.72C69.5188 15.496 70.1348 15.2907 70.7135 15.104C71.2921 14.8987 71.7681 14.6653 72.1415 14.404C72.5148 14.1427 72.7015 13.7973 72.7015 13.368V11.324C72.7015 10.7267 72.6081 10.2413 72.4215 9.868C72.2535 9.476 71.9921 9.18667 71.6375 9C71.3015 8.79467 70.8721 8.692 70.3495 8.692C69.9575 8.692 69.5468 8.748 69.1175 8.86C68.6881 8.972 68.3335 9.18667 68.0535 9.504C68.5388 9.63467 68.9121 9.87733 69.1735 10.232C69.4535 10.5867 69.5935 11.016 69.5935 11.52C69.5935 12.0987 69.3975 12.556 69.0055 12.892C68.6321 13.2093 68.1561 13.368 67.5775 13.368C66.9615 13.368 66.4948 13.172 66.1775 12.78C65.8601 12.388 65.7015 11.9307 65.7015 11.408C65.7015 10.8853 65.8321 10.456 66.0935 10.12C66.3548 9.76533 66.7188 9.448 67.1855 9.168C67.6521 8.85067 68.2495 8.59867 68.9775 8.412C69.7055 8.22533 70.4988 8.132 71.3575 8.132C72.1788 8.132 72.9068 8.22533 73.5415 8.412C74.1761 8.58 74.7175 8.888 75.1655 9.336C75.6135 9.76533 75.9028 10.2973 76.0335 10.932C76.1641 11.5667 76.2295 12.3413 76.2295 13.256V20.928C76.2295 21.3947 76.2855 21.7307 76.3975 21.936C76.5095 22.1227 76.6868 22.216 76.9295 22.216C77.1161 22.216 77.2935 22.1693 77.4615 22.076C77.6295 21.9827 77.8161 21.852 78.0215 21.684L78.3295 22.16C77.9188 22.4773 77.4895 22.7293 77.0415 22.916C76.5935 23.1027 76.0521 23.196 75.4175 23.196C74.7641 23.196 74.2415 23.1027 73.8495 22.916C73.4761 22.7293 73.1961 22.4587 73.0095 22.104C72.8415 21.7493 72.7481 21.3293 72.7295 20.844C72.2815 21.5907 71.7308 22.1693 71.0775 22.58C70.4241 22.9907 69.6401 23.196 68.7255 23.196ZM70.4055 21.628C70.8535 21.628 71.2641 21.5067 71.6375 21.264C72.0295 21.0213 72.3841 20.6573 72.7015 20.172V14.516C72.5148 14.796 72.2441 15.048 71.8895 15.272C71.5535 15.496 71.1895 15.72 70.7975 15.944C70.4055 16.168 70.0321 16.4293 69.6775 16.728C69.3415 17.008 69.0521 17.3627 68.8095 17.792C68.5855 18.2027 68.4735 18.7347 68.4735 19.388C68.4735 20.116 68.6508 20.676 69.0055 21.068C69.3601 21.4413 69.8268 21.628 70.4055 21.628ZM84.3703 1.076V20.396C84.3703 21.18 84.5009 21.712 84.7623 21.992C85.0236 22.272 85.4716 22.412 86.1063 22.412V23C85.7889 22.9813 85.3036 22.9627 84.6503 22.944C83.9969 22.9067 83.3343 22.888 82.6623 22.888C81.9716 22.888 81.2623 22.9067 80.5343 22.944C79.8249 22.9627 79.2929 22.9813 78.9383 23V22.412C79.6289 22.412 80.1143 22.272 80.3943 21.992C80.6929 21.712 80.8423 21.18 80.8423 20.396V4.436C80.8423 3.596 80.7023 2.98 80.4223 2.588C80.1609 2.17733 79.6663 1.972 78.9383 1.972V1.384C79.5356 1.44 80.1143 1.468 80.6743 1.468C81.3836 1.468 82.0463 1.44 82.6623 1.384C83.2783 1.30933 83.8476 1.20667 84.3703 1.076ZM93.4423 8.524V9.084C92.8823 9.196 92.3409 9.41067 91.8183 9.728C91.2956 10.0267 90.7823 10.4467 90.2783 10.988L87.5063 13.872L87.8143 13.256L92.7423 20.956C93.0036 21.3293 93.2463 21.6467 93.4703 21.908C93.7129 22.1507 94.0116 22.3187 94.3663 22.412V23C94.1236 22.9813 93.7409 22.9627 93.2183 22.944C92.6956 22.9067 92.1729 22.888 91.6503 22.888C91.0156 22.888 90.3623 22.9067 89.6903 22.944C89.0369 22.9627 88.5423 22.9813 88.2063 23V22.412C88.5796 22.412 88.8316 22.328 88.9623 22.16C89.1116 21.9733 89.0929 21.74 88.9063 21.46L85.9943 16.56C85.7329 16.1493 85.4809 15.888 85.2383 15.776C84.9956 15.6453 84.6689 15.58 84.2583 15.58V15.02C84.7249 14.9827 85.1076 14.8987 85.4062 14.768C85.7236 14.6373 86.0223 14.432 86.3023 14.152L88.4023 12.052C89.0183 11.436 89.3263 10.9133 89.3263 10.484C89.3449 10.0547 89.1489 9.728 88.7383 9.504C88.3463 9.26133 87.8329 9.12133 87.1983 9.084V8.524C87.7023 8.54267 88.2623 8.57067 88.8783 8.608C89.4943 8.62667 90.0169 8.636 90.4463 8.636C90.7823 8.636 91.1369 8.636 91.5103 8.636C91.9023 8.61733 92.2663 8.59867 92.6023 8.58C92.9569 8.56133 93.2369 8.54267 93.4423 8.524ZM101.557 8.132C103.2 8.132 104.488 8.62667 105.421 9.616C106.355 10.6053 106.821 12.1827 106.821 14.348H97.3854L97.3574 13.816H103.573C103.611 12.9013 103.555 12.0613 103.405 11.296C103.256 10.512 103.013 9.88667 102.677 9.42C102.36 8.95333 101.94 8.72 101.417 8.72C100.708 8.72 100.092 9.14 99.5694 9.98C99.0468 10.8013 98.7201 12.1547 98.5894 14.04L98.7014 14.208C98.6641 14.4507 98.6361 14.712 98.6174 14.992C98.6174 15.272 98.6174 15.552 98.6174 15.832C98.6174 17.12 98.8041 18.184 99.1774 19.024C99.5508 19.864 100.036 20.48 100.633 20.872C101.231 21.264 101.847 21.46 102.481 21.46C102.911 21.46 103.349 21.3947 103.797 21.264C104.245 21.1333 104.684 20.8907 105.113 20.536C105.543 20.1813 105.935 19.6773 106.289 19.024L106.821 19.248C106.616 19.9013 106.271 20.5547 105.785 21.208C105.319 21.8427 104.712 22.3653 103.965 22.776C103.219 23.1867 102.341 23.392 101.333 23.392C100.064 23.392 98.9441 23.112 97.9734 22.552C97.0028 21.992 96.2468 21.1613 95.7054 20.06C95.1641 18.94 94.8934 17.5773 94.8934 15.972C94.8934 14.2733 95.1734 12.8453 95.7334 11.688C96.3121 10.5307 97.1054 9.65333 98.1134 9.056C99.1214 8.44 100.269 8.132 101.557 8.132ZM118.809 1.384C119.481 1.384 120.032 1.57067 120.461 1.944C120.891 2.31733 121.105 2.812 121.105 3.428C121.105 4.044 120.891 4.53867 120.461 4.912C120.032 5.28533 119.481 5.472 118.809 5.472C118.137 5.472 117.587 5.28533 117.157 4.912C116.728 4.53867 116.513 4.044 116.513 3.428C116.513 2.812 116.728 2.31733 117.157 1.944C117.587 1.57067 118.137 1.384 118.809 1.384ZM120.769 8.216V20.396C120.769 21.18 120.909 21.712 121.189 21.992C121.488 22.272 121.983 22.412 122.673 22.412V23C122.337 22.9813 121.824 22.9627 121.133 22.944C120.443 22.9067 119.743 22.888 119.033 22.888C118.343 22.888 117.643 22.9067 116.933 22.944C116.224 22.9627 115.692 22.9813 115.337 23V22.412C116.028 22.412 116.513 22.272 116.793 21.992C117.092 21.712 117.241 21.18 117.241 20.396V11.604C117.241 10.7453 117.101 10.12 116.821 9.728C116.56 9.31733 116.065 9.112 115.337 9.112V8.524C115.935 8.58 116.513 8.608 117.073 8.608C117.764 8.608 118.417 8.58 119.033 8.524C119.668 8.44933 120.247 8.34667 120.769 8.216ZM129.243 3.932V8.552H132.827V9.112H129.243V20.256C129.243 20.928 129.364 21.404 129.607 21.684C129.849 21.964 130.195 22.104 130.643 22.104C131.072 22.104 131.464 21.9453 131.819 21.628C132.173 21.292 132.491 20.7413 132.771 19.976L133.275 20.2C132.995 21.1147 132.556 21.88 131.959 22.496C131.38 23.0933 130.559 23.392 129.495 23.392C128.86 23.392 128.319 23.308 127.871 23.14C127.441 22.9907 127.068 22.7667 126.751 22.468C126.34 22.0387 126.06 21.5253 125.911 20.928C125.78 20.3307 125.715 19.5373 125.715 18.548V9.112H123.251V8.552H125.715V4.66C126.387 4.64133 127.012 4.576 127.591 4.464C128.169 4.352 128.72 4.17467 129.243 3.932ZM144.112 23.196C143.31 23.196 142.628 23.0467 142.068 22.748C141.508 22.4307 141.088 22.0107 140.808 21.488C140.528 20.9467 140.388 20.3493 140.388 19.696C140.388 18.8933 140.575 18.24 140.948 17.736C141.322 17.2133 141.798 16.8027 142.376 16.504C142.974 16.1867 143.599 15.9253 144.252 15.72C144.906 15.496 145.522 15.2907 146.1 15.104C146.679 14.8987 147.155 14.6653 147.528 14.404C147.902 14.1427 148.088 13.7973 148.088 13.368V11.324C148.088 10.7267 147.995 10.2413 147.808 9.868C147.64 9.476 147.379 9.18667 147.024 9C146.688 8.79467 146.259 8.692 145.736 8.692C145.344 8.692 144.934 8.748 144.504 8.86C144.075 8.972 143.72 9.18667 143.44 9.504C143.926 9.63467 144.299 9.87733 144.56 10.232C144.84 10.5867 144.98 11.016 144.98 11.52C144.98 12.0987 144.784 12.556 144.392 12.892C144.019 13.2093 143.543 13.368 142.964 13.368C142.348 13.368 141.882 13.172 141.564 12.78C141.247 12.388 141.088 11.9307 141.088 11.408C141.088 10.8853 141.219 10.456 141.48 10.12C141.742 9.76533 142.106 9.448 142.572 9.168C143.039 8.85067 143.636 8.59867 144.364 8.412C145.092 8.22533 145.886 8.132 146.744 8.132C147.566 8.132 148.294 8.22533 148.928 8.412C149.563 8.58 150.104 8.888 150.552 9.336C151 9.76533 151.29 10.2973 151.42 10.932C151.551 11.5667 151.616 12.3413 151.616 13.256V20.928C151.616 21.3947 151.672 21.7307 151.784 21.936C151.896 22.1227 152.074 22.216 152.316 22.216C152.503 22.216 152.68 22.1693 152.848 22.076C153.016 21.9827 153.203 21.852 153.408 21.684L153.716 22.16C153.306 22.4773 152.876 22.7293 152.428 22.916C151.98 23.1027 151.439 23.196 150.804 23.196C150.151 23.196 149.628 23.1027 149.236 22.916C148.863 22.7293 148.583 22.4587 148.396 22.104C148.228 21.7493 148.135 21.3293 148.116 20.844C147.668 21.5907 147.118 22.1693 146.464 22.58C145.811 22.9907 145.027 23.196 144.112 23.196ZM145.792 21.628C146.24 21.628 146.651 21.5067 147.024 21.264C147.416 21.0213 147.771 20.6573 148.088 20.172V14.516C147.902 14.796 147.631 15.048 147.276 15.272C146.94 15.496 146.576 15.72 146.184 15.944C145.792 16.168 145.419 16.4293 145.064 16.728C144.728 17.008 144.439 17.3627 144.196 17.792C143.972 18.2027 143.86 18.7347 143.86 19.388C143.86 20.116 144.038 20.676 144.392 21.068C144.747 21.4413 145.214 21.628 145.792 21.628ZM173.508 8.524V9.112C173.153 9.18667 172.817 9.38267 172.5 9.7C172.201 10.0173 171.912 10.5773 171.632 11.38L167.348 23.084C167.124 23.0653 166.9 23.056 166.676 23.056C166.452 23.056 166.218 23.0653 165.976 23.084L160.936 10.68C160.656 9.97067 160.366 9.532 160.068 9.364C159.769 9.196 159.517 9.112 159.312 9.112V8.524C159.834 8.56133 160.376 8.59867 160.936 8.636C161.496 8.65467 162.112 8.664 162.784 8.664C163.362 8.664 163.969 8.65467 164.604 8.636C165.257 8.59867 165.864 8.56133 166.424 8.524V9.112C166.013 9.112 165.64 9.14 165.304 9.196C164.986 9.252 164.772 9.40133 164.66 9.644C164.548 9.868 164.594 10.2693 164.8 10.848L168.16 19.556L167.908 19.864L170.456 12.948C170.773 12.0707 170.904 11.3613 170.848 10.82C170.792 10.2787 170.586 9.868 170.232 9.588C169.896 9.308 169.41 9.14933 168.776 9.112V8.524C169.093 8.54267 169.392 8.56133 169.672 8.58C169.97 8.59867 170.26 8.61733 170.54 8.636C170.838 8.636 171.118 8.636 171.38 8.636C171.772 8.636 172.154 8.62667 172.528 8.608C172.92 8.58933 173.246 8.56133 173.508 8.524ZM177.735 1.384C178.407 1.384 178.958 1.57067 179.387 1.944C179.816 2.31733 180.031 2.812 180.031 3.428C180.031 4.044 179.816 4.53867 179.387 4.912C178.958 5.28533 178.407 5.472 177.735 5.472C177.063 5.472 176.512 5.28533 176.083 4.912C175.654 4.53867 175.439 4.044 175.439 3.428C175.439 2.812 175.654 2.31733 176.083 1.944C176.512 1.57067 177.063 1.384 177.735 1.384ZM179.695 8.216V20.396C179.695 21.18 179.835 21.712 180.115 21.992C180.414 22.272 180.908 22.412 181.599 22.412V23C181.263 22.9813 180.75 22.9627 180.059 22.944C179.368 22.9067 178.668 22.888 177.959 22.888C177.268 22.888 176.568 22.9067 175.859 22.944C175.15 22.9627 174.618 22.9813 174.263 23V22.412C174.954 22.412 175.439 22.272 175.719 21.992C176.018 21.712 176.167 21.18 176.167 20.396V11.604C176.167 10.7453 176.027 10.12 175.747 9.728C175.486 9.31733 174.991 9.112 174.263 9.112V8.524C174.86 8.58 175.439 8.608 175.999 8.608C176.69 8.608 177.343 8.58 177.959 8.524C178.594 8.44933 179.172 8.34667 179.695 8.216ZM192.06 8.132C193.516 8.132 194.73 8.748 195.7 9.98C196.69 11.1933 197.184 13.0413 197.184 15.524C197.184 17.372 196.895 18.884 196.316 20.06C195.738 21.2173 194.963 22.0667 193.992 22.608C193.022 23.1307 191.967 23.392 190.828 23.392C190.026 23.392 189.251 23.224 188.504 22.888C187.776 22.5333 187.188 21.9827 186.74 21.236H187.216C187.59 21.7587 188.038 22.1507 188.56 22.412C189.102 22.6547 189.643 22.776 190.184 22.776C191.286 22.776 192.107 22.2067 192.648 21.068C193.19 19.9107 193.46 18.1467 193.46 15.776C193.46 14.208 193.348 12.948 193.124 11.996C192.919 11.0253 192.611 10.3253 192.2 9.896C191.79 9.448 191.276 9.224 190.66 9.224C189.932 9.224 189.26 9.532 188.644 10.148C188.047 10.764 187.702 11.6413 187.608 12.78L187.412 11.996C187.711 10.764 188.271 9.812 189.092 9.14C189.932 8.468 190.922 8.132 192.06 8.132ZM187.72 1.076V22.16C187.328 22.1787 186.927 22.2533 186.516 22.384C186.106 22.496 185.723 22.6453 185.368 22.832C185.014 23 184.706 23.2053 184.444 23.448L183.996 23.224C184.09 22.9627 184.146 22.7013 184.164 22.44C184.183 22.1787 184.192 21.908 184.192 21.628V4.436C184.192 3.596 184.052 2.98 183.772 2.588C183.511 2.17733 183.016 1.972 182.288 1.972V1.384C182.886 1.44 183.464 1.468 184.024 1.468C184.734 1.468 185.396 1.44 186.012 1.384C186.628 1.30933 187.198 1.20667 187.72 1.076ZM206.12 8.132C207.763 8.132 209.051 8.62667 209.984 9.616C210.917 10.6053 211.384 12.1827 211.384 14.348H201.948L201.92 13.816H208.136C208.173 12.9013 208.117 12.0613 207.968 11.296C207.819 10.512 207.576 9.88667 207.24 9.42C206.923 8.95333 206.503 8.72 205.98 8.72C205.271 8.72 204.655 9.14 204.132 9.98C203.609 10.8013 203.283 12.1547 203.152 14.04L203.264 14.208C203.227 14.4507 203.199 14.712 203.18 14.992C203.18 15.272 203.18 15.552 203.18 15.832C203.18 17.12 203.367 18.184 203.74 19.024C204.113 19.864 204.599 20.48 205.196 20.872C205.793 21.264 206.409 21.46 207.044 21.46C207.473 21.46 207.912 21.3947 208.36 21.264C208.808 21.1333 209.247 20.8907 209.676 20.536C210.105 20.1813 210.497 19.6773 210.852 19.024L211.384 19.248C211.179 19.9013 210.833 20.5547 210.348 21.208C209.881 21.8427 209.275 22.3653 208.528 22.776C207.781 23.1867 206.904 23.392 205.896 23.392C204.627 23.392 203.507 23.112 202.536 22.552C201.565 21.992 200.809 21.1613 200.268 20.06C199.727 18.94 199.456 17.5773 199.456 15.972C199.456 14.2733 199.736 12.8453 200.296 11.688C200.875 10.5307 201.668 9.65333 202.676 9.056C203.684 8.44 204.832 8.132 206.12 8.132ZM212.603 0.431998C214.712 2.09333 216.355 4.06267 217.531 6.34C218.726 8.61733 219.323 11.2587 219.323 14.264C219.323 17.2693 218.726 19.9107 217.531 22.188C216.355 24.4653 214.712 26.4347 212.603 28.096L212.211 27.732C213.555 25.8093 214.516 23.7747 215.095 21.628C215.674 19.4627 215.963 17.008 215.963 14.264C215.963 11.52 215.674 9.06533 215.095 6.9C214.516 4.73467 213.555 2.7 212.211 0.795999L212.603 0.431998Z" fill="#FFF0E2"/>
</svg>
