<svg width="127" height="143" viewBox="0 0 127 143" fill="none" xmlns="http://www.w3.org/2000/svg">
<path d="M119.995 7.26603V10.8345C115.951 10.9534 112.858 11.5482 110.717 12.6187C108.695 13.6893 107.327 15.414 106.613 17.793C105.899 20.172 105.543 23.562 105.543 27.9632V134.482C104.829 134.482 104.115 134.482 103.401 134.482C102.807 134.482 102.152 134.482 101.439 134.482L26.5009 18.6851V112.893C26.5009 117.175 26.8578 120.565 27.5715 123.063C28.4041 125.442 29.9504 127.167 32.2105 128.237C34.5895 129.189 38.0984 129.783 42.7375 130.021V133.59C40.5964 133.352 37.8011 133.233 34.3516 133.233C30.902 133.114 27.6309 133.055 24.5383 133.055C21.5645 133.055 18.5313 133.114 15.4387 133.233C12.4649 133.233 9.96701 133.352 7.94488 133.59V130.021C11.9891 129.783 15.0223 129.189 17.0445 128.237C19.1856 127.167 20.6129 125.442 21.3266 123.063C22.0403 120.565 22.3972 117.175 22.3972 112.893V26.1789C22.3972 21.7778 22.0403 18.5662 21.3266 16.544C20.6129 14.403 19.1856 12.9756 17.0445 12.2619C15.0223 11.4292 11.9891 10.9534 7.94488 10.8345V7.26603C9.96701 7.38498 12.4649 7.50393 15.4387 7.62287C18.5313 7.74182 21.5645 7.8013 24.5383 7.8013C27.1551 7.8013 29.6531 7.74182 32.032 7.62287C34.411 7.50393 36.5521 7.38498 38.4553 7.26603L101.439 104.328V27.9632C101.439 23.562 101.022 20.172 100.19 17.793C99.4761 15.414 97.9298 13.6893 95.5508 12.6187C93.2908 11.5482 89.8413 10.9534 85.2022 10.8345V7.26603C87.3433 7.38498 90.1386 7.50393 93.5881 7.62287C97.1566 7.74182 100.428 7.8013 103.401 7.8013C106.494 7.8013 109.527 7.74182 112.501 7.62287C115.594 7.50393 118.092 7.38498 119.995 7.26603Z" fill="white"/>
<path d="M54.782 102.399C54.782 87.1475 67.1456 74.784 82.3968 74.784H103.145V132.402H82.3968C67.1456 132.402 54.782 120.038 54.782 104.787V102.399Z" stroke="white" stroke-width="4.47808"/>
<rect x="22.585" y="73.0918" width="45.1705" height="4.51705" fill="white"/>
</svg>
