<svg width="444" height="66" viewBox="0 0 444 66" fill="none" xmlns="http://www.w3.org/2000/svg">
<path d="M8.784 0.431998L9.176 0.795999C7.832 2.7 6.87067 4.73467 6.292 6.9C5.71333 9.06533 5.424 11.52 5.424 14.264C5.424 17.008 5.71333 19.4627 6.292 21.628C6.87067 23.7747 7.832 25.8093 9.176 27.732L8.784 28.096C6.67467 26.4347 5.02267 24.4653 3.828 22.188C2.652 19.9107 2.064 17.2693 2.064 14.264C2.064 11.2587 2.652 8.61733 3.828 6.34C5.02267 4.06267 6.67467 2.09333 8.784 0.431998ZM18.712 3.204C19.4213 3.204 20 3.26933 20.448 3.4C20.896 3.512 21.288 3.66133 21.624 3.848C21.8853 3.99733 22.128 4.184 22.352 4.408C22.576 4.632 22.7533 4.87467 22.884 5.136C23.0146 5.39733 23.08 5.68667 23.08 6.004C23.08 6.54533 22.884 6.97467 22.492 7.292C22.1 7.60933 21.6426 7.768 21.12 7.768C20.6346 7.768 20.2053 7.628 19.832 7.348C19.4773 7.068 19.3 6.66667 19.3 6.144C19.3 5.67733 19.4493 5.276 19.748 4.94C20.0653 4.58533 20.476 4.36133 20.98 4.268C20.8493 4.1 20.6066 3.96 20.252 3.848C19.916 3.71733 19.5146 3.652 19.048 3.652C18.0773 3.652 17.2653 3.95067 16.612 4.548C15.9586 5.14533 15.632 6.032 15.632 7.208C15.632 7.656 15.7066 8.14133 15.856 8.664C16.024 9.168 16.3506 9.672 16.836 10.176C17.1533 10.1013 17.452 10.0547 17.732 10.036C18.0306 9.99867 18.2733 9.98 18.46 9.98C18.796 9.98 19.0573 10.0453 19.244 10.176C19.4306 10.288 19.524 10.456 19.524 10.68C19.524 10.8667 19.4493 11.0067 19.3 11.1C19.1506 11.1933 18.964 11.24 18.74 11.24C18.404 11.24 18.0586 11.156 17.704 10.988C17.3493 10.82 17.0693 10.68 16.864 10.568C15.912 10.96 15.1373 11.5107 14.54 12.22C13.9613 12.9293 13.672 13.8907 13.672 15.104C13.672 16.3547 13.9986 17.4 14.652 18.24C15.324 19.08 16.2573 19.7147 17.452 20.144C18.6466 20.5547 20.028 20.76 21.596 20.76C22.548 20.76 23.472 20.6573 24.368 20.452C25.2826 20.228 26.104 19.9013 26.832 19.472C27.56 19.0427 28.1386 18.5293 28.568 17.932C28.9973 17.316 29.212 16.6067 29.212 15.804C29.212 15.4867 29.156 15.0853 29.044 14.6C28.932 14.1147 28.6893 13.6293 28.316 13.144C27.9426 12.6587 27.364 12.2667 26.58 11.968L26.804 11.716C27.924 12.052 28.7546 12.668 29.296 13.564C29.856 14.4413 30.136 15.4493 30.136 16.588C30.136 17.82 29.7533 18.9587 28.988 20.004C28.2226 21.0307 27.14 21.852 25.74 22.468C24.3586 23.084 22.7253 23.392 20.84 23.392C19.4026 23.392 18.0773 23.2333 16.864 22.916C15.6693 22.5987 14.624 22.1413 13.728 21.544C12.8506 20.928 12.1693 20.1907 11.684 19.332C11.1986 18.4733 10.956 17.5027 10.956 16.42C10.956 15.3933 11.1613 14.516 11.572 13.788C11.9826 13.06 12.496 12.4627 13.112 11.996C13.728 11.5107 14.344 11.1373 14.96 10.876C15.576 10.6147 16.08 10.4373 16.472 10.344C15.8746 10.1013 15.3426 9.812 14.876 9.476C14.4093 9.12133 14.0453 8.72 13.784 8.272C13.5413 7.80533 13.42 7.31067 13.42 6.788C13.42 6.228 13.5506 5.73333 13.812 5.304C14.092 4.856 14.4746 4.47333 14.96 4.156C15.4453 3.83867 16.0053 3.60533 16.64 3.456C17.2746 3.288 17.9653 3.204 18.712 3.204ZM29.436 2.784C30.6866 2.784 31.7226 3.12933 32.544 3.82C33.3653 4.492 33.776 5.444 33.776 6.676C33.776 7.53467 33.58 8.26267 33.188 8.86C32.796 9.45733 32.2453 9.96133 31.536 10.372C30.8453 10.764 30.0333 11.0813 29.1 11.324C28.764 11.4547 28.3533 11.5947 27.868 11.744C27.3826 11.8933 26.86 12.052 26.3 12.22C25.7586 12.3693 25.236 12.5187 24.732 12.668C24.2466 12.8173 23.836 12.9573 23.5 13.088C22.324 13.3867 21.3906 13.732 20.7 14.124C20.0093 14.4973 19.664 15.02 19.664 15.692C19.664 16.1587 19.8133 16.5693 20.112 16.924C20.4106 17.26 20.784 17.512 21.232 17.68C21.68 17.848 22.1186 17.932 22.548 17.932C22.6786 17.932 22.8373 17.9227 23.024 17.904C23.2106 17.8667 23.3786 17.82 23.528 17.764C23.696 17.708 23.808 17.6333 23.864 17.54C23.4533 17.428 23.1173 17.232 22.856 16.952C22.5946 16.672 22.464 16.308 22.464 15.86C22.464 15.3187 22.66 14.8987 23.052 14.6C23.444 14.3013 23.92 14.152 24.48 14.152C25.0773 14.152 25.544 14.3107 25.88 14.628C26.2346 14.9453 26.412 15.3747 26.412 15.916C26.412 16.476 26.2346 16.9427 25.88 17.316C25.5253 17.6893 25.0586 17.9693 24.48 18.156C23.92 18.324 23.3133 18.408 22.66 18.408C21.988 18.408 21.3533 18.2867 20.756 18.044C20.1586 17.7827 19.6733 17.4 19.3 16.896C18.9266 16.392 18.74 15.7293 18.74 14.908C18.74 14.0493 18.9546 13.312 19.384 12.696C19.8133 12.08 20.4293 11.5667 21.232 11.156C22.0533 10.7267 23.0333 10.3813 24.172 10.12C24.62 9.98933 25.1333 9.84933 25.712 9.7C26.3093 9.55067 26.916 9.392 27.532 9.224C28.148 9.03733 28.7266 8.84133 29.268 8.636C30.4626 8.28133 31.3586 7.88933 31.956 7.46C32.5533 7.03067 32.852 6.508 32.852 5.892C32.852 5.36933 32.7026 4.912 32.404 4.52C32.1053 4.128 31.7133 3.82 31.228 3.596C30.7426 3.372 30.22 3.26 29.66 3.26C29.4733 3.26 29.3053 3.27867 29.156 3.316C29.0253 3.33467 28.932 3.372 28.876 3.428C29.2493 3.596 29.5293 3.82933 29.716 4.128C29.9213 4.42667 30.024 4.73467 30.024 5.052C30.024 5.556 29.828 5.95733 29.436 6.256C29.0626 6.55467 28.596 6.704 28.036 6.704C27.4946 6.704 27.028 6.55467 26.636 6.256C26.2626 5.95733 26.076 5.53733 26.076 4.996C26.076 4.51067 26.2253 4.1 26.524 3.764C26.8226 3.428 27.224 3.18533 27.728 3.036C28.2506 2.868 28.82 2.784 29.436 2.784ZM46.9979 8.132C47.7819 8.132 48.4539 8.244 49.0139 8.468C49.5739 8.692 49.9845 8.888 50.2459 9.056C50.8805 9.52267 51.2632 9.224 51.3939 8.16H52.0099C51.9725 8.70133 51.9445 9.34533 51.9259 10.092C51.9072 10.82 51.8979 11.8 51.8979 13.032H51.2819C51.1885 12.3413 51.0112 11.6693 50.7499 11.016C50.4885 10.3627 50.1059 9.82133 49.6019 9.392C49.0979 8.944 48.4352 8.72 47.6139 8.72C47.0352 8.72 46.5499 8.888 46.1579 9.224C45.7845 9.56 45.5979 10.036 45.5979 10.652C45.5979 11.212 45.7659 11.7067 46.1019 12.136C46.4379 12.5467 46.8672 12.9387 47.3899 13.312C47.9312 13.6667 48.4912 14.0587 49.0699 14.488C49.7419 14.936 50.3392 15.3933 50.8619 15.86C51.3845 16.308 51.8045 16.812 52.1219 17.372C52.4392 17.9133 52.5979 18.5573 52.5979 19.304C52.5979 20.1627 52.3552 20.9 51.8699 21.516C51.4032 22.1133 50.7779 22.58 49.9939 22.916C49.2285 23.2333 48.3792 23.392 47.4459 23.392C46.9419 23.392 46.4845 23.3453 46.0739 23.252C45.6632 23.1587 45.2992 23.0373 44.9819 22.888C44.7392 22.7573 44.5152 22.636 44.3099 22.524C44.1232 22.412 43.9272 22.3187 43.7219 22.244C43.5352 22.1507 43.3672 22.188 43.2179 22.356C43.0872 22.524 42.9845 22.804 42.9099 23.196H42.2939C42.3312 22.5987 42.3592 21.8707 42.3779 21.012C42.3965 20.1533 42.4059 19.0147 42.4059 17.596H43.0219C43.1525 18.6227 43.3485 19.528 43.6099 20.312C43.8899 21.0773 44.2912 21.684 44.8139 22.132C45.3365 22.5613 46.0085 22.776 46.8299 22.776C47.1845 22.776 47.5205 22.7013 47.8379 22.552C48.1739 22.4027 48.4445 22.1693 48.6499 21.852C48.8739 21.5347 48.9859 21.1053 48.9859 20.564C48.9859 19.7427 48.7059 19.0613 48.1459 18.52C47.5859 17.9787 46.8859 17.4 46.0459 16.784C45.4112 16.3173 44.8139 15.86 44.2539 15.412C43.7125 14.964 43.2645 14.46 42.9099 13.9C42.5739 13.34 42.4059 12.6773 42.4059 11.912C42.4059 11.072 42.6205 10.3813 43.0499 9.84C43.4792 9.28 44.0392 8.86 44.7299 8.58C45.4392 8.28133 46.1952 8.132 46.9979 8.132ZM59.6828 1.076V10.988C60.1494 9.94267 60.7934 9.20533 61.6148 8.776C62.4548 8.34667 63.3601 8.132 64.3308 8.132C65.0961 8.132 65.7214 8.23467 66.2068 8.44C66.6921 8.64533 67.0841 8.90667 67.3828 9.224C67.7001 9.57867 67.9241 10.036 68.0548 10.596C68.2041 11.156 68.2788 11.912 68.2788 12.864V20.396C68.2788 21.18 68.4188 21.712 68.6988 21.992C68.9974 22.272 69.4921 22.412 70.1827 22.412V23C69.8468 22.9813 69.3334 22.9627 68.6428 22.944C67.9521 22.9067 67.2708 22.888 66.5988 22.888C65.9268 22.888 65.2641 22.9067 64.6108 22.944C63.9574 22.9627 63.4628 22.9813 63.1268 23V22.412C63.7241 22.412 64.1441 22.272 64.3868 21.992C64.6294 21.712 64.7508 21.18 64.7508 20.396V11.912C64.7508 11.408 64.7041 10.96 64.6108 10.568C64.5174 10.1573 64.3308 9.84 64.0508 9.616C63.7894 9.37333 63.3881 9.252 62.8468 9.252C62.2494 9.252 61.7081 9.42 61.2228 9.756C60.7561 10.0733 60.3828 10.5307 60.1028 11.128C59.8228 11.7067 59.6828 12.3693 59.6828 13.116V20.396C59.6828 21.18 59.8041 21.712 60.0468 21.992C60.3081 22.272 60.7281 22.412 61.3068 22.412V23C60.9894 22.9813 60.5134 22.9627 59.8788 22.944C59.2628 22.9067 58.6188 22.888 57.9468 22.888C57.2748 22.888 56.5748 22.9067 55.8468 22.944C55.1374 22.9627 54.6054 22.9813 54.2508 23V22.412C54.9414 22.412 55.4268 22.272 55.7068 21.992C56.0054 21.712 56.1548 21.18 56.1548 20.396V4.436C56.1548 3.596 56.0148 2.98 55.7348 2.588C55.4734 2.17733 54.9788 1.972 54.2508 1.972V1.384C54.8481 1.44 55.4268 1.468 55.9868 1.468C56.6961 1.468 57.3588 1.44 57.9748 1.384C58.5908 1.30933 59.1601 1.20667 59.6828 1.076ZM78.4025 8.132C79.6905 8.132 80.8292 8.39333 81.8185 8.916C82.8265 9.42 83.6198 10.232 84.1985 11.352C84.7958 12.472 85.0945 13.9467 85.0945 15.776C85.0945 17.6053 84.7958 19.08 84.1985 20.2C83.6198 21.32 82.8265 22.132 81.8185 22.636C80.8292 23.14 79.6905 23.392 78.4025 23.392C77.1145 23.392 75.9665 23.14 74.9585 22.636C73.9505 22.132 73.1572 21.32 72.5785 20.2C71.9998 19.08 71.7105 17.6053 71.7105 15.776C71.7105 13.9467 71.9998 12.472 72.5785 11.352C73.1572 10.232 73.9505 9.42 74.9585 8.916C75.9665 8.39333 77.1145 8.132 78.4025 8.132ZM78.4025 8.692C77.5252 8.692 76.8065 9.252 76.2465 10.372C75.7052 11.4733 75.4345 13.2747 75.4345 15.776C75.4345 18.2773 75.7052 20.0787 76.2465 21.18C76.8065 22.2813 77.5252 22.832 78.4025 22.832C79.2612 22.832 79.9705 22.2813 80.5305 21.18C81.0905 20.0787 81.3705 18.2773 81.3705 15.776C81.3705 13.2747 81.0905 11.4733 80.5305 10.372C79.9705 9.252 79.2612 8.692 78.4025 8.692ZM92.9023 8.524V9.112C92.4543 9.112 92.0717 9.14933 91.7543 9.224C91.437 9.28 91.2223 9.42933 91.1103 9.672C91.017 9.91467 91.0637 10.344 91.2503 10.96L93.9943 19.304L93.6863 19.528L97.2423 8.468L97.8303 8.748L93.2663 23.084C93.0423 23.0653 92.809 23.056 92.5663 23.056C92.3423 23.056 92.1183 23.0653 91.8943 23.084L87.4143 10.68C87.1157 9.93333 86.817 9.48533 86.5183 9.336C86.2383 9.18667 85.9957 9.112 85.7903 9.112V8.524C86.313 8.58 86.8543 8.62667 87.4143 8.664C87.9743 8.68267 88.5903 8.692 89.2623 8.692C89.841 8.692 90.4477 8.67333 91.0823 8.636C91.7357 8.59867 92.3423 8.56133 92.9023 8.524ZM107.77 8.524V9.112C107.416 9.18667 107.07 9.38267 106.734 9.7C106.417 9.99867 106.128 10.5587 105.866 11.38L102.03 23.084C101.806 23.0653 101.582 23.056 101.358 23.056C101.134 23.056 100.901 23.0653 100.658 23.084L96.5423 12.08L97.2703 8.468C97.5317 8.48667 97.793 8.496 98.0543 8.496C98.3157 8.496 98.577 8.48667 98.8383 8.468L102.842 19.864L102.562 19.724L104.746 12.948C105.026 12.052 105.129 11.3333 105.054 10.792C104.998 10.2507 104.784 9.84933 104.41 9.588C104.056 9.308 103.561 9.14933 102.926 9.112V8.524C103.225 8.54267 103.533 8.56133 103.85 8.58C104.168 8.59867 104.476 8.61733 104.774 8.636C105.073 8.636 105.353 8.636 105.614 8.636C106.006 8.636 106.398 8.62667 106.79 8.608C107.182 8.58933 107.509 8.56133 107.77 8.524ZM119.375 3.932V8.552H122.959V9.112H119.375V20.256C119.375 20.928 119.497 21.404 119.739 21.684C119.982 21.964 120.327 22.104 120.775 22.104C121.205 22.104 121.597 21.9453 121.951 21.628C122.306 21.292 122.623 20.7413 122.903 19.976L123.407 20.2C123.127 21.1147 122.689 21.88 122.091 22.496C121.513 23.0933 120.691 23.392 119.627 23.392C118.993 23.392 118.451 23.308 118.003 23.14C117.574 22.9907 117.201 22.7667 116.883 22.468C116.473 22.0387 116.193 21.5253 116.043 20.928C115.913 20.3307 115.847 19.5373 115.847 18.548V9.112H113.383V8.552H115.847V4.66C116.519 4.64133 117.145 4.576 117.723 4.464C118.302 4.352 118.853 4.17467 119.375 3.932ZM129.163 1.076V10.988C129.63 9.94267 130.274 9.20533 131.095 8.776C131.935 8.34667 132.841 8.132 133.811 8.132C134.577 8.132 135.202 8.23467 135.687 8.44C136.173 8.64533 136.565 8.90667 136.863 9.224C137.181 9.57867 137.405 10.036 137.535 10.596C137.685 11.156 137.759 11.912 137.759 12.864V20.396C137.759 21.18 137.899 21.712 138.179 21.992C138.478 22.272 138.973 22.412 139.663 22.412V23C139.327 22.9813 138.814 22.9627 138.123 22.944C137.433 22.9067 136.751 22.888 136.079 22.888C135.407 22.888 134.745 22.9067 134.091 22.944C133.438 22.9627 132.943 22.9813 132.607 23V22.412C133.205 22.412 133.625 22.272 133.867 21.992C134.11 21.712 134.231 21.18 134.231 20.396V11.912C134.231 11.408 134.185 10.96 134.091 10.568C133.998 10.1573 133.811 9.84 133.531 9.616C133.27 9.37333 132.869 9.252 132.327 9.252C131.73 9.252 131.189 9.42 130.703 9.756C130.237 10.0733 129.863 10.5307 129.583 11.128C129.303 11.7067 129.163 12.3693 129.163 13.116V20.396C129.163 21.18 129.285 21.712 129.527 21.992C129.789 22.272 130.209 22.412 130.787 22.412V23C130.47 22.9813 129.994 22.9627 129.359 22.944C128.743 22.9067 128.099 22.888 127.427 22.888C126.755 22.888 126.055 22.9067 125.327 22.944C124.618 22.9627 124.086 22.9813 123.731 23V22.412C124.422 22.412 124.907 22.272 125.187 21.992C125.486 21.712 125.635 21.18 125.635 20.396V4.436C125.635 3.596 125.495 2.98 125.215 2.588C124.954 2.17733 124.459 1.972 123.731 1.972V1.384C124.329 1.44 124.907 1.468 125.467 1.468C126.177 1.468 126.839 1.44 127.455 1.384C128.071 1.30933 128.641 1.20667 129.163 1.076ZM147.827 8.132C149.47 8.132 150.758 8.62667 151.691 9.616C152.624 10.6053 153.091 12.1827 153.091 14.348H143.655L143.627 13.816H149.843C149.88 12.9013 149.824 12.0613 149.675 11.296C149.526 10.512 149.283 9.88667 148.947 9.42C148.63 8.95333 148.21 8.72 147.687 8.72C146.978 8.72 146.362 9.14 145.839 9.98C145.316 10.8013 144.99 12.1547 144.859 14.04L144.971 14.208C144.934 14.4507 144.906 14.712 144.887 14.992C144.887 15.272 144.887 15.552 144.887 15.832C144.887 17.12 145.074 18.184 145.447 19.024C145.82 19.864 146.306 20.48 146.903 20.872C147.5 21.264 148.116 21.46 148.751 21.46C149.18 21.46 149.619 21.3947 150.067 21.264C150.515 21.1333 150.954 20.8907 151.383 20.536C151.812 20.1813 152.204 19.6773 152.559 19.024L153.091 19.248C152.886 19.9013 152.54 20.5547 152.055 21.208C151.588 21.8427 150.982 22.3653 150.235 22.776C149.488 23.1867 148.611 23.392 147.603 23.392C146.334 23.392 145.214 23.112 144.243 22.552C143.272 21.992 142.516 21.1613 141.975 20.06C141.434 18.94 141.163 17.5773 141.163 15.972C141.163 14.2733 141.443 12.8453 142.003 11.688C142.582 10.5307 143.375 9.65333 144.383 9.056C145.391 8.44 146.539 8.132 147.827 8.132ZM164.654 8.132C165.382 8.132 165.989 8.23467 166.474 8.44C166.978 8.64533 167.37 8.90667 167.65 9.224C167.986 9.57867 168.22 10.0547 168.35 10.652C168.481 11.2307 168.546 11.968 168.546 12.864V20.396C168.546 21.18 168.677 21.712 168.938 21.992C169.218 22.272 169.685 22.412 170.338 22.412V23C170.002 22.9813 169.498 22.9627 168.826 22.944C168.154 22.9067 167.501 22.888 166.866 22.888C166.194 22.888 165.541 22.9067 164.906 22.944C164.29 22.9627 163.824 22.9813 163.506 23V22.412C164.048 22.412 164.43 22.272 164.654 21.992C164.897 21.712 165.018 21.18 165.018 20.396V11.912C165.018 11.408 164.981 10.96 164.906 10.568C164.832 10.1573 164.673 9.84 164.43 9.616C164.188 9.37333 163.814 9.252 163.31 9.252C162.732 9.252 162.209 9.42 161.742 9.756C161.276 10.092 160.902 10.5587 160.622 11.156C160.361 11.7347 160.23 12.388 160.23 13.116V20.396C160.23 21.18 160.342 21.712 160.566 21.992C160.79 22.272 161.182 22.412 161.742 22.412V23C161.425 22.9813 160.958 22.9627 160.342 22.944C159.745 22.9067 159.129 22.888 158.494 22.888C157.804 22.888 157.104 22.9067 156.394 22.944C155.685 22.9627 155.153 22.9813 154.798 23V22.412C155.489 22.412 155.974 22.272 156.254 21.992C156.553 21.712 156.702 21.18 156.702 20.396V11.576C156.702 10.736 156.562 10.12 156.282 9.728C156.021 9.31733 155.526 9.112 154.798 9.112V8.524C155.396 8.58 155.974 8.608 156.534 8.608C157.225 8.608 157.878 8.58 158.494 8.524C159.129 8.44933 159.708 8.34667 160.23 8.216V11.016C160.697 9.98933 161.322 9.252 162.106 8.804C162.89 8.356 163.74 8.132 164.654 8.132ZM173.082 8.132C173.81 8.132 174.417 8.23467 174.902 8.44C175.406 8.64533 175.798 8.90667 176.078 9.224C176.414 9.57867 176.648 10.0547 176.778 10.652C176.909 11.2307 176.974 11.968 176.974 12.864V20.396C176.974 21.18 177.114 21.712 177.394 21.992C177.693 22.272 178.188 22.412 178.878 22.412V23C178.542 22.9813 178.02 22.9627 177.31 22.944C176.62 22.9067 175.948 22.888 175.294 22.888C174.622 22.888 173.969 22.9067 173.334 22.944C172.718 22.9627 172.252 22.9813 171.934 23V22.412C172.476 22.412 172.858 22.272 173.082 21.992C173.325 21.712 173.446 21.18 173.446 20.396V11.912C173.446 11.408 173.4 10.96 173.306 10.568C173.232 10.1573 173.064 9.84 172.802 9.616C172.541 9.37333 172.149 9.252 171.626 9.252C171.048 9.252 170.525 9.42933 170.058 9.784C169.592 10.1387 169.218 10.6147 168.938 11.212C168.677 11.7907 168.537 12.444 168.518 13.172L168.378 11.156C168.882 9.99867 169.554 9.20533 170.394 8.776C171.234 8.34667 172.13 8.132 173.082 8.132ZM192.16 8.524V9.112C191.712 9.112 191.329 9.14933 191.012 9.224C190.695 9.28 190.48 9.42933 190.368 9.672C190.275 9.91467 190.321 10.344 190.508 10.96L193.252 19.304L192.944 19.528L196.5 8.468L197.088 8.748L192.524 23.084C192.3 23.0653 192.067 23.056 191.824 23.056C191.6 23.056 191.376 23.0653 191.152 23.084L186.672 10.68C186.373 9.93333 186.075 9.48533 185.776 9.336C185.496 9.18667 185.253 9.112 185.048 9.112V8.524C185.571 8.58 186.112 8.62667 186.672 8.664C187.232 8.68267 187.848 8.692 188.52 8.692C189.099 8.692 189.705 8.67333 190.34 8.636C190.993 8.59867 191.6 8.56133 192.16 8.524ZM207.028 8.524V9.112C206.673 9.18667 206.328 9.38267 205.992 9.7C205.675 9.99867 205.385 10.5587 205.124 11.38L201.288 23.084C201.064 23.0653 200.84 23.056 200.616 23.056C200.392 23.056 200.159 23.0653 199.916 23.084L195.8 12.08L196.528 8.468C196.789 8.48667 197.051 8.496 197.312 8.496C197.573 8.496 197.835 8.48667 198.096 8.468L202.1 19.864L201.82 19.724L204.004 12.948C204.284 12.052 204.387 11.3333 204.312 10.792C204.256 10.2507 204.041 9.84933 203.668 9.588C203.313 9.308 202.819 9.14933 202.184 9.112V8.524C202.483 8.54267 202.791 8.56133 203.108 8.58C203.425 8.59867 203.733 8.61733 204.032 8.636C204.331 8.636 204.611 8.636 204.872 8.636C205.264 8.636 205.656 8.62667 206.048 8.608C206.44 8.58933 206.767 8.56133 207.028 8.524ZM212.234 1.076V10.988C212.7 9.94267 213.344 9.20533 214.166 8.776C215.006 8.34667 215.911 8.132 216.882 8.132C217.647 8.132 218.272 8.23467 218.758 8.44C219.243 8.64533 219.635 8.90667 219.934 9.224C220.251 9.57867 220.475 10.036 220.606 10.596C220.755 11.156 220.83 11.912 220.83 12.864V20.396C220.83 21.18 220.97 21.712 221.25 21.992C221.548 22.272 222.043 22.412 222.734 22.412V23C222.398 22.9813 221.884 22.9627 221.194 22.944C220.503 22.9067 219.822 22.888 219.15 22.888C218.478 22.888 217.815 22.9067 217.162 22.944C216.508 22.9627 216.014 22.9813 215.678 23V22.412C216.275 22.412 216.695 22.272 216.938 21.992C217.18 21.712 217.302 21.18 217.302 20.396V11.912C217.302 11.408 217.255 10.96 217.162 10.568C217.068 10.1573 216.882 9.84 216.602 9.616C216.34 9.37333 215.939 9.252 215.398 9.252C214.8 9.252 214.259 9.42 213.774 9.756C213.307 10.0733 212.934 10.5307 212.654 11.128C212.374 11.7067 212.234 12.3693 212.234 13.116V20.396C212.234 21.18 212.355 21.712 212.598 21.992C212.859 22.272 213.279 22.412 213.858 22.412V23C213.54 22.9813 213.064 22.9627 212.43 22.944C211.814 22.9067 211.17 22.888 210.498 22.888C209.826 22.888 209.126 22.9067 208.398 22.944C207.688 22.9627 207.156 22.9813 206.802 23V22.412C207.492 22.412 207.978 22.272 208.258 21.992C208.556 21.712 208.706 21.18 208.706 20.396V4.436C208.706 3.596 208.566 2.98 208.286 2.588C208.024 2.17733 207.53 1.972 206.802 1.972V1.384C207.399 1.44 207.978 1.468 208.538 1.468C209.247 1.468 209.91 1.44 210.526 1.384C211.142 1.30933 211.711 1.20667 212.234 1.076ZM227.733 23.196C226.931 23.196 226.249 23.0467 225.689 22.748C225.129 22.4307 224.709 22.0107 224.429 21.488C224.149 20.9467 224.009 20.3493 224.009 19.696C224.009 18.8933 224.196 18.24 224.569 17.736C224.943 17.2133 225.419 16.8027 225.997 16.504C226.595 16.1867 227.22 15.9253 227.873 15.72C228.527 15.496 229.143 15.2907 229.721 15.104C230.3 14.8987 230.776 14.6653 231.149 14.404C231.523 14.1427 231.709 13.7973 231.709 13.368V11.324C231.709 10.7267 231.616 10.2413 231.429 9.868C231.261 9.476 231 9.18667 230.645 9C230.309 8.79467 229.88 8.692 229.357 8.692C228.965 8.692 228.555 8.748 228.125 8.86C227.696 8.972 227.341 9.18667 227.061 9.504C227.547 9.63467 227.92 9.87733 228.181 10.232C228.461 10.5867 228.601 11.016 228.601 11.52C228.601 12.0987 228.405 12.556 228.013 12.892C227.64 13.2093 227.164 13.368 226.585 13.368C225.969 13.368 225.503 13.172 225.185 12.78C224.868 12.388 224.709 11.9307 224.709 11.408C224.709 10.8853 224.84 10.456 225.101 10.12C225.363 9.76533 225.727 9.448 226.193 9.168C226.66 8.85067 227.257 8.59867 227.985 8.412C228.713 8.22533 229.507 8.132 230.365 8.132C231.187 8.132 231.915 8.22533 232.549 8.412C233.184 8.58 233.725 8.888 234.173 9.336C234.621 9.76533 234.911 10.2973 235.041 10.932C235.172 11.5667 235.237 12.3413 235.237 13.256V20.928C235.237 21.3947 235.293 21.7307 235.405 21.936C235.517 22.1227 235.695 22.216 235.937 22.216C236.124 22.216 236.301 22.1693 236.469 22.076C236.637 21.9827 236.824 21.852 237.029 21.684L237.337 22.16C236.927 22.4773 236.497 22.7293 236.049 22.916C235.601 23.1027 235.06 23.196 234.425 23.196C233.772 23.196 233.249 23.1027 232.857 22.916C232.484 22.7293 232.204 22.4587 232.017 22.104C231.849 21.7493 231.756 21.3293 231.737 20.844C231.289 21.5907 230.739 22.1693 230.085 22.58C229.432 22.9907 228.648 23.196 227.733 23.196ZM229.413 21.628C229.861 21.628 230.272 21.5067 230.645 21.264C231.037 21.0213 231.392 20.6573 231.709 20.172V14.516C231.523 14.796 231.252 15.048 230.897 15.272C230.561 15.496 230.197 15.72 229.805 15.944C229.413 16.168 229.04 16.4293 228.685 16.728C228.349 17.008 228.06 17.3627 227.817 17.792C227.593 18.2027 227.481 18.7347 227.481 19.388C227.481 20.116 227.659 20.676 228.013 21.068C228.368 21.4413 228.835 21.628 229.413 21.628ZM243.434 3.932V8.552H247.018V9.112H243.434V20.256C243.434 20.928 243.555 21.404 243.798 21.684C244.041 21.964 244.386 22.104 244.834 22.104C245.263 22.104 245.655 21.9453 246.01 21.628C246.365 21.292 246.682 20.7413 246.962 19.976L247.466 20.2C247.186 21.1147 246.747 21.88 246.15 22.496C245.571 23.0933 244.75 23.392 243.686 23.392C243.051 23.392 242.51 23.308 242.062 23.14C241.633 22.9907 241.259 22.7667 240.942 22.468C240.531 22.0387 240.251 21.5253 240.102 20.928C239.971 20.3307 239.906 19.5373 239.906 18.548V9.112H237.442V8.552H239.906V4.66C240.578 4.64133 241.203 4.576 241.782 4.464C242.361 4.352 242.911 4.17467 243.434 3.932ZM267.059 8.524V9.112C266.704 9.18667 266.368 9.38267 266.051 9.7C265.752 10.0173 265.463 10.5773 265.183 11.38L261.039 22.748L260.171 24.064L254.403 10.68C254.048 9.97067 253.712 9.532 253.395 9.364C253.077 9.196 252.816 9.112 252.611 9.112V8.524C253.152 8.58 253.712 8.62667 254.291 8.664C254.888 8.68267 255.485 8.692 256.083 8.692C256.773 8.692 257.436 8.67333 258.071 8.636C258.724 8.59867 259.331 8.56133 259.891 8.524V9.112C259.461 9.112 259.079 9.14 258.743 9.196C258.407 9.252 258.183 9.41067 258.071 9.672C257.977 9.91467 258.052 10.344 258.295 10.96L261.795 19.5L261.571 19.612L264.035 12.948C264.352 12.0707 264.483 11.3613 264.427 10.82C264.371 10.2787 264.165 9.868 263.811 9.588C263.456 9.308 262.971 9.14933 262.355 9.112V8.524C262.653 8.54267 262.952 8.56133 263.251 8.58C263.549 8.59867 263.839 8.61733 264.119 8.636C264.399 8.636 264.669 8.636 264.931 8.636C265.323 8.636 265.705 8.62667 266.079 8.608C266.471 8.58933 266.797 8.56133 267.059 8.524ZM261.039 22.748L259.975 25.576C259.807 26.0427 259.62 26.4347 259.415 26.752C259.228 27.088 259.013 27.3587 258.771 27.564C258.491 27.8067 258.145 27.984 257.735 28.096C257.343 28.208 256.904 28.264 256.419 28.264C255.989 28.264 255.569 28.1893 255.159 28.04C254.767 27.8907 254.431 27.6667 254.151 27.368C253.889 27.0693 253.759 26.6773 253.759 26.192C253.759 25.6693 253.936 25.2493 254.291 24.932C254.645 24.6147 255.131 24.456 255.747 24.456C256.288 24.456 256.727 24.5867 257.063 24.848C257.417 25.128 257.595 25.5387 257.595 26.08C257.595 26.4347 257.492 26.752 257.287 27.032C257.081 27.312 256.792 27.5267 256.419 27.676C256.512 27.6947 256.596 27.704 256.671 27.704C256.764 27.7227 256.839 27.732 256.895 27.732C257.436 27.732 257.921 27.5547 258.351 27.2C258.78 26.8453 259.125 26.2853 259.387 25.52L260.395 22.748H261.039ZM274.758 8.132C276.046 8.132 277.185 8.39333 278.174 8.916C279.182 9.42 279.975 10.232 280.554 11.352C281.151 12.472 281.45 13.9467 281.45 15.776C281.45 17.6053 281.151 19.08 280.554 20.2C279.975 21.32 279.182 22.132 278.174 22.636C277.185 23.14 276.046 23.392 274.758 23.392C273.47 23.392 272.322 23.14 271.314 22.636C270.306 22.132 269.513 21.32 268.934 20.2C268.355 19.08 268.066 17.6053 268.066 15.776C268.066 13.9467 268.355 12.472 268.934 11.352C269.513 10.232 270.306 9.42 271.314 8.916C272.322 8.39333 273.47 8.132 274.758 8.132ZM274.758 8.692C273.881 8.692 273.162 9.252 272.602 10.372C272.061 11.4733 271.79 13.2747 271.79 15.776C271.79 18.2773 272.061 20.0787 272.602 21.18C273.162 22.2813 273.881 22.832 274.758 22.832C275.617 22.832 276.326 22.2813 276.886 21.18C277.446 20.0787 277.726 18.2773 277.726 15.776C277.726 13.2747 277.446 11.4733 276.886 10.372C276.326 9.252 275.617 8.692 274.758 8.692ZM296.811 8.216V19.976C296.811 20.816 296.951 21.4413 297.231 21.852C297.511 22.244 298.005 22.44 298.715 22.44V23.028C298.136 22.972 297.557 22.944 296.979 22.944C296.288 22.944 295.625 22.972 294.991 23.028C294.375 23.084 293.805 23.1867 293.283 23.336V20.536C292.816 21.5627 292.172 22.3 291.351 22.748C290.548 23.1773 289.68 23.392 288.747 23.392C288.019 23.392 287.403 23.2893 286.899 23.084C286.413 22.8973 286.021 22.636 285.723 22.3C285.405 21.9453 285.181 21.4787 285.051 20.9C284.92 20.3213 284.855 19.5747 284.855 18.66V11.576C284.855 10.736 284.715 10.12 284.435 9.728C284.173 9.31733 283.679 9.112 282.951 9.112V8.524C283.548 8.58 284.127 8.608 284.687 8.608C285.377 8.608 286.031 8.58 286.647 8.524C287.281 8.44933 287.86 8.34667 288.383 8.216V19.64C288.383 20.144 288.42 20.592 288.495 20.984C288.588 21.376 288.765 21.6933 289.027 21.936C289.288 22.16 289.68 22.272 290.203 22.272C290.781 22.272 291.304 22.104 291.771 21.768C292.237 21.432 292.601 20.9747 292.863 20.396C293.143 19.8173 293.283 19.164 293.283 18.436V11.576C293.283 10.736 293.143 10.12 292.863 9.728C292.601 9.31733 292.107 9.112 291.379 9.112V8.524C291.976 8.58 292.555 8.608 293.115 8.608C293.805 8.608 294.459 8.58 295.075 8.524C295.709 8.44933 296.288 8.34667 296.811 8.216ZM302.094 2.56C302.523 2.56 302.878 2.70933 303.158 3.008C303.456 3.30667 303.606 3.71733 303.606 4.24C303.606 4.81867 303.54 5.36 303.41 5.864C303.298 6.34933 303.139 6.9 302.934 7.516C302.728 8.132 302.514 8.92533 302.29 9.896H301.898C301.692 8.98133 301.487 8.216 301.282 7.6C301.076 6.984 300.908 6.424 300.778 5.92C300.647 5.39733 300.582 4.84667 300.582 4.268C300.582 3.74533 300.731 3.33467 301.03 3.036C301.328 2.73733 301.683 2.57867 302.094 2.56ZM314.95 8.132C315.528 8.132 316.004 8.25333 316.378 8.496C316.77 8.73867 317.059 9.04667 317.246 9.42C317.432 9.79333 317.526 10.1853 317.526 10.596C317.526 11.212 317.339 11.7253 316.966 12.136C316.611 12.5467 316.135 12.752 315.538 12.752C314.978 12.752 314.52 12.6027 314.166 12.304C313.811 12.0053 313.634 11.5947 313.634 11.072C313.634 10.6053 313.746 10.2133 313.97 9.896C314.212 9.57867 314.483 9.32667 314.782 9.14C314.576 9.028 314.343 8.99067 314.082 9.028C313.634 9.06533 313.223 9.224 312.85 9.504C312.476 9.784 312.159 10.1293 311.898 10.54C311.636 10.9507 311.431 11.3893 311.282 11.856C311.151 12.3227 311.086 12.7707 311.086 13.2V20.116C311.086 21.0307 311.319 21.6467 311.786 21.964C312.252 22.2627 312.934 22.412 313.83 22.412V23C313.4 22.9813 312.775 22.9627 311.954 22.944C311.151 22.9067 310.311 22.888 309.434 22.888C308.706 22.888 307.978 22.9067 307.25 22.944C306.54 22.9627 306.008 22.9813 305.654 23V22.412C306.344 22.412 306.83 22.272 307.11 21.992C307.408 21.712 307.558 21.18 307.558 20.396V11.576C307.558 10.736 307.418 10.12 307.138 9.728C306.876 9.31733 306.382 9.112 305.654 9.112V8.524C306.251 8.58 306.83 8.608 307.39 8.608C308.08 8.608 308.734 8.58 309.35 8.524C309.984 8.44933 310.563 8.34667 311.086 8.216V11.128C311.31 10.6053 311.599 10.12 311.954 9.672C312.327 9.224 312.766 8.86 313.27 8.58C313.792 8.28133 314.352 8.132 314.95 8.132ZM325.124 8.132C326.767 8.132 328.055 8.62667 328.988 9.616C329.921 10.6053 330.388 12.1827 330.388 14.348H320.952L320.924 13.816H327.14C327.177 12.9013 327.121 12.0613 326.972 11.296C326.823 10.512 326.58 9.88667 326.244 9.42C325.927 8.95333 325.507 8.72 324.984 8.72C324.275 8.72 323.659 9.14 323.136 9.98C322.613 10.8013 322.287 12.1547 322.156 14.04L322.268 14.208C322.231 14.4507 322.203 14.712 322.184 14.992C322.184 15.272 322.184 15.552 322.184 15.832C322.184 17.12 322.371 18.184 322.744 19.024C323.117 19.864 323.603 20.48 324.2 20.872C324.797 21.264 325.413 21.46 326.048 21.46C326.477 21.46 326.916 21.3947 327.364 21.264C327.812 21.1333 328.251 20.8907 328.68 20.536C329.109 20.1813 329.501 19.6773 329.856 19.024L330.388 19.248C330.183 19.9013 329.837 20.5547 329.352 21.208C328.885 21.8427 328.279 22.3653 327.532 22.776C326.785 23.1867 325.908 23.392 324.9 23.392C323.631 23.392 322.511 23.112 321.54 22.552C320.569 21.992 319.813 21.1613 319.272 20.06C318.731 18.94 318.46 17.5773 318.46 15.972C318.46 14.2733 318.74 12.8453 319.3 11.688C319.879 10.5307 320.672 9.65333 321.68 9.056C322.688 8.44 323.836 8.132 325.124 8.132ZM344.383 8.524V9.112C343.935 9.112 343.552 9.14933 343.235 9.224C342.917 9.28 342.703 9.42933 342.591 9.672C342.497 9.91467 342.544 10.344 342.731 10.96L345.475 19.304L345.167 19.528L348.723 8.468L349.311 8.748L344.747 23.084C344.523 23.0653 344.289 23.056 344.047 23.056C343.823 23.056 343.599 23.0653 343.375 23.084L338.895 10.68C338.596 9.93333 338.297 9.48533 337.999 9.336C337.719 9.18667 337.476 9.112 337.271 9.112V8.524C337.793 8.58 338.335 8.62667 338.895 8.664C339.455 8.68267 340.071 8.692 340.743 8.692C341.321 8.692 341.928 8.67333 342.563 8.636C343.216 8.59867 343.823 8.56133 344.383 8.524ZM359.251 8.524V9.112C358.896 9.18667 358.551 9.38267 358.215 9.7C357.897 9.99867 357.608 10.5587 357.347 11.38L353.511 23.084C353.287 23.0653 353.063 23.056 352.839 23.056C352.615 23.056 352.381 23.0653 352.139 23.084L348.023 12.08L348.751 8.468C349.012 8.48667 349.273 8.496 349.535 8.496C349.796 8.496 350.057 8.48667 350.319 8.468L354.323 19.864L354.043 19.724L356.227 12.948C356.507 12.052 356.609 11.3333 356.535 10.792C356.479 10.2507 356.264 9.84933 355.891 9.588C355.536 9.308 355.041 9.14933 354.407 9.112V8.524C354.705 8.54267 355.013 8.56133 355.331 8.58C355.648 8.59867 355.956 8.61733 356.255 8.636C356.553 8.636 356.833 8.636 357.095 8.636C357.487 8.636 357.879 8.62667 358.271 8.608C358.663 8.58933 358.989 8.56133 359.251 8.524ZM366.742 8.132C368.03 8.132 369.169 8.39333 370.158 8.916C371.166 9.42 371.96 10.232 372.538 11.352C373.136 12.472 373.434 13.9467 373.434 15.776C373.434 17.6053 373.136 19.08 372.538 20.2C371.96 21.32 371.166 22.132 370.158 22.636C369.169 23.14 368.03 23.392 366.742 23.392C365.454 23.392 364.306 23.14 363.298 22.636C362.29 22.132 361.497 21.32 360.918 20.2C360.34 19.08 360.05 17.6053 360.05 15.776C360.05 13.9467 360.34 12.472 360.918 11.352C361.497 10.232 362.29 9.42 363.298 8.916C364.306 8.39333 365.454 8.132 366.742 8.132ZM366.742 8.692C365.865 8.692 365.146 9.252 364.586 10.372C364.045 11.4733 363.774 13.2747 363.774 15.776C363.774 18.2773 364.045 20.0787 364.586 21.18C365.146 22.2813 365.865 22.832 366.742 22.832C367.601 22.832 368.31 22.2813 368.87 21.18C369.43 20.0787 369.71 18.2773 369.71 15.776C369.71 13.2747 369.43 11.4733 368.87 10.372C368.31 9.252 367.601 8.692 366.742 8.692ZM384.567 8.132C385.146 8.132 385.622 8.25333 385.995 8.496C386.387 8.73867 386.676 9.04667 386.863 9.42C387.05 9.79333 387.143 10.1853 387.143 10.596C387.143 11.212 386.956 11.7253 386.583 12.136C386.228 12.5467 385.752 12.752 385.155 12.752C384.595 12.752 384.138 12.6027 383.783 12.304C383.428 12.0053 383.251 11.5947 383.251 11.072C383.251 10.6053 383.363 10.2133 383.587 9.896C383.83 9.57867 384.1 9.32667 384.399 9.14C384.194 9.028 383.96 8.99067 383.699 9.028C383.251 9.06533 382.84 9.224 382.467 9.504C382.094 9.784 381.776 10.1293 381.515 10.54C381.254 10.9507 381.048 11.3893 380.899 11.856C380.768 12.3227 380.703 12.7707 380.703 13.2V20.116C380.703 21.0307 380.936 21.6467 381.403 21.964C381.87 22.2627 382.551 22.412 383.447 22.412V23C383.018 22.9813 382.392 22.9627 381.571 22.944C380.768 22.9067 379.928 22.888 379.051 22.888C378.323 22.888 377.595 22.9067 376.867 22.944C376.158 22.9627 375.626 22.9813 375.271 23V22.412C375.962 22.412 376.447 22.272 376.727 21.992C377.026 21.712 377.175 21.18 377.175 20.396V11.576C377.175 10.736 377.035 10.12 376.755 9.728C376.494 9.31733 375.999 9.112 375.271 9.112V8.524C375.868 8.58 376.447 8.608 377.007 8.608C377.698 8.608 378.351 8.58 378.967 8.524C379.602 8.44933 380.18 8.34667 380.703 8.216V11.128C380.927 10.6053 381.216 10.12 381.571 9.672C381.944 9.224 382.383 8.86 382.887 8.58C383.41 8.28133 383.97 8.132 384.567 8.132ZM392.702 1.076V20.396C392.702 21.18 392.833 21.712 393.094 21.992C393.356 22.272 393.804 22.412 394.438 22.412V23C394.121 22.9813 393.636 22.9627 392.982 22.944C392.329 22.9067 391.666 22.888 390.994 22.888C390.304 22.888 389.594 22.9067 388.866 22.944C388.157 22.9627 387.625 22.9813 387.27 23V22.412C387.961 22.412 388.446 22.272 388.726 21.992C389.025 21.712 389.174 21.18 389.174 20.396V4.436C389.174 3.596 389.034 2.98 388.754 2.588C388.493 2.17733 387.998 1.972 387.27 1.972V1.384C387.868 1.44 388.446 1.468 389.006 1.468C389.716 1.468 390.378 1.44 390.994 1.384C391.61 1.30933 392.18 1.20667 392.702 1.076ZM401.774 8.524V9.084C401.214 9.196 400.673 9.41067 400.15 9.728C399.628 10.0267 399.114 10.4467 398.61 10.988L395.838 13.872L396.146 13.256L401.074 20.956C401.336 21.3293 401.578 21.6467 401.802 21.908C402.045 22.1507 402.344 22.3187 402.698 22.412V23C402.456 22.9813 402.073 22.9627 401.55 22.944C401.028 22.9067 400.505 22.888 399.982 22.888C399.348 22.888 398.694 22.9067 398.022 22.944C397.369 22.9627 396.874 22.9813 396.538 23V22.412C396.912 22.412 397.164 22.328 397.294 22.16C397.444 21.9733 397.425 21.74 397.238 21.46L394.326 16.56C394.065 16.1493 393.813 15.888 393.57 15.776C393.328 15.6453 393.001 15.58 392.59 15.58V15.02C393.057 14.9827 393.44 14.8987 393.738 14.768C394.056 14.6373 394.354 14.432 394.634 14.152L396.734 12.052C397.35 11.436 397.658 10.9133 397.658 10.484C397.677 10.0547 397.481 9.728 397.07 9.504C396.678 9.26133 396.165 9.12133 395.53 9.084V8.524C396.034 8.54267 396.594 8.57067 397.21 8.608C397.826 8.62667 398.349 8.636 398.778 8.636C399.114 8.636 399.469 8.636 399.842 8.636C400.234 8.61733 400.598 8.59867 400.934 8.58C401.289 8.56133 401.569 8.54267 401.774 8.524ZM407.016 1.384C407.688 1.384 408.239 1.57067 408.668 1.944C409.098 2.31733 409.312 2.812 409.312 3.428C409.312 4.044 409.098 4.53867 408.668 4.912C408.239 5.28533 407.688 5.472 407.016 5.472C406.344 5.472 405.794 5.28533 405.364 4.912C404.935 4.53867 404.72 4.044 404.72 3.428C404.72 2.812 404.935 2.31733 405.364 1.944C405.794 1.57067 406.344 1.384 407.016 1.384ZM408.976 8.216V20.396C408.976 21.18 409.116 21.712 409.396 21.992C409.695 22.272 410.19 22.412 410.88 22.412V23C410.544 22.9813 410.031 22.9627 409.34 22.944C408.65 22.9067 407.95 22.888 407.24 22.888C406.55 22.888 405.85 22.9067 405.14 22.944C404.431 22.9627 403.899 22.9813 403.544 23V22.412C404.235 22.412 404.72 22.272 405 21.992C405.299 21.712 405.448 21.18 405.448 20.396V11.604C405.448 10.7453 405.308 10.12 405.028 9.728C404.767 9.31733 404.272 9.112 403.544 9.112V8.524C404.142 8.58 404.72 8.608 405.28 8.608C405.971 8.608 406.624 8.58 407.24 8.524C407.875 8.44933 408.454 8.34667 408.976 8.216ZM422.21 8.132C422.994 8.132 423.619 8.23467 424.086 8.44C424.571 8.64533 424.963 8.90667 425.262 9.224C425.598 9.57867 425.831 10.036 425.962 10.596C426.111 11.156 426.186 11.912 426.186 12.864V20.396C426.186 21.18 426.326 21.712 426.606 21.992C426.904 22.272 427.399 22.412 428.09 22.412V23C427.754 22.9813 427.231 22.9627 426.522 22.944C425.831 22.9067 425.159 22.888 424.506 22.888C423.815 22.888 423.143 22.9067 422.49 22.944C421.836 22.9627 421.351 22.9813 421.034 23V22.412C421.631 22.412 422.051 22.272 422.294 21.992C422.536 21.712 422.658 21.18 422.658 20.396V11.912C422.658 11.408 422.611 10.96 422.518 10.568C422.424 10.1573 422.238 9.84 421.958 9.616C421.678 9.37333 421.276 9.252 420.754 9.252C420.138 9.252 419.587 9.42 419.102 9.756C418.635 10.092 418.262 10.5587 417.982 11.156C417.72 11.7347 417.59 12.388 417.59 13.116V20.396C417.59 21.18 417.711 21.712 417.954 21.992C418.196 22.272 418.616 22.412 419.214 22.412V23C418.896 22.9813 418.42 22.9627 417.786 22.944C417.151 22.9067 416.507 22.888 415.854 22.888C415.163 22.888 414.463 22.9067 413.754 22.944C413.044 22.9627 412.512 22.9813 412.158 23V22.412C412.848 22.412 413.334 22.272 413.614 21.992C413.912 21.712 414.062 21.18 414.062 20.396V11.576C414.062 10.736 413.922 10.12 413.642 9.728C413.38 9.31733 412.886 9.112 412.158 9.112V8.524C412.755 8.58 413.334 8.608 413.894 8.608C414.584 8.608 415.238 8.58 415.854 8.524C416.488 8.44933 417.067 8.34667 417.59 8.216V11.016C418.056 9.952 418.7 9.20533 419.522 8.776C420.343 8.34667 421.239 8.132 422.21 8.132ZM434.294 28.264C433.193 28.264 432.194 28.1613 431.298 27.956C430.402 27.7507 429.693 27.4427 429.17 27.032C428.647 26.64 428.386 26.136 428.386 25.52C428.386 24.9227 428.647 24.3907 429.17 23.924C429.693 23.4573 430.458 23.1027 431.466 22.86L431.662 23.308C431.307 23.5133 431.037 23.7933 430.85 24.148C430.663 24.5027 430.57 24.876 430.57 25.268C430.57 26.0707 430.934 26.6867 431.662 27.116C432.409 27.564 433.398 27.788 434.63 27.788C435.47 27.788 436.245 27.676 436.954 27.452C437.663 27.228 438.233 26.8827 438.662 26.416C439.091 25.9493 439.306 25.3707 439.306 24.68C439.306 24.1013 439.091 23.616 438.662 23.224C438.251 22.832 437.421 22.636 436.17 22.636H434.322C433.631 22.636 432.997 22.5613 432.418 22.412C431.858 22.2627 431.41 22.02 431.074 21.684C430.738 21.348 430.57 20.8813 430.57 20.284C430.57 19.556 430.869 18.9027 431.466 18.324C432.063 17.7267 432.997 17.148 434.266 16.588L434.574 16.84C434.107 17.0827 433.687 17.344 433.314 17.624C432.959 17.904 432.782 18.2587 432.782 18.688C432.782 19.2853 433.193 19.584 434.014 19.584H437.178C438.149 19.584 439.007 19.7053 439.754 19.948C440.519 20.1907 441.126 20.5733 441.574 21.096C442.022 21.6187 442.246 22.3093 442.246 23.168C442.246 24.064 441.957 24.8947 441.378 25.66C440.799 26.444 439.922 27.0693 438.746 27.536C437.589 28.0213 436.105 28.264 434.294 28.264ZM434.546 17.036C433.538 17.036 432.623 16.8867 431.802 16.588C430.999 16.2707 430.365 15.7853 429.898 15.132C429.431 14.46 429.198 13.6107 429.198 12.584C429.198 11.5573 429.431 10.7173 429.898 10.064C430.365 9.41067 430.999 8.92533 431.802 8.608C432.623 8.29067 433.538 8.132 434.546 8.132C435.573 8.132 436.487 8.29067 437.29 8.608C438.093 8.92533 438.727 9.41067 439.194 10.064C439.661 10.7173 439.894 11.5573 439.894 12.584C439.894 13.6107 439.661 14.46 439.194 15.132C438.727 15.7853 438.093 16.2707 437.29 16.588C436.487 16.8867 435.573 17.036 434.546 17.036ZM434.546 16.532C435.106 16.532 435.545 16.252 435.862 15.692C436.198 15.1133 436.366 14.0773 436.366 12.584C436.366 11.0907 436.198 10.064 435.862 9.504C435.545 8.92533 435.106 8.636 434.546 8.636C433.986 8.636 433.538 8.92533 433.202 9.504C432.885 10.064 432.726 11.0907 432.726 12.584C432.726 14.0773 432.885 15.1133 433.202 15.692C433.538 16.252 433.986 16.532 434.546 16.532ZM438.774 10.512L438.242 10.316C438.522 9.62533 438.979 9.04667 439.614 8.58C440.249 8.09467 440.921 7.852 441.63 7.852C442.171 7.852 442.591 8.00133 442.89 8.3C443.207 8.59867 443.366 9.01867 443.366 9.56C443.366 10.12 443.217 10.5307 442.918 10.792C442.619 11.0533 442.293 11.184 441.938 11.184C441.621 11.184 441.331 11.0813 441.07 10.876C440.809 10.652 440.659 10.316 440.622 9.868C440.585 9.40133 440.734 8.82267 441.07 8.132L441.35 8.244C440.622 8.524 440.081 8.832 439.726 9.168C439.371 9.504 439.054 9.952 438.774 10.512ZM8 45.524V46.112C7.552 46.112 7.16933 46.1493 6.852 46.224C6.53467 46.28 6.32 46.4293 6.208 46.672C6.11467 46.9147 6.16133 47.344 6.348 47.96L9.092 56.304L8.784 56.528L12.34 45.468L12.928 45.748L8.364 60.084C8.14 60.0653 7.90667 60.056 7.664 60.056C7.44 60.056 7.216 60.0653 6.992 60.084L2.512 47.68C2.21333 46.9333 1.91467 46.4853 1.616 46.336C1.336 46.1867 1.09333 46.112 0.888 46.112V45.524C1.41067 45.58 1.952 45.6267 2.512 45.664C3.072 45.6827 3.688 45.692 4.36 45.692C4.93867 45.692 5.54533 45.6733 6.18 45.636C6.83333 45.5987 7.44 45.5613 8 45.524ZM22.868 45.524V46.112C22.5133 46.1867 22.168 46.3827 21.832 46.7C21.5147 46.9987 21.2253 47.5587 20.964 48.38L17.128 60.084C16.904 60.0653 16.68 60.056 16.456 60.056C16.232 60.056 15.9987 60.0653 15.756 60.084L11.64 49.08L12.368 45.468C12.6293 45.4867 12.8907 45.496 13.152 45.496C13.4133 45.496 13.6747 45.4867 13.936 45.468L17.94 56.864L17.66 56.724L19.844 49.948C20.124 49.052 20.2267 48.3333 20.152 47.792C20.096 47.2507 19.8813 46.8493 19.508 46.588C19.1533 46.308 18.6587 46.1493 18.024 46.112V45.524C18.3227 45.5427 18.6307 45.5613 18.948 45.58C19.2653 45.5987 19.5733 45.6173 19.872 45.636C20.1707 45.636 20.4507 45.636 20.712 45.636C21.104 45.636 21.496 45.6267 21.888 45.608C22.28 45.5893 22.6067 45.5613 22.868 45.524ZM27.075 38.384C27.747 38.384 28.2977 38.5707 28.727 38.944C29.1563 39.3173 29.371 39.812 29.371 40.428C29.371 41.044 29.1563 41.5387 28.727 41.912C28.2977 42.2853 27.747 42.472 27.075 42.472C26.403 42.472 25.8523 42.2853 25.423 41.912C24.9937 41.5387 24.779 41.044 24.779 40.428C24.779 39.812 24.9937 39.3173 25.423 38.944C25.8523 38.5707 26.403 38.384 27.075 38.384ZM29.035 45.216V57.396C29.035 58.18 29.175 58.712 29.455 58.992C29.7537 59.272 30.2483 59.412 30.939 59.412V60C30.603 59.9813 30.0897 59.9627 29.399 59.944C28.7083 59.9067 28.0083 59.888 27.299 59.888C26.6083 59.888 25.9083 59.9067 25.199 59.944C24.4897 59.9627 23.9577 59.9813 23.603 60V59.412C24.2937 59.412 24.779 59.272 25.059 58.992C25.3577 58.712 25.507 58.18 25.507 57.396V48.604C25.507 47.7453 25.367 47.12 25.087 46.728C24.8257 46.3173 24.331 46.112 23.603 46.112V45.524C24.2003 45.58 24.779 45.608 25.339 45.608C26.0297 45.608 26.683 45.58 27.299 45.524C27.9337 45.4493 28.5123 45.3467 29.035 45.216ZM37.5083 40.932V45.552H41.0923V46.112H37.5083V57.256C37.5083 57.928 37.6296 58.404 37.8723 58.684C38.1149 58.964 38.4603 59.104 38.9083 59.104C39.3376 59.104 39.7296 58.9453 40.0843 58.628C40.4389 58.292 40.7563 57.7413 41.0363 56.976L41.5403 57.2C41.2603 58.1147 40.8216 58.88 40.2243 59.496C39.6456 60.0933 38.8243 60.392 37.7603 60.392C37.1256 60.392 36.5843 60.308 36.1363 60.14C35.7069 59.9907 35.3336 59.7667 35.0163 59.468C34.6056 59.0387 34.3256 58.5253 34.1763 57.928C34.0456 57.3307 33.9803 56.5373 33.9803 55.548V46.112H31.5163V45.552H33.9803V41.66C34.6523 41.6413 35.2776 41.576 35.8563 41.464C36.4349 41.352 36.9856 41.1747 37.5083 40.932ZM47.296 38.076V47.988C47.7627 46.9427 48.4067 46.2053 49.228 45.776C50.068 45.3467 50.9734 45.132 51.944 45.132C52.7094 45.132 53.3347 45.2347 53.82 45.44C54.3054 45.6453 54.6974 45.9067 54.996 46.224C55.3134 46.5787 55.5374 47.036 55.668 47.596C55.8174 48.156 55.892 48.912 55.892 49.864V57.396C55.892 58.18 56.032 58.712 56.312 58.992C56.6107 59.272 57.1054 59.412 57.796 59.412V60C57.46 59.9813 56.9467 59.9627 56.256 59.944C55.5654 59.9067 54.884 59.888 54.212 59.888C53.54 59.888 52.8774 59.9067 52.224 59.944C51.5707 59.9627 51.076 59.9813 50.74 60V59.412C51.3374 59.412 51.7574 59.272 52 58.992C52.2427 58.712 52.364 58.18 52.364 57.396V48.912C52.364 48.408 52.3174 47.96 52.224 47.568C52.1307 47.1573 51.944 46.84 51.664 46.616C51.4027 46.3733 51.0014 46.252 50.46 46.252C49.8627 46.252 49.3214 46.42 48.836 46.756C48.3694 47.0733 47.996 47.5307 47.716 48.128C47.436 48.7067 47.296 49.3693 47.296 50.116V57.396C47.296 58.18 47.4174 58.712 47.66 58.992C47.9214 59.272 48.3414 59.412 48.92 59.412V60C48.6027 59.9813 48.1267 59.9627 47.492 59.944C46.876 59.9067 46.232 59.888 45.56 59.888C44.888 59.888 44.188 59.9067 43.46 59.944C42.7507 59.9627 42.2187 59.9813 41.864 60V59.412C42.5547 59.412 43.04 59.272 43.32 58.992C43.6187 58.712 43.768 58.18 43.768 57.396V41.436C43.768 40.596 43.628 39.98 43.348 39.588C43.0867 39.1773 42.592 38.972 41.864 38.972V38.384C42.4614 38.44 43.04 38.468 43.6 38.468C44.3094 38.468 44.972 38.44 45.588 38.384C46.204 38.3093 46.7734 38.2067 47.296 38.076ZM58.6616 37.432C60.771 39.0933 62.4136 41.0627 63.5896 43.34C64.7843 45.6173 65.3816 48.2587 65.3816 51.264C65.3816 54.2693 64.7843 56.9107 63.5896 59.188C62.4136 61.4653 60.771 63.4347 58.6616 65.096L58.2696 64.732C59.6136 62.8093 60.575 60.7747 61.1536 58.628C61.7323 56.4627 62.0216 54.008 62.0216 51.264C62.0216 48.52 61.7323 46.0653 61.1536 43.9C60.575 41.7347 59.6136 39.7 58.2696 37.796L58.6616 37.432Z" fill="#FFF0E2"/>
</svg>
