<svg width="329" height="29" viewBox="0 0 329 29" fill="none" xmlns="http://www.w3.org/2000/svg">
<path d="M6.784 0.431998L7.176 0.795999C5.832 2.7 4.87067 4.73467 4.292 6.9C3.71333 9.06533 3.424 11.52 3.424 14.264C3.424 17.008 3.71333 19.4627 4.292 21.628C4.87067 23.7747 5.832 25.8093 7.176 27.732L6.784 28.096C4.67467 26.4347 3.02267 24.4653 1.828 22.188C0.652 19.9107 0.0640001 17.2693 0.0640001 14.264C0.0640001 11.2587 0.652 8.61733 1.828 6.34C3.02267 4.06267 4.67467 2.09333 6.784 0.431998ZM16.712 3.204C17.4213 3.204 18 3.26933 18.448 3.4C18.896 3.512 19.288 3.66133 19.624 3.848C19.8853 3.99733 20.128 4.184 20.352 4.408C20.576 4.632 20.7533 4.87467 20.884 5.136C21.0146 5.39733 21.08 5.68667 21.08 6.004C21.08 6.54533 20.884 6.97467 20.492 7.292C20.1 7.60933 19.6426 7.768 19.12 7.768C18.6346 7.768 18.2053 7.628 17.832 7.348C17.4773 7.068 17.3 6.66667 17.3 6.144C17.3 5.67733 17.4493 5.276 17.748 4.94C18.0653 4.58533 18.476 4.36133 18.98 4.268C18.8493 4.1 18.6066 3.96 18.252 3.848C17.916 3.71733 17.5146 3.652 17.048 3.652C16.0773 3.652 15.2653 3.95067 14.612 4.548C13.9586 5.14533 13.632 6.032 13.632 7.208C13.632 7.656 13.7066 8.14133 13.856 8.664C14.024 9.168 14.3506 9.672 14.836 10.176C15.1533 10.1013 15.452 10.0547 15.732 10.036C16.0306 9.99867 16.2733 9.98 16.46 9.98C16.796 9.98 17.0573 10.0453 17.244 10.176C17.4306 10.288 17.524 10.456 17.524 10.68C17.524 10.8667 17.4493 11.0067 17.3 11.1C17.1506 11.1933 16.964 11.24 16.74 11.24C16.404 11.24 16.0586 11.156 15.704 10.988C15.3493 10.82 15.0693 10.68 14.864 10.568C13.912 10.96 13.1373 11.5107 12.54 12.22C11.9613 12.9293 11.672 13.8907 11.672 15.104C11.672 16.3547 11.9986 17.4 12.652 18.24C13.324 19.08 14.2573 19.7147 15.452 20.144C16.6466 20.5547 18.028 20.76 19.596 20.76C20.548 20.76 21.472 20.6573 22.368 20.452C23.2826 20.228 24.104 19.9013 24.832 19.472C25.56 19.0427 26.1386 18.5293 26.568 17.932C26.9973 17.316 27.212 16.6067 27.212 15.804C27.212 15.4867 27.156 15.0853 27.044 14.6C26.932 14.1147 26.6893 13.6293 26.316 13.144C25.9426 12.6587 25.364 12.2667 24.58 11.968L24.804 11.716C25.924 12.052 26.7546 12.668 27.296 13.564C27.856 14.4413 28.136 15.4493 28.136 16.588C28.136 17.82 27.7533 18.9587 26.988 20.004C26.2226 21.0307 25.14 21.852 23.74 22.468C22.3586 23.084 20.7253 23.392 18.84 23.392C17.4026 23.392 16.0773 23.2333 14.864 22.916C13.6693 22.5987 12.624 22.1413 11.728 21.544C10.8506 20.928 10.1693 20.1907 9.68397 19.332C9.19864 18.4733 8.95597 17.5027 8.95597 16.42C8.95597 15.3933 9.1613 14.516 9.57197 13.788C9.98264 13.06 10.496 12.4627 11.112 11.996C11.728 11.5107 12.344 11.1373 12.96 10.876C13.576 10.6147 14.08 10.4373 14.472 10.344C13.8746 10.1013 13.3426 9.812 12.876 9.476C12.4093 9.12133 12.0453 8.72 11.784 8.272C11.5413 7.80533 11.42 7.31067 11.42 6.788C11.42 6.228 11.5506 5.73333 11.812 5.304C12.092 4.856 12.4746 4.47333 12.96 4.156C13.4453 3.83867 14.0053 3.60533 14.64 3.456C15.2746 3.288 15.9653 3.204 16.712 3.204ZM27.436 2.784C28.6866 2.784 29.7226 3.12933 30.544 3.82C31.3653 4.492 31.776 5.444 31.776 6.676C31.776 7.53467 31.58 8.26267 31.188 8.86C30.796 9.45733 30.2453 9.96133 29.536 10.372C28.8453 10.764 28.0333 11.0813 27.1 11.324C26.764 11.4547 26.3533 11.5947 25.868 11.744C25.3826 11.8933 24.86 12.052 24.3 12.22C23.7586 12.3693 23.236 12.5187 22.732 12.668C22.2466 12.8173 21.836 12.9573 21.5 13.088C20.324 13.3867 19.3906 13.732 18.7 14.124C18.0093 14.4973 17.664 15.02 17.664 15.692C17.664 16.1587 17.8133 16.5693 18.112 16.924C18.4106 17.26 18.784 17.512 19.232 17.68C19.68 17.848 20.1186 17.932 20.548 17.932C20.6786 17.932 20.8373 17.9227 21.024 17.904C21.2106 17.8667 21.3786 17.82 21.528 17.764C21.696 17.708 21.808 17.6333 21.864 17.54C21.4533 17.428 21.1173 17.232 20.856 16.952C20.5946 16.672 20.464 16.308 20.464 15.86C20.464 15.3187 20.66 14.8987 21.052 14.6C21.444 14.3013 21.92 14.152 22.48 14.152C23.0773 14.152 23.544 14.3107 23.88 14.628C24.2346 14.9453 24.412 15.3747 24.412 15.916C24.412 16.476 24.2346 16.9427 23.88 17.316C23.5253 17.6893 23.0586 17.9693 22.48 18.156C21.92 18.324 21.3133 18.408 20.66 18.408C19.988 18.408 19.3533 18.2867 18.756 18.044C18.1586 17.7827 17.6733 17.4 17.3 16.896C16.9266 16.392 16.74 15.7293 16.74 14.908C16.74 14.0493 16.9546 13.312 17.384 12.696C17.8133 12.08 18.4293 11.5667 19.232 11.156C20.0533 10.7267 21.0333 10.3813 22.172 10.12C22.62 9.98933 23.1333 9.84933 23.712 9.7C24.3093 9.55067 24.916 9.392 25.532 9.224C26.148 9.03733 26.7266 8.84133 27.268 8.636C28.4626 8.28133 29.3586 7.88933 29.956 7.46C30.5533 7.03067 30.852 6.508 30.852 5.892C30.852 5.36933 30.7026 4.912 30.404 4.52C30.1053 4.128 29.7133 3.82 29.228 3.596C28.7426 3.372 28.22 3.26 27.66 3.26C27.4733 3.26 27.3053 3.27867 27.156 3.316C27.0253 3.33467 26.932 3.372 26.876 3.428C27.2493 3.596 27.5293 3.82933 27.716 4.128C27.9213 4.42667 28.024 4.73467 28.024 5.052C28.024 5.556 27.828 5.95733 27.436 6.256C27.0626 6.55467 26.596 6.704 26.036 6.704C25.4946 6.704 25.028 6.55467 24.636 6.256C24.2626 5.95733 24.076 5.53733 24.076 4.996C24.076 4.51067 24.2253 4.1 24.524 3.764C24.8226 3.428 25.224 3.18533 25.728 3.036C26.2506 2.868 26.82 2.784 27.436 2.784ZM44.9979 8.132C45.7819 8.132 46.4539 8.244 47.0139 8.468C47.5739 8.692 47.9845 8.888 48.2459 9.056C48.8805 9.52267 49.2632 9.224 49.3939 8.16H50.0099C49.9725 8.70133 49.9445 9.34533 49.9259 10.092C49.9072 10.82 49.8979 11.8 49.8979 13.032H49.2819C49.1885 12.3413 49.0112 11.6693 48.7499 11.016C48.4885 10.3627 48.1059 9.82133 47.6019 9.392C47.0979 8.944 46.4352 8.72 45.6139 8.72C45.0352 8.72 44.5499 8.888 44.1579 9.224C43.7845 9.56 43.5979 10.036 43.5979 10.652C43.5979 11.212 43.7659 11.7067 44.1019 12.136C44.4379 12.5467 44.8672 12.9387 45.3899 13.312C45.9312 13.6667 46.4912 14.0587 47.0699 14.488C47.7419 14.936 48.3392 15.3933 48.8619 15.86C49.3845 16.308 49.8045 16.812 50.1219 17.372C50.4392 17.9133 50.5979 18.5573 50.5979 19.304C50.5979 20.1627 50.3552 20.9 49.8699 21.516C49.4032 22.1133 48.7779 22.58 47.9939 22.916C47.2285 23.2333 46.3792 23.392 45.4459 23.392C44.9419 23.392 44.4845 23.3453 44.0739 23.252C43.6632 23.1587 43.2992 23.0373 42.9819 22.888C42.7392 22.7573 42.5152 22.636 42.3099 22.524C42.1232 22.412 41.9272 22.3187 41.7219 22.244C41.5352 22.1507 41.3672 22.188 41.2179 22.356C41.0872 22.524 40.9845 22.804 40.9099 23.196H40.2939C40.3312 22.5987 40.3592 21.8707 40.3779 21.012C40.3965 20.1533 40.4059 19.0147 40.4059 17.596H41.0219C41.1525 18.6227 41.3485 19.528 41.6099 20.312C41.8899 21.0773 42.2912 21.684 42.8139 22.132C43.3365 22.5613 44.0085 22.776 44.8299 22.776C45.1845 22.776 45.5205 22.7013 45.8379 22.552C46.1739 22.4027 46.4445 22.1693 46.6499 21.852C46.8739 21.5347 46.9859 21.1053 46.9859 20.564C46.9859 19.7427 46.7059 19.0613 46.1459 18.52C45.5859 17.9787 44.8859 17.4 44.0459 16.784C43.4112 16.3173 42.8139 15.86 42.2539 15.412C41.7125 14.964 41.2645 14.46 40.9099 13.9C40.5739 13.34 40.4059 12.6773 40.4059 11.912C40.4059 11.072 40.6205 10.3813 41.0499 9.84C41.4792 9.28 42.0392 8.86 42.7299 8.58C43.4392 8.28133 44.1952 8.132 44.9979 8.132ZM57.6828 1.076V10.988C58.1494 9.94267 58.7934 9.20533 59.6148 8.776C60.4548 8.34667 61.3601 8.132 62.3308 8.132C63.0961 8.132 63.7214 8.23467 64.2068 8.44C64.6921 8.64533 65.0841 8.90667 65.3828 9.224C65.7001 9.57867 65.9241 10.036 66.0548 10.596C66.2041 11.156 66.2788 11.912 66.2788 12.864V20.396C66.2788 21.18 66.4188 21.712 66.6988 21.992C66.9974 22.272 67.4921 22.412 68.1827 22.412V23C67.8468 22.9813 67.3334 22.9627 66.6428 22.944C65.9521 22.9067 65.2708 22.888 64.5988 22.888C63.9268 22.888 63.2641 22.9067 62.6108 22.944C61.9574 22.9627 61.4628 22.9813 61.1268 23V22.412C61.7241 22.412 62.1441 22.272 62.3868 21.992C62.6294 21.712 62.7508 21.18 62.7508 20.396V11.912C62.7508 11.408 62.7041 10.96 62.6108 10.568C62.5174 10.1573 62.3308 9.84 62.0508 9.616C61.7894 9.37333 61.3881 9.252 60.8468 9.252C60.2494 9.252 59.7081 9.42 59.2228 9.756C58.7561 10.0733 58.3828 10.5307 58.1028 11.128C57.8228 11.7067 57.6828 12.3693 57.6828 13.116V20.396C57.6828 21.18 57.8041 21.712 58.0468 21.992C58.3081 22.272 58.7281 22.412 59.3068 22.412V23C58.9894 22.9813 58.5134 22.9627 57.8788 22.944C57.2628 22.9067 56.6188 22.888 55.9468 22.888C55.2748 22.888 54.5748 22.9067 53.8468 22.944C53.1374 22.9627 52.6054 22.9813 52.2508 23V22.412C52.9414 22.412 53.4268 22.272 53.7068 21.992C54.0054 21.712 54.1548 21.18 54.1548 20.396V4.436C54.1548 3.596 54.0148 2.98 53.7348 2.588C53.4734 2.17733 52.9788 1.972 52.2508 1.972V1.384C52.8481 1.44 53.4268 1.468 53.9868 1.468C54.6961 1.468 55.3588 1.44 55.9748 1.384C56.5908 1.30933 57.1601 1.20667 57.6828 1.076ZM76.4025 8.132C77.6905 8.132 78.8292 8.39333 79.8185 8.916C80.8265 9.42 81.6198 10.232 82.1985 11.352C82.7958 12.472 83.0945 13.9467 83.0945 15.776C83.0945 17.6053 82.7958 19.08 82.1985 20.2C81.6198 21.32 80.8265 22.132 79.8185 22.636C78.8292 23.14 77.6905 23.392 76.4025 23.392C75.1145 23.392 73.9665 23.14 72.9585 22.636C71.9505 22.132 71.1572 21.32 70.5785 20.2C69.9998 19.08 69.7105 17.6053 69.7105 15.776C69.7105 13.9467 69.9998 12.472 70.5785 11.352C71.1572 10.232 71.9505 9.42 72.9585 8.916C73.9665 8.39333 75.1145 8.132 76.4025 8.132ZM76.4025 8.692C75.5252 8.692 74.8065 9.252 74.2465 10.372C73.7052 11.4733 73.4345 13.2747 73.4345 15.776C73.4345 18.2773 73.7052 20.0787 74.2465 21.18C74.8065 22.2813 75.5252 22.832 76.4025 22.832C77.2612 22.832 77.9705 22.2813 78.5305 21.18C79.0905 20.0787 79.3705 18.2773 79.3705 15.776C79.3705 13.2747 79.0905 11.4733 78.5305 10.372C77.9705 9.252 77.2612 8.692 76.4025 8.692ZM90.9023 8.524V9.112C90.4543 9.112 90.0717 9.14933 89.7543 9.224C89.437 9.28 89.2223 9.42933 89.1103 9.672C89.017 9.91467 89.0637 10.344 89.2503 10.96L91.9943 19.304L91.6863 19.528L95.2423 8.468L95.8303 8.748L91.2663 23.084C91.0423 23.0653 90.809 23.056 90.5663 23.056C90.3423 23.056 90.1183 23.0653 89.8943 23.084L85.4143 10.68C85.1157 9.93333 84.817 9.48533 84.5183 9.336C84.2383 9.18667 83.9957 9.112 83.7903 9.112V8.524C84.313 8.58 84.8543 8.62667 85.4143 8.664C85.9743 8.68267 86.5903 8.692 87.2623 8.692C87.841 8.692 88.4477 8.67333 89.0823 8.636C89.7357 8.59867 90.3423 8.56133 90.9023 8.524ZM105.77 8.524V9.112C105.416 9.18667 105.07 9.38267 104.734 9.7C104.417 9.99867 104.128 10.5587 103.866 11.38L100.03 23.084C99.8063 23.0653 99.5823 23.056 99.3583 23.056C99.1343 23.056 98.901 23.0653 98.6583 23.084L94.5423 12.08L95.2703 8.468C95.5317 8.48667 95.793 8.496 96.0543 8.496C96.3157 8.496 96.577 8.48667 96.8383 8.468L100.842 19.864L100.562 19.724L102.746 12.948C103.026 12.052 103.129 11.3333 103.054 10.792C102.998 10.2507 102.784 9.84933 102.41 9.588C102.056 9.308 101.561 9.14933 100.926 9.112V8.524C101.225 8.54267 101.533 8.56133 101.85 8.58C102.168 8.59867 102.476 8.61733 102.774 8.636C103.073 8.636 103.353 8.636 103.614 8.636C104.006 8.636 104.398 8.62667 104.79 8.608C105.182 8.58933 105.509 8.56133 105.77 8.524ZM125.936 8.216V19.976C125.936 20.816 126.076 21.4413 126.356 21.852C126.636 22.244 127.13 22.44 127.84 22.44V23.028C127.261 22.972 126.682 22.944 126.104 22.944C125.413 22.944 124.75 22.972 124.116 23.028C123.5 23.084 122.93 23.1867 122.408 23.336V20.536C121.941 21.5627 121.297 22.3 120.476 22.748C119.673 23.1773 118.805 23.392 117.872 23.392C117.144 23.392 116.528 23.2893 116.024 23.084C115.538 22.8973 115.146 22.636 114.848 22.3C114.53 21.9453 114.306 21.4787 114.176 20.9C114.045 20.3213 113.98 19.5747 113.98 18.66V11.576C113.98 10.736 113.84 10.12 113.56 9.728C113.298 9.31733 112.804 9.112 112.076 9.112V8.524C112.673 8.58 113.252 8.608 113.812 8.608C114.502 8.608 115.156 8.58 115.772 8.524C116.406 8.44933 116.985 8.34667 117.508 8.216V19.64C117.508 20.144 117.545 20.592 117.62 20.984C117.713 21.376 117.89 21.6933 118.152 21.936C118.413 22.16 118.805 22.272 119.328 22.272C119.906 22.272 120.429 22.104 120.896 21.768C121.362 21.432 121.726 20.9747 121.988 20.396C122.268 19.8173 122.408 19.164 122.408 18.436V11.576C122.408 10.736 122.268 10.12 121.988 9.728C121.726 9.31733 121.232 9.112 120.504 9.112V8.524C121.101 8.58 121.68 8.608 122.24 8.608C122.93 8.608 123.584 8.58 124.2 8.524C124.834 8.44933 125.413 8.34667 125.936 8.216ZM134.383 8.244V25.352C134.383 26.192 134.607 26.752 135.055 27.032C135.521 27.3307 136.156 27.48 136.959 27.48V28.068C136.511 28.0493 135.876 28.0213 135.055 27.984C134.252 27.9653 133.393 27.956 132.479 27.956C131.844 27.956 131.209 27.9653 130.575 27.984C129.94 28.0213 129.455 28.0493 129.119 28.068V27.48C129.753 27.48 130.201 27.3493 130.463 27.088C130.724 26.8267 130.855 26.3413 130.855 25.632V11.604C130.855 10.764 130.724 10.148 130.463 9.756C130.201 9.34533 129.697 9.14 128.951 9.14V8.552C129.548 8.608 130.127 8.636 130.687 8.636C131.396 8.636 132.059 8.608 132.675 8.552C133.291 8.47733 133.86 8.37467 134.383 8.244ZM138.779 8.132C139.749 8.132 140.617 8.40267 141.383 8.944C142.148 9.46667 142.745 10.2413 143.175 11.268C143.623 12.2947 143.847 13.5827 143.847 15.132C143.847 16.364 143.707 17.4933 143.427 18.52C143.147 19.528 142.727 20.396 142.167 21.124C141.625 21.852 140.953 22.412 140.151 22.804C139.348 23.196 138.433 23.392 137.407 23.392C136.623 23.392 135.923 23.2427 135.307 22.944C134.691 22.6453 134.243 22.244 133.963 21.74L134.243 21.348C134.467 21.74 134.775 22.0573 135.167 22.3C135.559 22.5427 136.025 22.664 136.567 22.664C137.463 22.664 138.172 22.3747 138.695 21.796C139.217 21.1987 139.581 20.368 139.787 19.304C140.011 18.24 140.123 17.008 140.123 15.608C140.123 14.0587 140.02 12.8173 139.815 11.884C139.609 10.9507 139.301 10.2787 138.891 9.868C138.48 9.43867 137.995 9.224 137.435 9.224C136.669 9.224 135.979 9.532 135.363 10.148C134.765 10.7453 134.401 11.6227 134.271 12.78L134.075 11.996C134.373 10.764 134.943 9.812 135.783 9.14C136.623 8.468 137.621 8.132 138.779 8.132ZM156.308 23.196C155.505 23.196 154.824 23.0467 154.264 22.748C153.704 22.4307 153.284 22.0107 153.004 21.488C152.724 20.9467 152.584 20.3493 152.584 19.696C152.584 18.8933 152.77 18.24 153.144 17.736C153.517 17.2133 153.993 16.8027 154.572 16.504C155.169 16.1867 155.794 15.9253 156.448 15.72C157.101 15.496 157.717 15.2907 158.296 15.104C158.874 14.8987 159.35 14.6653 159.724 14.404C160.097 14.1427 160.284 13.7973 160.284 13.368V11.324C160.284 10.7267 160.19 10.2413 160.004 9.868C159.836 9.476 159.574 9.18667 159.22 9C158.884 8.79467 158.454 8.692 157.932 8.692C157.54 8.692 157.129 8.748 156.7 8.86C156.27 8.972 155.916 9.18667 155.636 9.504C156.121 9.63467 156.494 9.87733 156.756 10.232C157.036 10.5867 157.176 11.016 157.176 11.52C157.176 12.0987 156.98 12.556 156.588 12.892C156.214 13.2093 155.738 13.368 155.16 13.368C154.544 13.368 154.077 13.172 153.76 12.78C153.442 12.388 153.284 11.9307 153.284 11.408C153.284 10.8853 153.414 10.456 153.676 10.12C153.937 9.76533 154.301 9.448 154.768 9.168C155.234 8.85067 155.832 8.59867 156.56 8.412C157.288 8.22533 158.081 8.132 158.94 8.132C159.761 8.132 160.489 8.22533 161.124 8.412C161.758 8.58 162.3 8.888 162.748 9.336C163.196 9.76533 163.485 10.2973 163.616 10.932C163.746 11.5667 163.812 12.3413 163.812 13.256V20.928C163.812 21.3947 163.868 21.7307 163.98 21.936C164.092 22.1227 164.269 22.216 164.512 22.216C164.698 22.216 164.876 22.1693 165.044 22.076C165.212 21.9827 165.398 21.852 165.604 21.684L165.912 22.16C165.501 22.4773 165.072 22.7293 164.624 22.916C164.176 23.1027 163.634 23.196 163 23.196C162.346 23.196 161.824 23.1027 161.432 22.916C161.058 22.7293 160.778 22.4587 160.592 22.104C160.424 21.7493 160.33 21.3293 160.312 20.844C159.864 21.5907 159.313 22.1693 158.66 22.58C158.006 22.9907 157.222 23.196 156.308 23.196ZM157.988 21.628C158.436 21.628 158.846 21.5067 159.22 21.264C159.612 21.0213 159.966 20.6573 160.284 20.172V14.516C160.097 14.796 159.826 15.048 159.472 15.272C159.136 15.496 158.772 15.72 158.38 15.944C157.988 16.168 157.614 16.4293 157.26 16.728C156.924 17.008 156.634 17.3627 156.392 17.792C156.168 18.2027 156.056 18.7347 156.056 19.388C156.056 20.116 156.233 20.676 156.588 21.068C156.942 21.4413 157.409 21.628 157.988 21.628ZM176.768 8.132C177.552 8.132 178.178 8.23467 178.644 8.44C179.13 8.64533 179.522 8.90667 179.82 9.224C180.156 9.57867 180.39 10.036 180.52 10.596C180.67 11.156 180.744 11.912 180.744 12.864V20.396C180.744 21.18 180.884 21.712 181.164 21.992C181.463 22.272 181.958 22.412 182.648 22.412V23C182.312 22.9813 181.79 22.9627 181.08 22.944C180.39 22.9067 179.718 22.888 179.064 22.888C178.374 22.888 177.702 22.9067 177.048 22.944C176.395 22.9627 175.91 22.9813 175.592 23V22.412C176.19 22.412 176.61 22.272 176.852 21.992C177.095 21.712 177.216 21.18 177.216 20.396V11.912C177.216 11.408 177.17 10.96 177.076 10.568C176.983 10.1573 176.796 9.84 176.516 9.616C176.236 9.37333 175.835 9.252 175.312 9.252C174.696 9.252 174.146 9.42 173.66 9.756C173.194 10.092 172.82 10.5587 172.54 11.156C172.279 11.7347 172.148 12.388 172.148 13.116V20.396C172.148 21.18 172.27 21.712 172.512 21.992C172.755 22.272 173.175 22.412 173.772 22.412V23C173.455 22.9813 172.979 22.9627 172.344 22.944C171.71 22.9067 171.066 22.888 170.412 22.888C169.722 22.888 169.022 22.9067 168.312 22.944C167.603 22.9627 167.071 22.9813 166.716 23V22.412C167.407 22.412 167.892 22.272 168.172 21.992C168.471 21.712 168.62 21.18 168.62 20.396V11.576C168.62 10.736 168.48 10.12 168.2 9.728C167.939 9.31733 167.444 9.112 166.716 9.112V8.524C167.314 8.58 167.892 8.608 168.452 8.608C169.143 8.608 169.796 8.58 170.412 8.524C171.047 8.44933 171.626 8.34667 172.148 8.216V11.016C172.615 9.952 173.259 9.20533 174.08 8.776C174.902 8.34667 175.798 8.132 176.768 8.132ZM197.163 1.076V19.948C197.163 20.788 197.303 21.4133 197.583 21.824C197.863 22.216 198.358 22.412 199.067 22.412V23C198.489 22.944 197.91 22.916 197.331 22.916C196.641 22.916 195.987 22.944 195.371 23C194.755 23.056 194.177 23.1587 193.635 23.308V4.436C193.635 3.596 193.495 2.98 193.215 2.588C192.954 2.17733 192.459 1.972 191.731 1.972V1.384C192.329 1.44 192.907 1.468 193.467 1.468C194.177 1.468 194.839 1.44 195.455 1.384C196.071 1.30933 196.641 1.20667 197.163 1.076ZM190.471 8.132C191.293 8.132 192.03 8.29067 192.683 8.608C193.337 8.92533 193.822 9.45733 194.139 10.204L193.803 10.484C193.542 9.94267 193.187 9.54133 192.739 9.28C192.291 9.01867 191.787 8.888 191.227 8.888C190.219 8.888 189.407 9.45733 188.791 10.596C188.194 11.716 187.895 13.4427 187.895 15.776C187.895 17.344 188.017 18.6133 188.259 19.584C188.502 20.536 188.847 21.2267 189.295 21.656C189.762 22.0853 190.313 22.3 190.947 22.3C191.619 22.3 192.226 22.0293 192.767 21.488C193.309 20.928 193.626 20.1347 193.719 19.108L193.915 19.892C193.673 21.0307 193.215 21.8987 192.543 22.496C191.871 23.0933 190.985 23.392 189.883 23.392C188.763 23.392 187.765 23.1213 186.887 22.58C186.029 22.02 185.357 21.18 184.871 20.06C184.405 18.9213 184.171 17.484 184.171 15.748C184.171 14.0493 184.451 12.64 185.011 11.52C185.571 10.3813 186.327 9.532 187.279 8.972C188.231 8.412 189.295 8.132 190.471 8.132ZM212.369 8.132C213.153 8.132 213.825 8.244 214.385 8.468C214.945 8.692 215.356 8.888 215.617 9.056C216.252 9.52267 216.634 9.224 216.765 8.16H217.381C217.344 8.70133 217.316 9.34533 217.297 10.092C217.278 10.82 217.269 11.8 217.269 13.032H216.653C216.56 12.3413 216.382 11.6693 216.121 11.016C215.86 10.3627 215.477 9.82133 214.973 9.392C214.469 8.944 213.806 8.72 212.985 8.72C212.406 8.72 211.921 8.888 211.529 9.224C211.156 9.56 210.969 10.036 210.969 10.652C210.969 11.212 211.137 11.7067 211.473 12.136C211.809 12.5467 212.238 12.9387 212.761 13.312C213.302 13.6667 213.862 14.0587 214.441 14.488C215.113 14.936 215.71 15.3933 216.233 15.86C216.756 16.308 217.176 16.812 217.493 17.372C217.81 17.9133 217.969 18.5573 217.969 19.304C217.969 20.1627 217.726 20.9 217.241 21.516C216.774 22.1133 216.149 22.58 215.365 22.916C214.6 23.2333 213.75 23.392 212.817 23.392C212.313 23.392 211.856 23.3453 211.445 23.252C211.034 23.1587 210.67 23.0373 210.353 22.888C210.11 22.7573 209.886 22.636 209.681 22.524C209.494 22.412 209.298 22.3187 209.093 22.244C208.906 22.1507 208.738 22.188 208.589 22.356C208.458 22.524 208.356 22.804 208.281 23.196H207.665C207.702 22.5987 207.73 21.8707 207.749 21.012C207.768 20.1533 207.777 19.0147 207.777 17.596H208.393C208.524 18.6227 208.72 19.528 208.981 20.312C209.261 21.0773 209.662 21.684 210.185 22.132C210.708 22.5613 211.38 22.776 212.201 22.776C212.556 22.776 212.892 22.7013 213.209 22.552C213.545 22.4027 213.816 22.1693 214.021 21.852C214.245 21.5347 214.357 21.1053 214.357 20.564C214.357 19.7427 214.077 19.0613 213.517 18.52C212.957 17.9787 212.257 17.4 211.417 16.784C210.782 16.3173 210.185 15.86 209.625 15.412C209.084 14.964 208.636 14.46 208.281 13.9C207.945 13.34 207.777 12.6773 207.777 11.912C207.777 11.072 207.992 10.3813 208.421 9.84C208.85 9.28 209.41 8.86 210.101 8.58C210.81 8.28133 211.566 8.132 212.369 8.132ZM225.054 1.076V10.988C225.521 9.94267 226.165 9.20533 226.986 8.776C227.826 8.34667 228.731 8.132 229.702 8.132C230.467 8.132 231.093 8.23467 231.578 8.44C232.063 8.64533 232.455 8.90667 232.754 9.224C233.071 9.57867 233.295 10.036 233.426 10.596C233.575 11.156 233.65 11.912 233.65 12.864V20.396C233.65 21.18 233.79 21.712 234.07 21.992C234.369 22.272 234.863 22.412 235.554 22.412V23C235.218 22.9813 234.705 22.9627 234.014 22.944C233.323 22.9067 232.642 22.888 231.97 22.888C231.298 22.888 230.635 22.9067 229.982 22.944C229.329 22.9627 228.834 22.9813 228.498 23V22.412C229.095 22.412 229.515 22.272 229.758 21.992C230.001 21.712 230.122 21.18 230.122 20.396V11.912C230.122 11.408 230.075 10.96 229.982 10.568C229.889 10.1573 229.702 9.84 229.422 9.616C229.161 9.37333 228.759 9.252 228.218 9.252C227.621 9.252 227.079 9.42 226.594 9.756C226.127 10.0733 225.754 10.5307 225.474 11.128C225.194 11.7067 225.054 12.3693 225.054 13.116V20.396C225.054 21.18 225.175 21.712 225.418 21.992C225.679 22.272 226.099 22.412 226.678 22.412V23C226.361 22.9813 225.885 22.9627 225.25 22.944C224.634 22.9067 223.99 22.888 223.318 22.888C222.646 22.888 221.946 22.9067 221.218 22.944C220.509 22.9627 219.977 22.9813 219.622 23V22.412C220.313 22.412 220.798 22.272 221.078 21.992C221.377 21.712 221.526 21.18 221.526 20.396V4.436C221.526 3.596 221.386 2.98 221.106 2.588C220.845 2.17733 220.35 1.972 219.622 1.972V1.384C220.219 1.44 220.798 1.468 221.358 1.468C222.067 1.468 222.73 1.44 223.346 1.384C223.962 1.30933 224.531 1.20667 225.054 1.076ZM243.774 8.132C245.062 8.132 246.2 8.39333 247.19 8.916C248.198 9.42 248.991 10.232 249.57 11.352C250.167 12.472 250.466 13.9467 250.466 15.776C250.466 17.6053 250.167 19.08 249.57 20.2C248.991 21.32 248.198 22.132 247.19 22.636C246.2 23.14 245.062 23.392 243.774 23.392C242.486 23.392 241.338 23.14 240.33 22.636C239.322 22.132 238.528 21.32 237.95 20.2C237.371 19.08 237.082 17.6053 237.082 15.776C237.082 13.9467 237.371 12.472 237.95 11.352C238.528 10.232 239.322 9.42 240.33 8.916C241.338 8.39333 242.486 8.132 243.774 8.132ZM243.774 8.692C242.896 8.692 242.178 9.252 241.618 10.372C241.076 11.4733 240.806 13.2747 240.806 15.776C240.806 18.2773 241.076 20.0787 241.618 21.18C242.178 22.2813 242.896 22.832 243.774 22.832C244.632 22.832 245.342 22.2813 245.902 21.18C246.462 20.0787 246.742 18.2773 246.742 15.776C246.742 13.2747 246.462 11.4733 245.902 10.372C245.342 9.252 244.632 8.692 243.774 8.692ZM258.273 8.524V9.112C257.825 9.112 257.443 9.14933 257.125 9.224C256.808 9.28 256.593 9.42933 256.481 9.672C256.388 9.91467 256.435 10.344 256.621 10.96L259.365 19.304L259.057 19.528L262.613 8.468L263.201 8.748L258.637 23.084C258.413 23.0653 258.18 23.056 257.937 23.056C257.713 23.056 257.489 23.0653 257.265 23.084L252.785 10.68C252.487 9.93333 252.188 9.48533 251.889 9.336C251.609 9.18667 251.367 9.112 251.161 9.112V8.524C251.684 8.58 252.225 8.62667 252.785 8.664C253.345 8.68267 253.961 8.692 254.633 8.692C255.212 8.692 255.819 8.67333 256.453 8.636C257.107 8.59867 257.713 8.56133 258.273 8.524ZM273.141 8.524V9.112C272.787 9.18667 272.441 9.38267 272.105 9.7C271.788 9.99867 271.499 10.5587 271.237 11.38L267.401 23.084C267.177 23.0653 266.953 23.056 266.729 23.056C266.505 23.056 266.272 23.0653 266.029 23.084L261.913 12.08L262.641 8.468C262.903 8.48667 263.164 8.496 263.425 8.496C263.687 8.496 263.948 8.48667 264.209 8.468L268.213 19.864L267.933 19.724L270.117 12.948C270.397 12.052 270.5 11.3333 270.425 10.792C270.369 10.2507 270.155 9.84933 269.781 9.588C269.427 9.308 268.932 9.14933 268.297 9.112V8.524C268.596 8.54267 268.904 8.56133 269.221 8.58C269.539 8.59867 269.847 8.61733 270.145 8.636C270.444 8.636 270.724 8.636 270.985 8.636C271.377 8.636 271.769 8.62667 272.161 8.608C272.553 8.58933 272.88 8.56133 273.141 8.524ZM286.895 8.132C288.183 8.132 289.321 8.39333 290.311 8.916C291.319 9.42 292.112 10.232 292.691 11.352C293.288 12.472 293.587 13.9467 293.587 15.776C293.587 17.6053 293.288 19.08 292.691 20.2C292.112 21.32 291.319 22.132 290.311 22.636C289.321 23.14 288.183 23.392 286.895 23.392C285.607 23.392 284.459 23.14 283.451 22.636C282.443 22.132 281.649 21.32 281.071 20.2C280.492 19.08 280.203 17.6053 280.203 15.776C280.203 13.9467 280.492 12.472 281.071 11.352C281.649 10.232 282.443 9.42 283.451 8.916C284.459 8.39333 285.607 8.132 286.895 8.132ZM286.895 8.692C286.017 8.692 285.299 9.252 284.739 10.372C284.197 11.4733 283.927 13.2747 283.927 15.776C283.927 18.2773 284.197 20.0787 284.739 21.18C285.299 22.2813 286.017 22.832 286.895 22.832C287.753 22.832 288.463 22.2813 289.023 21.18C289.583 20.0787 289.863 18.2773 289.863 15.776C289.863 13.2747 289.583 11.4733 289.023 10.372C288.463 9.252 287.753 8.692 286.895 8.692ZM308.947 8.216V19.976C308.947 20.816 309.087 21.4413 309.367 21.852C309.647 22.244 310.142 22.44 310.851 22.44V23.028C310.273 22.972 309.694 22.944 309.115 22.944C308.425 22.944 307.762 22.972 307.127 23.028C306.511 23.084 305.942 23.1867 305.419 23.336V20.536C304.953 21.5627 304.309 22.3 303.487 22.748C302.685 23.1773 301.817 23.392 300.883 23.392C300.155 23.392 299.539 23.2893 299.035 23.084C298.55 22.8973 298.158 22.636 297.859 22.3C297.542 21.9453 297.318 21.4787 297.187 20.9C297.057 20.3213 296.991 19.5747 296.991 18.66V11.576C296.991 10.736 296.851 10.12 296.571 9.728C296.31 9.31733 295.815 9.112 295.087 9.112V8.524C295.685 8.58 296.263 8.608 296.823 8.608C297.514 8.608 298.167 8.58 298.783 8.524C299.418 8.44933 299.997 8.34667 300.519 8.216V19.64C300.519 20.144 300.557 20.592 300.631 20.984C300.725 21.376 300.902 21.6933 301.163 21.936C301.425 22.16 301.817 22.272 302.339 22.272C302.918 22.272 303.441 22.104 303.907 21.768C304.374 21.432 304.738 20.9747 304.999 20.396C305.279 19.8173 305.419 19.164 305.419 18.436V11.576C305.419 10.736 305.279 10.12 304.999 9.728C304.738 9.31733 304.243 9.112 303.515 9.112V8.524C304.113 8.58 304.691 8.608 305.251 8.608C305.942 8.608 306.595 8.58 307.211 8.524C307.846 8.44933 308.425 8.34667 308.947 8.216ZM317.422 3.932V8.552H321.006V9.112H317.422V20.256C317.422 20.928 317.544 21.404 317.786 21.684C318.029 21.964 318.374 22.104 318.822 22.104C319.252 22.104 319.644 21.9453 319.998 21.628C320.353 21.292 320.67 20.7413 320.95 19.976L321.454 20.2C321.174 21.1147 320.736 21.88 320.138 22.496C319.56 23.0933 318.738 23.392 317.674 23.392C317.04 23.392 316.498 23.308 316.05 23.14C315.621 22.9907 315.248 22.7667 314.93 22.468C314.52 22.0387 314.24 21.5253 314.09 20.928C313.96 20.3307 313.894 19.5373 313.894 18.548V9.112H311.43V8.552H313.894V4.66C314.566 4.64133 315.192 4.576 315.77 4.464C316.349 4.352 316.9 4.17467 317.422 3.932ZM321.923 0.431998C324.033 2.09333 325.675 4.06267 326.851 6.34C328.046 8.61733 328.643 11.2587 328.643 14.264C328.643 17.2693 328.046 19.9107 326.851 22.188C325.675 24.4653 324.033 26.4347 321.923 28.096L321.531 27.732C322.875 25.8093 323.837 23.7747 324.415 21.628C324.994 19.4627 325.283 17.008 325.283 14.264C325.283 11.52 324.994 9.06533 324.415 6.9C323.837 4.73467 322.875 2.7 321.531 0.795999L321.923 0.431998Z" fill="white"/>
</svg>
