<svg width="15" height="13" viewBox="0 0 15 13" fill="none" xmlns="http://www.w3.org/2000/svg">
<path d="M14.375 0.881254C14.375 0.881254 13.1138 1.62625 12.4125 1.8375C12.0361 1.4047 11.5358 1.09794 10.9794 0.958708C10.423 0.81948 9.83719 0.854502 9.3013 1.05904C8.76542 1.26357 8.30528 1.62776 7.98311 2.10233C7.66095 2.5769 7.49231 3.13896 7.5 3.7125V4.3375C6.40165 4.36598 5.3133 4.12239 4.33188 3.62841C3.35046 3.13443 2.50645 2.4054 1.875 1.50625C1.875 1.50625 -0.625 7.13125 5 9.63126C3.71283 10.505 2.17947 10.9431 0.625 10.8813C6.25 14.0063 13.125 10.8813 13.125 3.69375C13.125 3.52 13.1075 3.34625 13.075 3.175C13.7125 2.54625 14.375 0.881254 14.375 0.881254Z" stroke="#292D32" stroke-width="0.9375" stroke-linecap="round" stroke-linejoin="round"/>
</svg>
